<svg id="Layer_3" data-name="Layer 3" xmlns="http://www.w3.org/2000/svg" viewBox="0 0 158.49 948.35"><defs><style>.cls-1{fill:#fff7e3;}.cls-1,.cls-2,.cls-9{stroke:#00685c;}.cls-1,.cls-2,.cls-3,.cls-4,.cls-9{stroke-miterlimit:10;stroke-width:0.5px;}.cls-2,.cls-4,.cls-5{fill:#00685c;}.cls-3{fill:none;}.cls-3,.cls-4{stroke:#fff7e3;}.cls-6{fill:#eb3772;}.cls-7{fill:#ffe41b;}.cls-8{fill:#0198bd;}.cls-9{fill:#fff;}</style></defs><rect class="cls-1" x="0.48" y="789.98" width="158.02" height="158.02"/><polygon class="cls-2" points="18.86 899.55 95.33 899.55 105.84 891.97 109.41 887.18 138.75 877.81 135.45 865.74 108.35 873.27 96.06 872.34 18.86 899.55"/><polygon class="cls-1" points="95.33 899.55 99.17 896.8 26.81 896.8 18.86 899.55 95.33 899.55"/><rect class="cls-1" x="116.9" y="873.09" width="14.01" height="5.7" rx="1.41" transform="translate(-231.5 65.81) rotate(-15.64)"/><line class="cls-3" x1="77.69" y1="885.52" x2="82.95" y2="889.48"/><line class="cls-3" x1="80.69" y1="884.34" x2="79.55" y2="890.82"/><rect class="cls-1" x="0.48" y="473.93" width="158.02" height="158.02"/><rect class="cls-4" x="17.68" y="555.61" width="123.93" height="2.45" transform="translate(-370.41 219.41) rotate(-45)"/><rect class="cls-1" x="0.48" y="631.93" width="158.02" height="158.02"/><polygon class="cls-2" points="61.76 771.12 98.87 714.28 99.88 701.39 99.03 695.53 108.21 667.46 100.1 661.83 91.01 687.01 84.55 695.53 61.76 771.12"/><polygon class="cls-1" points="98.87 714.28 99.25 709.59 64.13 763.38 61.76 771.12 98.87 714.28"/><path class="cls-1" d="M103.19,674.79l-2.67,7.44c-.51,1.41-1.75,2-2.78,1.29h0a3.43,3.43,0,0,1-.93-3.83l2.67-7.44c.51-1.41,1.75-2,2.77-1.28h0A3.39,3.39,0,0,1,103.19,674.79Z"/><line class="cls-3" x1="82.74" y1="718" x2="87.43" y2="716.75"/><line class="cls-3" x1="83.56" y1="714.98" x2="86.5" y2="720.17"/><polygon class="cls-4" points="98.93 662.48 95.46 662.54 86.41 687.13 79.63 695.69 56.79 773.32 60.44 772.95 83.34 696.22 89.86 687.72 98.93 662.48"/><line class="cls-3" x1="86.9" y1="687.04" x2="89.93" y2="687.72"/><rect class="cls-1" x="0.29" y="0.34" width="158.02" height="158.02"/><rect class="cls-1" x="0.29" y="158.54" width="158.02" height="158.02"/><rect class="cls-1" x="0.29" y="315.97" width="158.02" height="158.02"/><rect class="cls-5" x="0.32" width="158.17" height="11.21"/><circle class="cls-6" cx="6.78" cy="5.66" r="2.91"/><circle class="cls-7" cx="15.4" cy="5.66" r="2.91"/><circle class="cls-8" cx="24.07" cy="5.66" r="2.91"/><polygon class="cls-9" points="55.1 43.35 55.1 122.4 73.83 106.8 86.31 134.88 102.15 126.49 88.87 99.47 112.12 94.72 55.1 43.35"/><polygon class="cls-9" points="47.06 200.14 98.62 272.31 95.7 252.88 118.86 275.06 119.53 263.02 97.64 244.25 97.38 235.03 47.06 200.14"/><polygon class="cls-9" points="47.06 200.14 41.76 209.64 95.22 284.06 98.92 273.05 47.06 200.14"/><rect class="cls-9" x="72.27" y="347.39" width="13.08" height="106.92" transform="translate(-329.67 394.68) rotate(-78.01)"/><polygon class="cls-9" points="95.7 252.88 118.86 275.06 116.27 283.61 97.63 265.93 95.7 252.88"/></svg>