<?xml version="1.0" encoding="utf-8"?>
<!-- Generator: Adobe Illustrator 24.1.2, SVG Export Plug-In . SVG Version: 6.00 Build 0)  -->
<svg version="1.1" id="Layer_1" xmlns="http://www.w3.org/2000/svg" xmlns:xlink="http://www.w3.org/1999/xlink" x="0px" y="0px"
	 viewBox="0 0 200 200" style="enable-background:new 0 0 200 200;" xml:space="preserve">
<style type="text/css">
	.st0{fill:#5EB34B;stroke:#00685C;stroke-width:0.5;stroke-miterlimit:10;}
	.st1{fill:#FFF7E3;stroke:#00685C;stroke-width:0.5;stroke-miterlimit:10;}
	.st2{fill:#00685C;stroke:#00685C;stroke-width:0.5;stroke-miterlimit:10;}
	.st3{fill:#EB3772;stroke:#00685C;stroke-width:0.5;stroke-miterlimit:10;}
	.st4{fill:#FFFFFF;stroke:#00685C;stroke-width:0.5;stroke-miterlimit:10;}
	.st5{fill:#FFFFFF;stroke:#00685C;stroke-width:0.3697;stroke-miterlimit:10;}
	.st6{fill:#FFE41B;stroke:#00685C;stroke-width:0.5;stroke-miterlimit:10;}
	.st7{fill:#0198BD;stroke:#00685C;stroke-width:0.5;stroke-miterlimit:10;}
</style>
<path class="st0" d="M199.8,0.2L199.8,0.2L20,0.1v0h-1.8V200h2.2v0h177.4v0h2.2V0.2H199.8z M36.1,197.7H20.3V182h15.7V197.7z
	 M36.1,179.8H20.3v-15.7h15.7V179.8z M36.1,161.8H20.3v-15.7h15.7V161.8z M36.1,143.9H20.3v-15.7h15.7V143.9z M36.1,125.9H20.3
	v-15.7h15.7V125.9z M36.1,107.9H20.3V92.2h15.7V107.9z M36.1,90H20.3V74.2h15.7V90z M36.1,72H20.3V56.2h15.7V72z M36.1,54H20.3V38.3
	h15.7V54z M36.1,36.1H20.3V20.3h15.7V36.1z M36.1,18.1H20.3V2.4h15.7V18.1z M54,197.7H38.3V182H54L54,197.7L54,197.7z M54,179.8
	H38.3v-15.7H54L54,179.8L54,179.8z M54,161.8H38.3v-15.7H54L54,161.8L54,161.8z M54,143.9H38.3v-15.7H54L54,143.9L54,143.9z
	 M54,125.9H38.3v-15.7H54L54,125.9L54,125.9z M54,107.9H38.3V92.2H54L54,107.9L54,107.9z M54,90H38.3V74.2H54L54,90L54,90z M54,72
	H38.3V56.2H54L54,72L54,72z M54,54H38.3V38.3H54L54,54L54,54z M54,36.1H38.3V20.3H54L54,36.1L54,36.1z M54,18.1H38.3V2.4H54L54,18.1
	L54,18.1z M72,197.7H56.3V182H72C72,182,72,197.7,72,197.7z M72,179.8H56.3v-15.7H72C72,164.1,72,179.8,72,179.8z M72,161.8H56.3
	v-15.7H72C72,146.1,72,161.8,72,161.8z M72,143.9H56.3v-15.7H72C72,128.1,72,143.9,72,143.9z M72,125.9H56.3v-15.7H72
	C72,110.2,72,125.9,72,125.9z M72,107.9H56.3V92.2H72C72,92.2,72,107.9,72,107.9z M72,90H56.3V74.2H72C72,74.2,72,90,72,90z M72,72
	H56.3V56.2H72C72,56.2,72,72,72,72z M72,54H56.3V38.3H72C72,38.3,72,54,72,54z M72,36.1H56.3V20.3H72C72,20.3,72,36.1,72,36.1z
	 M72,18.1H56.3V2.4H72C72,2.4,72,18.1,72,18.1z M74.2,2.4H90v15.7H74.2V2.4z M74.2,20.3H90v15.7H74.2V20.3z M74.2,38.3H90V54H74.2
	V38.3z M74.2,56.2H90V72H74.2V56.2z M74.2,74.2H90V90H74.2V74.2z M90,197.7H74.2V182H90V197.7z M90,179.8H74.2v-15.7H90V179.8z
	 M90,161.8H74.2v-15.7H90V161.8z M90,143.9H74.2v-15.7H90V143.9z M90,125.9H74.2v-15.7H90V125.9z M90,107.9H74.2V92.2H90V107.9z
	 M107.9,197.7H92.2V182h15.7V197.7z M107.9,179.8H92.2v-15.7h15.7V179.8z M107.9,161.8H92.2v-15.7h15.7V161.8z M107.9,143.9H92.2
	v-15.7h15.7V143.9z M107.9,125.9H92.2v-15.7h15.7V125.9z M107.9,107.9H92.2V92.2h15.7V107.9z M107.9,90H92.2V74.2h15.7V90z
	 M107.9,72H92.2V56.2h15.7V72z M107.9,54H92.2V38.3h15.7V54z M107.9,36.1H92.2V20.3h15.7V36.1z M107.9,18.1H92.2V2.4h15.7V18.1z
	 M125.9,197.7h-15.7V182h15.7V197.7z M125.9,179.8h-15.7v-15.7h15.7V179.8z M125.9,161.8h-15.7v-15.7h15.7V161.8z M125.9,143.9
	h-15.7v-15.7h15.7V143.9z M125.9,125.9h-15.7v-15.7h15.7V125.9z M125.9,107.9h-15.7V92.2h15.7V107.9z M125.9,90h-15.7V74.2h15.7V90z
	 M125.9,72h-15.7V56.2h15.7V72z M125.9,54h-15.7V38.3h15.7V54z M125.9,36.1h-15.7V20.3h15.7V36.1z M125.9,18.1h-15.7V2.4h15.7V18.1z
	 M143.9,197.7h-15.7V182h15.7V197.7z M143.9,179.8h-15.7v-15.7h15.7V179.8z M143.9,161.8h-15.7v-15.7h15.7V161.8z M143.9,143.9
	h-15.7v-15.7h15.7V143.9z M143.9,125.9h-15.7v-15.7h15.7V125.9z M143.9,107.9h-15.7V92.2h15.7V107.9z M143.9,90h-15.7V74.2h15.7V90z
	 M143.9,72h-15.7V56.2h15.7V72z M143.9,54h-15.7V38.3h15.7V54z M143.9,36.1h-15.7V20.3h15.7V36.1z M143.9,18.1h-15.7V2.4h15.7V18.1z
	 M161.8,197.7h-15.7V182h15.7V197.7z M161.8,179.8h-15.7v-15.7h15.7V179.8z M161.8,161.8h-15.7v-15.7h15.7V161.8z M161.8,143.9
	h-15.7v-15.7h15.7V143.9z M161.8,125.9h-15.7v-15.7h15.7V125.9z M161.8,107.9h-15.7V92.2h15.7V107.9z M161.8,90h-15.7V74.2h15.7V90z
	 M161.8,72h-15.7V56.2h15.7V72z M161.8,54h-15.7V38.3h15.7V54z M161.8,36.1h-15.7V20.3h15.7V36.1z M161.8,18.1h-15.7V2.4h15.7V18.1z
	 M179.8,197.7h-15.7V182h15.7V197.7z M179.8,179.8h-15.7v-15.7h15.7V179.8z M179.8,161.8h-15.7v-15.7h15.7V161.8z M179.8,143.9
	h-15.7v-15.7h15.7V143.9z M179.8,125.9h-15.7v-15.7h15.7V125.9z M179.8,107.9h-15.7V92.2h15.7V107.9z M179.8,90h-15.7V74.2h15.7V90z
	 M179.8,72h-15.7V56.2h15.7V72z M179.8,54h-15.7V38.3h15.7V54z M179.8,36.1h-15.7V20.3h15.7V36.1z M179.8,18.1h-15.7V2.4h15.7V18.1z
	 M197.8,197.7H182V182h15.7V197.7z M197.8,179.8H182v-15.7h15.7V179.8z M197.8,161.8H182v-15.7h15.7V161.8z M197.8,143.9H182v-15.7
	h15.7V143.9z M197.8,125.9H182v-15.7h15.7V125.9z M197.8,107.9H182V92.2h15.7V107.9z M197.8,90H182V74.2h15.7V90z M197.8,72H182
	V56.2h15.7V72z M197.8,54H182V38.3h15.7V54z M197.8,36.1H182V20.3h15.7V36.1z M197.8,18.1H182V2.4h15.7V18.1z"/>
<rect x="2" y="1.9" class="st1" width="105.7" height="195.8"/>
<path class="st2" d="M59,48.4C59.3,33,71.9,20.7,87.3,20.7v-4.2c-13.9,0-25.8,8.8-30.4,21c-4.6-12.3-16.5-21-30.4-21v4.2
	c15.5,0,28.2,12.5,28.3,28c0,0.1,0,0.2,0,0.3h0v51.4H42.3v4.2h12.4V156h0c0,0.1,0,0.2,0,0.3c-0.2,15.5-12.8,28-28.3,28v4.2
	c13.9,0,25.8-8.8,30.4-21c4.6,12.3,16.5,21,30.4,21v-4.2c-15.4,0-28-12.4-28.3-27.7v-52.1h12.2v-4.2H59V48.4z"/>
<polygon class="st3" points="145.9,83.3 145.9,143.2 160.1,131.4 169.6,152.6 181.6,146.3 171.5,125.8 189.1,122.2 "/>
<g>
	<polygon class="st4" points="1.8,197.7 126.3,197.7 143.4,185.4 149.2,177.6 197,162.3 191.6,142.6 147.5,154.9 127.5,153.4 	"/>
	<polygon class="st5" points="126.3,197.7 132.6,193.2 14.7,193.2 1.8,197.7 	"/>
	<path class="st5" d="M180.6,161.9l-13,3.6c-2.5,0.7-5-0.8-5.7-3.2l0,0c-0.7-2.5,0.8-5,3.2-5.7l13-3.6c2.5-0.7,5,0.8,5.7,3.2l0,0
		C184.5,158.7,183.1,161.2,180.6,161.9z"/>
</g>
<g>
	<rect x="109.8" y="2.5" class="st6" width="23.6" height="23.6"/>
	<rect x="109.8" y="49.6" class="st0" width="23.6" height="23.6"/>
	<rect x="109.8" y="26" class="st3" width="23.6" height="23.6"/>
	<rect x="109.8" y="120.3" class="st1" width="23.6" height="23.6"/>
	<rect x="109.8" y="96.7" class="st2" width="23.6" height="23.6"/>
	<rect x="109.8" y="73.1" class="st7" width="23.6" height="23.6"/>
</g>
<rect x="161.6" y="20.4" class="st6" width="38.4" height="15.8"/>
</svg>
