<svg xmlns="http://www.w3.org/2000/svg" viewBox="0 0 872.92 418.59"><defs><style>.cls-1{fill:#fff;}.cls-1,.cls-10,.cls-11,.cls-2,.cls-3,.cls-5,.cls-9{stroke:#00685c;stroke-miterlimit:10;}.cls-2{fill:none;}.cls-3,.cls-5{fill:#eb3772;}.cls-4{fill:#00685c;}.cls-5{font-size:148.18px;stroke-width:0.5px;font-family:DoyleTrial-BlackItalic, Doyle Trial;font-weight:800;font-style:italic;}.cls-6{letter-spacing:-0.04em;}.cls-10,.cls-7{fill:#ffe41b;}.cls-7{letter-spacing:-0.06em;}.cls-8{fill:#0198bd;}.cls-11,.cls-9{fill:#5eb34b;}.cls-9{stroke-width:0.51px;}</style></defs><g id="Layer_2" data-name="Layer 2"><rect class="cls-1" x="42.42" y="121.2" width="779.79" height="144.84"/><rect class="cls-2" x="446.16" y="79.31" width="319.66" height="182.35"/><path class="cls-3" d="M403.2,130.31S431.09,3.6,670,0V20.63S452.11,13.24,410.33,130.47h12.8l-22.46,23.3-4.77-23.25Z"/><path class="cls-4" d="M70.18,241.3,68.87,240,68,238.25l-.37-1.64v-2.83l.37-1.69.81-1.67,1.39-1.35,2-.89h2.15l2,.81.87.67.93,1.08-1.51,1.43-.81-.92-.52-.41-1.31-.58H72.67l-1.22.56-.86.85-.54,1.08L69.76,234v2.35l.29,1.26.56,1.11.83.82,1.23.57H74.1l1.35-.57.5-.41.79-.93,1.51,1.43-.93,1.08-.87.68-2,.81H72.26Z"/><path class="cls-4" d="M81,232.68l.87-.57,1.29-.38h1.8l1.29.33,1.52,1,.54,1.35v5.5l.81,1.18-1.65,1.19-.85-1.25-.23.25-1.78.91H83.32L82,241.8l-.94-.56L80,239.62v-1.17l.29-1.34,1.44-1.46,1.9-.49h1.27l1.27.43.08.06v-.83l-.15-.39-.66-.44-.85-.21H83.31l-.64.23-.52.34-.54.53-1.43-1.49Zm5.25,5.88V238l-.31-.33-.44-.21-.89-.27h-.75l-1,.29-.61.64-.14.5V239l.48.7.35.19.75.25h.54l1.26-.48.66-.7Z"/><path class="cls-4" d="M91.35,227.5h2.07v14.55H91.35Z"/><path class="cls-4" d="M98.55,238.62l-1.2,3.43H95.14l5-13.72h1.61l5,13.72h-2.22l-1.19-3.43Zm4-2.07-1.66-4.76-1.68,4.76Z"/><path class="cls-4" d="M112.33,233.78l-.89.42-.67.75-.39.83v6.27h-2.06V231.88h2.06v.74l.23-.23,1.35-.66h1.34l1.17.33-.5,2-1-.26Z"/><path class="cls-4" d="M121.86,232.13v2.05h-2.52v5.29l.34.46.52.23h.41l1.56-.4.52,2-2,.45h-.93l-1.43-.54-1.1-1.57v-5.92h-1.74v-2.05h1.74v-3.55h2.07v3.55Z"/><path class="cls-4" d="M127,235.65l2.82.56,1.14.75.79,1.27V240l-.75,1.14-1,.71-1.35.39h-1.7l-1.6-.41-.93-.75-.61-.7,1.44-1.38.51.58.42.32,1.12.31h1.12L129,240l.38-.27.25-.35v-.56l-.25-.4-.42-.29-2.61-.54-1.29-.7-.85-1.16v-1.81l.66-1.14.94-.71,1.16-.33h1.7l1.52.4,1.37.93-1.14,1.7-1-.72-.92-.28h-1.14l-.7.19-.19.17-.18.31v.66l.28.34Z"/><path class="cls-4" d="M147.05,230.71l-1.31-.45h-1.39l-1.22.56-.85.85-.56,1.08-.27,1.26v2.35l.27,1.26.58,1.11.81.82,1.24.57h1.43l1-.44.79-.68.54-.88.14-.58v-.64H145v-2.06h5.31v2.81l-.21,1.16-.85,1.43-1.37,1.2-1.72.77h-2.22l-2.06-.91L140.55,240l-.83-1.72-.37-1.64v-2.83l.37-1.69.81-1.67,1.39-1.35,2-.89h2.15l2,.75.91.69.93,1.12-1.57,1.35-.73-.92Z"/><path class="cls-4" d="M156.68,233.78l-.89.42-.67.75-.39.83v6.27h-2.06V231.88h2.06v.74l.23-.23,1.35-.66h1.34l1.17.33-.5,2-1-.26Z"/><path class="cls-4" d="M160.93,232.68l.87-.57,1.29-.38h1.79l1.3.33,1.52,1,.54,1.35v5.5l.81,1.18-1.66,1.19-.85-1.25-.23.25-1.77.91H163.3L162,241.8l-1-.56-1.12-1.62v-1.17l.29-1.34,1.45-1.46,1.89-.49h1.28l1.27.43.08.06v-.83l-.16-.39-.65-.44-.85-.21h-1.24l-.63.23-.53.34-.54.53-1.42-1.49Zm5.25,5.88V238l-.31-.33-.45-.21-.88-.27h-.76l-1,.29-.62.64-.13.5V239l.48.7.35.19.75.25h.54l1.26-.48.65-.7Z"/><path class="cls-4" d="M174.78,231.73h1.82l2,1,1.29,1.75.42,1.41v2.22l-.42,1.45-1.29,1.73-2,1h-1.72l-1.14-.43-.15-.11v3.53h-2.07V231.88h2.05v.56Zm-.23,8.22.64.23h1.1l1-.54.81-1.1.2-.73v-1.72l-.2-.69-.79-1.12-1.06-.5h-1l-1.06.73-.48.69v4l.31.39Z"/><path class="cls-4" d="M185.07,227.5v5l1.33-.75h1.76l1.68.5,1.21,1.62v8.2H189V234.6l-.39-.56-.77-.26h-1.1l-1.2.78-.46.7v6.79H183V227.5Z"/><path class="cls-4" d="M196.4,227.5v2.8h-2.72v-2.8Zm-.33,4.38v10.17H194V231.88Z"/><path class="cls-4" d="M203.66,233.78h-1.1l-.93.5-.83,1.12-.17.73v1.72l.19.69.83,1.14,1,.48h1l.67-.23,1.14-1.06,1.43,1.43-1.39,1.39-1.6.52h-1.62l-1.95-1L199,239.51l-.43-1.41v-2.22l.43-1.45,1.29-1.74,1.95-1h1.62l1.6.52,1.41,1.43-1.49,1.39L204.31,234Z"/><path class="cls-4" d="M220.06,228.33l2.22.87,1.33,1.35.85,1.68.41,1.68v2.57l-.41,1.67-.85,1.68-1.33,1.36-2.22.86h-5.15V228.33Zm1,11.06.83-.83.53-1.08.36-1.33v-1.91l-.35-1.33-.56-1.12-.82-.81-1.39-.58H217V240h2.67Z"/><path class="cls-4" d="M229.21,238.54l.81,1.14,1,.48h1l1.16-.31,1.17-.71,1.08,1.66-1.48,1-1.7.43h-1.62l-2-1-1.29-1.73L227,238.1v-2.22l.41-1.45,1.29-1.74,2-1h1.73l2,1,1.28,1.74.46,1.33v2.32h-7ZM234,236l-.22-.62-.79-1.1-1-.53h-1l-.95.5-.83,1.12L229,236Z"/><path class="cls-4" d="M240.67,235.65l2.82.56,1.14.75.79,1.27V240l-.75,1.14-1,.71-1.35.39h-1.7l-1.6-.41-.92-.75-.62-.7,1.45-1.38.5.58.42.32,1.12.31h1.12l.64-.19.38-.27.25-.35v-.56l-.25-.4-.42-.29-2.61-.54-1.29-.7-.85-1.16v-1.81l.66-1.14.94-.71,1.16-.33h1.7l1.52.4,1.37.93-1.13,1.7-1-.72-.92-.28h-1.14l-.7.19-.19.17-.17.31v.66l.27.34Z"/><path class="cls-4" d="M250.17,227.5v2.8h-2.72v-2.8Zm-.33,4.38v10.17h-2.06V231.88Z"/><path class="cls-4" d="M254.65,245l-1-.66-.69-.69,1.45-1.49.63.64.35.27.89.23h1.17l.76-.27.69-.5.18-.43v-1.13l-1.16.69h-1.78l-2-.77-1.36-1.76-.42-1.43v-1.77l.42-1.45,1.3-1.74,1.95-1h1.71l1.16.42.16.12v-.39h2v10.46l-.48,1.45-1.54,1-1.39.48H256Zm3.47-11-.64-.23h-1.12l-.94.54-.81,1.1-.2.73v1.27l.18.68.79,1.08,1,.41h1.08l1.06-.74.49-.75v-3.32l-.33-.39Z"/><path class="cls-4" d="M267.92,231.73h1.74l1.8.48,1.21,1.64v8.2h-2.06V234.6l-.37-.52-1-.3h-1l-1.2.78-.46.66v6.83h-2.06V231.88h2.06v.62Z"/><path class="cls-4" d="M283.63,233.74h4.64v2.08h-4.64V240h6.72v2.06h-8.82V228.33h8.82v2.07h-6.72Z"/><path class="cls-4" d="M296.14,231.73h1.74l1.79.48,1.22,1.64v8.2h-2.07V234.6l-.36-.52-1-.3h-1l-1.2.78-.46.66v6.83h-2.07V231.88h2.07v.62Z"/><path class="cls-4" d="M310,241.49l-1.18.72H307l-2-1-1.3-1.75-.42-1.41v-2.22l.42-1.45,1.3-1.74,2-1h1.7l1.15.42.16.12V227.5h2.06v14.55h-2Zm-.95-7.5-.64-.23h-1.1l-1,.54-.81,1.1-.19.73v1.74l.19.67.79,1.12,1.06.5h1l1.06-.73.49-.7v-4l-.31-.39Z"/><path class="cls-4" d="M321.91,241.26l-1-1.48-.36-1.66v-2.28l.36-1.66,1-1.49,1.94-1h2l2,1,1,1.49.35,1.66v2.28l-.35,1.66-1,1.48-2,1h-2Zm4.61-1.58.42-.66.25-1.17v-1.78l-.25-1.12-.46-.69-1-.48H324.2l-.91.48-.48.67-.23,1.14v1.78l.23,1.19.45.64,1,.5h1.27Z"/><path class="cls-4" d="M330.4,234.18v-2.05h1.73v-2.62l1.12-1.66,1.68-.5h.79l1.93.4-.54,2.05-1.62-.41h-.4l-.54.2-.35.5v2h2.45v2.05H334.2v7.87h-2.07v-7.87Z"/><path class="cls-4" d="M353.81,228.33l-4.44,7.1v6.62h-2.09v-6.62l-4.43-7.1h2.49l3,5,3-5Z"/><path class="cls-4" d="M355.49,238.54l.81,1.14,1,.48h1l1.15-.31,1.18-.71,1.08,1.66-1.48,1-1.7.43H356.9l-2-1-1.3-1.73-.4-1.41v-2.22l.4-1.45,1.3-1.74,2-1h1.73l2,1,1.28,1.74.46,1.33v2.32h-7Zm4.76-2.51-.21-.62-.79-1.1-1-.53h-1l-.94.5-.83,1.12-.14.63Z"/><path class="cls-4" d="M365.14,232.68l.87-.57,1.29-.38h1.79l1.3.33,1.52,1,.54,1.35v5.5l.81,1.18-1.66,1.19-.85-1.25-.23.25-1.77.91h-1.24l-1.31-.41-.95-.56-1.12-1.62v-1.17l.29-1.34,1.45-1.46,1.89-.49H369l1.27.43.08.06v-.83l-.16-.39-.65-.44-.85-.21h-1.24l-.64.23-.52.34-.54.53-1.42-1.49Zm5.25,5.88V238l-.31-.33-.45-.21-.88-.27H368l-1,.29-.62.64-.13.5V239l.48.7.35.19.75.25h.54l1.26-.48.65-.7Z"/><path class="cls-4" d="M379.4,233.78l-.89.42-.67.75-.39.83v6.27h-2.07V231.88h2.07v.74l.23-.23,1.35-.66h1.33l1.18.33-.5,2-1-.26Z"/><path class="cls-4" d="M388.2,240l1.51-1.45.52.66.73.48,1.52.44H394l1.27-.5.35-.42.23-.47v-1l-.36-.73-.76-.41-1.86-.52-1.88-.52-1.54-1.08-.66-1-.27-1.66.54-1.7,1.27-1.33,1.82-.6h2l2.18.56,1.49.92-1.12,1.76-1.29-.75-1.57-.41h-1.42l-1,.31-.62.64-.21.77.15.73.16.29.87.62,3.9,1.08,1.56,1.08.62,1.53v1.93l-.51,1.06-1,1.12-2.14.79H392.1l-2.14-.66-1.16-.81Z"/><path class="cls-4" d="M402.73,227.5v5l1.33-.75h1.76l1.68.5,1.22,1.62v8.2h-2.07V234.6l-.39-.56-.77-.26h-1.1l-1.19.78-.47.7v6.79h-2.06V227.5Z"/><path class="cls-4" d="M412.58,241.26l-1-1.48-.36-1.66v-2.28l.36-1.66,1-1.49,1.95-1h2l2,1,1,1.49.35,1.66v2.28l-.35,1.66-1,1.48-2,1h-2Zm4.61-1.58.42-.66.25-1.17v-1.78l-.25-1.12-.46-.69-.95-.48h-1.33l-.9.48-.49.67-.23,1.14v1.78l.23,1.19.45.64,1,.5h1.27Z"/><path class="cls-4" d="M428.77,232.25l2.16,6.12,1.78-6.49h2.16l-3,10.17h-1.83l-2.14-6.15-2.12,6.15H424l-3-10.17h2.14l1.8,6.51,2.16-6.14Z"/><path class="cls-4" d="M68.09,212.81c0-2.53,1.9-4.24,4.15-5a17.91,17.91,0,0,0,2.44-.82,2.42,2.42,0,0,0,1.44-2.52c.09-3.88.18-12.72.18-19.57,0-8.39,0-17.95-.09-20.3,0-1.8-.45-2.43-1.35-2.79a9.52,9.52,0,0,0-2.08-.72c-1.8-.73-3.24-1.81-3.24-4.51a4.21,4.21,0,0,1,3.24-4.42,44,44,0,0,1,10.47-1,76.92,76.92,0,0,1,11.09.46c3.88.45,5.5,2.16,7.94,7.93,4,9.83,7.93,19.75,11.36,28.14a1,1,0,0,0,1.53.54c2.35-5.14,4.69-11,7-16.59,1.26-3.16,3.52-8.84,5-12.27,1.71-3.79,3.25-6.85,8.3-7.75a63.3,63.3,0,0,1,9.74-.55c3.43,0,6.76.09,9,.27,2.52.28,4,1.72,4,4.51A4.49,4.49,0,0,1,155,160.4a21.91,21.91,0,0,0-2.08.91,2.89,2.89,0,0,0-1.44,2.88c-.09,3.34-.18,13.17-.18,20.39,0,7.75,0,17.58.09,19.75,0,1.71.63,2.52,1.53,3a16.79,16.79,0,0,0,2.53.82c1.89.45,3.07,1.8,3.07,4.33s-1.45,4.51-4.6,4.87c-2,.27-7,.36-11.82.36s-9.56-.09-11.54-.36c-3.25-.36-4.51-2.17-4.51-4.6a4.5,4.5,0,0,1,3.24-4.6,14.82,14.82,0,0,0,2.62-.91,2.51,2.51,0,0,0,1.62-2.61V176c-.09-.9-.36-1.45-1-1.45s-1.08.55-1.35,1.36c-4.6,11.81-10,25.25-14.79,36.71-1.45,3.51-2.8,4.51-5.23,4.51-2.17,0-3.52-.73-4.69-3.43-4.79-10.73-8.57-20.11-15.43-37-.36-.9-.81-1.44-1.53-1.44s-1,.63-1.08,1.62c-.09,1.71-.09,5.14-.09,10.55,0,10.47.09,15,.09,16.6a2.49,2.49,0,0,0,1.8,2.52,21.12,21.12,0,0,0,3.07,1c2.34.54,4.33,2,4.33,4.69s-1.54,4.6-4.78,5c-2.17.27-6.59.36-11.64.36a59.3,59.3,0,0,1-9.56-.45A4.17,4.17,0,0,1,68.09,212.81Z"/><path class="cls-4" d="M163.53,205.14c0-11.09,9.74-14.25,20.21-15.87a39.6,39.6,0,0,0,4.69-.82c3.33-.9,4.78-2.25,4.78-5.32v-.27c0-3.79-2.44-6.49-6.77-6.49a7.47,7.47,0,0,0-7.39,5.41c-1.36,3.43-3.61,6-8.12,6-4.24,0-7.31-2.52-7.31-6.67,0-9.56,13.8-15,24.63-15,15.42,0,22.09,7.3,22.09,18.94,0,7.57-.09,12.44,0,16.23,0,4,.91,4.78,2.62,5.5.63.27,1.17.45,2.16.91a3.32,3.32,0,0,1,2.08,3.33,5,5,0,0,1-2.71,4.51c-2.34,1.63-5.77,2.44-9.65,2.44s-5.77-.54-7.66-2.26a9,9,0,0,1-2.44-4c-.18-.72-.36-1-.81-1s-.81.36-1.26.9a17.74,17.74,0,0,1-14.25,6.68C168.58,218.4,163.53,213.08,163.53,205.14Zm29.95-3.34a14.81,14.81,0,0,0,.36-3.61v-.36c0-2.52-.81-2.88-2.71-2.61l-.36.09c-.9.09-2.16.36-3.88.72-3.87.9-6,2.53-6,5.86s2.17,5.32,5.86,5.32C190.23,207.21,192.58,205.41,193.48,201.8Z"/><path class="cls-4" d="M220.27,213a4,4,0,0,1,3.07-4.06,16.59,16.59,0,0,0,2.52-.81c.73-.36,1.09-1.18,1.09-2.62V182.77c0-10.19,0-18.94-.09-21.73,0-1.9-.45-3-1.9-3.52a15.89,15.89,0,0,0-2.61-.63c-2.35-.36-3.52-1.72-3.52-3.79,0-2.26,1.62-3.88,4.51-5a46.27,46.27,0,0,1,12.36-2.8,8.8,8.8,0,0,1,5.32.63c2.16,1,3.33,3.34,3.33,7.22,0,11.36-.18,24.8-.18,34.36,0,1.26.46,1.63,1.45,1.63a3.77,3.77,0,0,0,1.89-.73,53.79,53.79,0,0,0,5.5-4.42,48.78,48.78,0,0,0,3.79-4,2.82,2.82,0,0,0,.72-1.9,1.76,1.76,0,0,0-1.17-1.8,17,17,0,0,0-2.53-.63c-1.89-.36-2.7-1.81-2.7-3.7,0-2.8,1.71-4.69,6.94-5.23,2.71-.18,5.78-.27,10-.27,3.6,0,7.57.09,10,.36,3.24.45,4.42,2,4.42,4.24a3.61,3.61,0,0,1-2.08,3.42,11.11,11.11,0,0,1-1.89.82,11.57,11.57,0,0,0-2.44,1.35c-1.44,1.08-3.24,2.25-4.87,3.7s-3.42,3-5.14,4.42c-1.17,1-1.71,1.62-1.71,2.7,0,.81.81,2.08,2.16,4,3.25,4.51,6.59,9.56,9.92,13.8a5.66,5.66,0,0,0,1.9,1.71,15.48,15.48,0,0,0,2.52,1.18,4.14,4.14,0,0,1,3.07,4.24c0,2.52-1.53,4.23-4.6,4.78a94.23,94.23,0,0,1-12.18.54,67.09,67.09,0,0,1-10.28-.54,4.12,4.12,0,0,1-3.61-4.33,3.57,3.57,0,0,1,2.44-3.61,3.11,3.11,0,0,0,1.08-.63,1.84,1.84,0,0,0,.36-2.17,33.89,33.89,0,0,0-5.23-8.93,4.5,4.5,0,0,0-2-1.8,2.26,2.26,0,0,0-1.54,0,11,11,0,0,0-3.15,2.26,2.28,2.28,0,0,0-.72,1.62,39.23,39.23,0,0,0-.28,5.32c0,1.71.28,2.62.82,3.16a5.16,5.16,0,0,0,1.71.9,3.91,3.91,0,0,1,2.71,3.88c0,2.07-1.27,4-4.24,4.42a62.61,62.61,0,0,1-9.74.45c-4.78,0-8.75-.09-11-.36C221.36,216.87,220.27,215,220.27,213Z"/><path class="cls-4" d="M284.68,192.87c0-16.68,12.72-27,28.41-27,13.53,0,22.37,8.38,22.37,21.19,0,4.69-2.34,7.22-8.57,7.22H305.07c-1.63,0-2.17.81-2.08,2.07.45,6,6.5,8.93,12.9,8.93,5.59,0,9-1.8,12.09-5.23a3.92,3.92,0,0,1,3-1.44,3.52,3.52,0,0,1,3.7,3.24,8,8,0,0,1-.72,2.8c-2.62,6.4-8.75,13.62-22.55,13.62C294.24,218.31,284.68,208.21,284.68,192.87Zm24.45-6h6c2.34,0,3.25-.63,3.25-2.61,0-3.43-2.71-6.95-8-6.95-5.14,0-8.21,3.34-8.57,7-.18,2,.63,2.52,2.07,2.52Z"/><path class="cls-4" d="M365.33,217.32c-3.25-.36-4.51-2.08-4.51-4.6a4.51,4.51,0,0,1,3.24-4.42c.91-.36,1.81-.64,2.71-1.09s1.44-1.08,1.44-2.61c.09-3.34.18-12.09.18-20,0-8.66,0-17-.09-20.48-.09-1.53-.54-2.07-1.44-2.52s-1.8-.72-2.8-1.09a4.15,4.15,0,0,1-3.15-4.23c0-2.53,1.62-4.33,4.87-4.78,2-.28,6.76-.37,12-.37s10.1.09,12.09.37c3.25.45,4.78,2.16,4.78,4.59a4.29,4.29,0,0,1-3.16,4.42c-1,.37-1.8.64-2.79,1.09s-1.36,1-1.45,2.52c-.09,3.52-.09,11.82-.09,20.48,0,7.93.09,16.59.18,19.93,0,1.53.45,2.25,1.45,2.7a16.4,16.4,0,0,0,2.7,1,4.25,4.25,0,0,1,3.25,4.33c0,2.43-1.44,4.33-4.51,4.78-2,.36-7,.36-12.45.36S367.31,217.59,365.33,217.32Z"/><path class="cls-4" d="M403.76,200.63c0-6.22.09-14.79.09-19.3,0-1.53-.46-2-2-2h-2.34c-2.35,0-4-1.44-4-5.32,0-2.52.45-4.24,1.8-5.41a5.2,5.2,0,0,1,3.52-1.17h2c1.09,0,1.63-.54,1.63-1.71v-5.06a5.29,5.29,0,0,1,1.62-4.14,18.54,18.54,0,0,1,5-2.89,23.07,23.07,0,0,1,5.32-1.71,8.68,8.68,0,0,1,2.17,0c1.44.27,2.16,1.35,2.16,3.06v10.19c0,1.45.45,2.08,1.9,2.08h8.65c2.8,0,4.61,1.71,4.06,6.13-.54,4.15-2.61,6-5.14,6h-6.85c-2.08,0-2.62.73-2.62,2.8v4.06c0,5.05.09,10.46.18,13.62.27,4.69,1.72,6.13,4.42,6.13a5.44,5.44,0,0,0,3.88-1.62,3.67,3.67,0,0,1,2.53-1.17,3.76,3.76,0,0,1,3.78,3.51,6.29,6.29,0,0,1-1.44,3.88,19.82,19.82,0,0,1-15.87,7.58C408.45,218.13,403.76,212.81,403.76,200.63Z"/><path class="cls-4" d="M757.55,208.48a13.54,13.54,0,0,1,13.17-13.17c5.95-.09,10.55,3.88,10.55,9.92A13.12,13.12,0,0,1,768,218.31C761.52,218.31,757.55,214.43,757.55,208.48Z"/><text class="cls-5" transform="translate(461.15 217.96)"><tspan class="cls-6">B</tspan><tspan class="cls-7" x="115.28" y="0">I</tspan><tspan class="cls-8" x="175.14" y="0">G</tspan></text><rect class="cls-9" x="627.99" y="55.47" width="3.52" height="345.38" transform="translate(857.91 -401.59) rotate(90)"/><line class="cls-10" x1="824.2" y1="279.82" x2="824.2" y2="315.68"/><line class="cls-10" x1="872.92" y1="266.2" x2="837.05" y2="266.2"/><polygon class="cls-11" points="766.38 267.14 766.38 397.94 797.36 372.12 818.01 418.59 844.22 404.71 822.25 360 860.72 352.13 766.38 267.14"/><line class="cls-10" x1="38.98" y1="107.55" x2="38.98" y2="78.86"/><line class="cls-10" y1="118.45" x2="28.69" y2="118.45"/></g></svg>