<?xml version="1.0" encoding="utf-8"?>
<!-- Generator: Adobe Illustrator 24.1.2, SVG Export Plug-In . SVG Version: 6.00 Build 0)  -->
<svg version="1.1" xmlns="http://www.w3.org/2000/svg" xmlns:xlink="http://www.w3.org/1999/xlink" x="0px" y="0px"
	 viewBox="0 0 300 300" style="enable-background:new 0 0 300 300;" xml:space="preserve">
<style type="text/css">
	.st0{fill:#EB3772;stroke:#00685C;stroke-width:0.5;stroke-miterlimit:10;}
	.st1{fill:#FFE41B;stroke:#00685C;stroke-width:0.5;stroke-miterlimit:10;}
	.st2{fill:#5EB34B;stroke:#00685C;stroke-width:0.5;stroke-miterlimit:10;}
	.st3{fill:#0198BD;stroke:#00685C;stroke-width:0.5;stroke-miterlimit:10;}
	.st4{fill:#FFF7E3;stroke:#00685C;stroke-width:0.5;stroke-miterlimit:10;}
	.st5{fill:#5EB34B;stroke:#00685C;stroke-width:1.1271;stroke-miterlimit:10;}
	.st6{fill:#FFF7E3;stroke:#00685C;stroke-width:1.1271;stroke-miterlimit:10;}
	.st7{fill:#FFE41B;stroke:#00685C;stroke-width:1.175;stroke-miterlimit:10;}
	.st8{fill:none;stroke:#00685C;stroke-width:1.1271;stroke-miterlimit:10;}
	.st9{fill:#00685C;}
	.st10{fill:#FFFFFF;stroke:#00685C;stroke-width:1.1271;stroke-miterlimit:10;}
	.st11{fill:#FFFFFF;stroke:#00685C;stroke-width:0.8333;stroke-miterlimit:10;}
	.st12{fill:#5EB34B;stroke:#00685C;stroke-width:1.1454;stroke-miterlimit:10;}
	.st13{fill:#FFE41B;stroke:#00685C;stroke-width:1.1271;stroke-miterlimit:10;}
	.st14{fill:#FFF7E3;stroke:#00685C;stroke-width:1.1271;stroke-linejoin:round;stroke-miterlimit:10;}
	.st15{fill:#00685C;stroke:#00685C;stroke-width:1.1271;stroke-miterlimit:10;}
	.st16{fill:#EB3772;stroke:#00685C;stroke-width:1.1271;stroke-miterlimit:10;}
	.st17{fill:#EB3772;}
	.st18{fill:none;stroke:#00685C;stroke-width:0.5;stroke-miterlimit:10;}
	.st19{fill:#FFFFFF;stroke:#00685C;stroke-width:0.3697;stroke-miterlimit:10;}
	.st20{fill:#00685C;stroke:#00685C;stroke-width:0.5;stroke-miterlimit:10;}
	.st21{fill:#FFFFFF;stroke:#00685C;stroke-width:0.5;stroke-miterlimit:10;}
	.st22{fill:#0198BD;}
	.st23{display:none;}
	.st24{display:inline;}
</style>
<g id="Layer_1">
	<g>
		<rect x="14.57" y="54.14" class="st3" width="274.66" height="198.98"/>
		<rect x="25.33" y="67.35" class="st4" width="253.15" height="171.45"/>
	</g>
	<rect x="35.53" y="77.66" class="st4" width="198.6" height="140.21"/>
	<rect x="234.15" y="77.53" class="st4" width="33.4" height="28.13"/>
	<rect x="234.15" y="105.51" class="st4" width="33.4" height="28.13"/>
	<rect x="234.15" y="133.49" class="st4" width="33.4" height="28.13"/>
	<rect x="234.15" y="161.47" class="st1" width="33.4" height="28.13"/>
	<rect x="234.15" y="189.58" class="st4" width="33.4" height="28.13"/>
	<g>
		<rect x="142.86" y="253.31" class="st3" width="18.09" height="17.03"/>
	</g>
	<g>
		<rect x="77.22" y="270.32" class="st3" width="150.51" height="18.09"/>
	</g>
</g>
<g id="Layer_2">
	<g>
		<path class="st0" d="M133.91,222.95c-1.02,0.85-1.73,1.33-2.12,1.45c-0.4,0.11-0.88,0.17-1.44,0.17c-1.53,0-2.67-0.78-3.4-2.34
			c-0.74-1.56-1.11-3.9-1.11-7.01c0-4.59,1.12-8.61,3.36-12.07c2.24-3.46,5.79-6.6,10.67-9.44c1.47-0.85,3.47-1.91,5.99-3.19
			c2.52-1.27,4.18-2.14,4.97-2.59c2.83-1.53,4.84-2.98,6.04-4.33c1.19-1.36,1.79-2.83,1.79-4.42c0-1.93-0.58-3.46-1.74-4.59
			c-1.16-1.13-2.76-1.7-4.8-1.7c-1.36,0-2.55,0.25-3.57,0.76c-1.02,0.51-1.9,1.25-2.63,2.21c-0.57,0.74-1.21,1.83-1.91,3.27
			c-0.71,1.45-1.09,2.2-1.15,2.25c-1.02,1.87-2.24,3.22-3.65,4.04c-1.42,0.82-3.17,1.23-5.27,1.23c-2.72,0-4.8-0.71-6.25-2.12
			c-1.45-1.42-2.14-3.4-2.08-5.95c0.06-5.16,2.48-9.48,7.27-12.96c4.79-3.49,11.04-5.23,18.74-5.23c7.65,0,13.56,1.56,17.72,4.67
			c4.17,3.12,6.25,7.51,6.25,13.17c0,5.16-1.67,9.34-5.02,12.54c-3.34,3.2-9.63,6.19-18.87,8.97c-3.63,1.19-6.19,2.28-7.69,3.27
			c-1.5,0.99-2.25,2.05-2.25,3.19c0,0.34,0.13,0.61,0.38,0.81c0.25,0.2,0.58,0.3,0.98,0.3c0.28,0,0.57-0.03,0.85-0.08
			c0.28-0.06,0.68-0.17,1.19-0.34c0.91-0.34,1.84-0.58,2.81-0.72c0.96-0.14,1.98-0.21,3.06-0.21c1.13,0,2.25,0.07,3.36,0.21
			c1.11,0.14,2.56,0.41,4.38,0.81c1.47,0.34,2.56,0.57,3.27,0.68c0.71,0.11,1.4,0.17,2.08,0.17c1.93,0,3.43-0.5,4.51-1.49
			c1.08-0.99,1.78-2.56,2.12-4.72c0.11-0.96,0.5-1.74,1.15-2.34c0.65-0.6,1.43-0.89,2.34-0.89c1.19,0,2.1,0.38,2.72,1.15
			c0.62,0.76,0.94,1.88,0.94,3.36c0,7.08-1.33,12.45-4,16.11c-2.66,3.66-6.54,5.48-11.64,5.48c-1.98,0-3.97-0.14-5.95-0.42
			c-1.98-0.28-4.62-0.88-7.91-1.79c-2.44-0.62-4.24-1.03-5.4-1.23c-1.16-0.2-2.25-0.3-3.27-0.3c-1.25,0-2.32,0.17-3.23,0.51
			C135.55,221.59,134.7,222.16,133.91,222.95z"/>
	</g>
	<g>
		<path class="st0" d="M68.71,148.41c-2.23,0-4-0.03-5.32-0.08c-1.32-0.05-2.23-0.15-2.74-0.3c-1.01-0.2-1.77-0.62-2.28-1.25
			c-0.51-0.63-0.76-1.46-0.76-2.47c0-0.96,0.32-1.81,0.95-2.55c0.63-0.73,1.48-1.28,2.55-1.63c0.51-0.15,0.94-0.29,1.29-0.42
			c0.35-0.13,0.61-0.21,0.76-0.27c0.46-0.2,0.77-0.47,0.95-0.8c0.18-0.33,0.27-0.77,0.27-1.33c0.05-1.72,0.09-4.22,0.11-7.49
			c0.03-3.27,0.04-6.27,0.04-9.01c0-6.08,0-10.27,0-12.58s-0.03-3.81-0.08-4.52c0-0.71-0.09-1.24-0.27-1.6
			c-0.18-0.35-0.47-0.61-0.87-0.76c-0.25-0.1-0.51-0.2-0.76-0.3c-0.25-0.1-0.58-0.2-0.99-0.3c-0.96-0.41-1.66-0.91-2.09-1.52
			c-0.43-0.61-0.65-1.37-0.65-2.28c0-0.96,0.24-1.77,0.72-2.43c0.48-0.66,1.15-1.09,2.01-1.29c1.11-0.3,2.41-0.52,3.88-0.65
			c1.47-0.13,3.12-0.19,4.94-0.19c3.19,0,5.32,0.03,6.38,0.08c1.06,0.05,2.05,0.15,2.96,0.3c1.62,0.2,2.88,0.75,3.76,1.63
			c0.89,0.89,1.86,2.57,2.93,5.05c0.51,1.27,1.91,4.78,4.22,10.53c2.3,5.75,4.09,10.15,5.36,13.19c0.1,0.3,0.29,0.51,0.57,0.61
			c0.28,0.1,0.52,0.05,0.72-0.15c0.66-1.42,1.36-3.01,2.09-4.79c0.73-1.77,1.99-4.84,3.76-9.2c1.62-4.1,2.65-6.67,3.08-7.71
			c0.43-1.04,0.8-1.91,1.1-2.62c1.06-2.38,2.1-3.99,3.12-4.83c1.01-0.84,2.3-1.41,3.88-1.71c1.01-0.15,2.15-0.27,3.42-0.34
			c1.27-0.08,2.86-0.11,4.79-0.11c1.52,0,2.94,0.03,4.26,0.08c1.32,0.05,2.43,0.1,3.34,0.15c1.11,0.1,1.95,0.48,2.51,1.14
			c0.56,0.66,0.84,1.55,0.84,2.66c0,0.91-0.23,1.7-0.68,2.36s-1.09,1.14-1.9,1.44c-0.3,0.1-0.6,0.22-0.87,0.34
			c-0.28,0.13-0.57,0.27-0.87,0.42c-0.46,0.25-0.77,0.57-0.95,0.95c-0.18,0.38-0.27,0.87-0.27,1.48c-0.05,1.42-0.09,3.89-0.11,7.41
			c-0.03,3.52-0.04,6.78-0.04,9.77c0,5.88,0,9.97,0,12.27s0.02,3.76,0.08,4.37c0,0.66,0.1,1.19,0.3,1.6
			c0.2,0.41,0.53,0.71,0.99,0.91c0.4,0.15,0.78,0.29,1.14,0.42c0.35,0.13,0.68,0.22,0.99,0.27c0.86,0.2,1.51,0.61,1.94,1.22
			c0.43,0.61,0.65,1.42,0.65,2.43c0,1.17-0.34,2.1-1.03,2.81c-0.68,0.71-1.63,1.14-2.85,1.29c-0.71,0.1-1.93,0.18-3.65,0.23
			c-1.72,0.05-3.83,0.08-6.31,0.08c-2.43,0-4.48-0.03-6.16-0.08c-1.67-0.05-2.86-0.13-3.57-0.23c-1.27-0.15-2.22-0.56-2.85-1.22
			c-0.63-0.66-0.95-1.54-0.95-2.66c0-0.96,0.23-1.77,0.68-2.43c0.46-0.66,1.14-1.14,2.05-1.44c0.56-0.15,1.03-0.29,1.41-0.42
			c0.38-0.13,0.65-0.24,0.8-0.34c0.46-0.2,0.8-0.48,1.03-0.84c0.23-0.35,0.34-0.81,0.34-1.37c0-2.43,0-4.86,0-7.3s0-4.86,0-7.3
			c0-1.57,0-3.15,0-4.75c0-1.6,0-3.18,0-4.75c-0.05-0.41-0.14-0.71-0.27-0.91c-0.13-0.2-0.32-0.3-0.57-0.3c-0.2,0-0.42,0.1-0.65,0.3
			c-0.23,0.2-0.39,0.48-0.49,0.84c-1.98,5.02-4.05,10.24-6.23,15.66c-2.18,5.42-4.26,10.51-6.23,15.28
			c-0.56,1.42-1.17,2.41-1.82,2.96c-0.66,0.56-1.52,0.84-2.58,0.84c-1.01,0-1.81-0.22-2.39-0.65c-0.58-0.43-1.1-1.18-1.56-2.24
			c-1.42-3.14-2.86-6.46-4.33-9.96c-1.47-3.5-4.36-10.56-8.66-21.2c-0.15-0.4-0.34-0.71-0.57-0.91c-0.23-0.2-0.47-0.3-0.72-0.3
			c-0.25,0-0.46,0.11-0.61,0.34c-0.15,0.23-0.25,0.57-0.3,1.03c-0.05,0.56-0.08,1.36-0.08,2.39c0,1.04,0,3.21,0,6.5
			c0,2.13,0,4.14,0,6.04c0,1.9,0.02,3.94,0.08,6.12c0,0.61,0,1.03,0,1.25c0,0.23,0,0.42,0,0.57c0.05,0.56,0.19,1.01,0.42,1.37
			c0.23,0.35,0.59,0.61,1.1,0.76c0.41,0.15,0.81,0.29,1.22,0.42c0.41,0.13,0.86,0.27,1.37,0.42c1.17,0.25,2.06,0.72,2.7,1.41
			c0.63,0.68,0.95,1.53,0.95,2.55c0,1.17-0.36,2.12-1.06,2.85c-0.71,0.74-1.7,1.2-2.96,1.41c-0.81,0.1-2.04,0.18-3.69,0.23
			C73.18,148.38,71.14,148.41,68.71,148.41z"/>
		<path class="st0" d="M151.17,148.41c-2.33,0-4.48-0.08-6.46-0.23c-1.98-0.15-3.37-0.33-4.18-0.53c-0.86-0.25-1.51-0.66-1.94-1.22
			c-0.43-0.56-0.65-1.29-0.65-2.2c0-0.81,0.19-1.49,0.57-2.05c0.38-0.56,0.92-0.96,1.63-1.22c0.1-0.05,0.42-0.16,0.95-0.34
			s0.97-0.32,1.33-0.42c0.61-0.25,1.05-0.62,1.33-1.1c0.28-0.48,0.44-1.1,0.49-1.86c0.05-1.52,0.09-3.9,0.11-7.14
			c0.03-3.24,0.04-6.43,0.04-9.58c0-2.84,0-5.67,0-8.51c0-2.84,0-5.67,0-8.51c-0.05-0.81-0.2-1.43-0.46-1.86
			c-0.25-0.43-0.66-0.75-1.22-0.95c-0.25-0.1-0.52-0.19-0.8-0.27c-0.28-0.08-0.77-0.19-1.48-0.34c-0.81-0.2-1.42-0.59-1.82-1.18
			c-0.41-0.58-0.61-1.35-0.61-2.32c0-1.42,0.63-2.48,1.9-3.19c1.27-0.71,3.14-1.06,5.62-1.06c1.06,0,2.23,0.01,3.5,0.04
			c1.27,0.03,3.14,0.09,5.62,0.19c2.33,0.05,4.05,0.09,5.17,0.11c1.11,0.03,2.13,0.04,3.04,0.04c1.92,0,3.86,0,5.81,0
			c1.95,0,3.89,0,5.81,0c0.56,0,1.09-0.06,1.6-0.19c0.51-0.13,1.17-0.37,1.98-0.72c0.76-0.35,1.37-0.58,1.82-0.68
			c0.46-0.1,0.94-0.15,1.44-0.15c1.06,0,1.99,0.25,2.77,0.76c0.79,0.51,1.41,1.27,1.86,2.28c0.81,1.93,1.48,3.99,2.01,6.19
			c0.53,2.2,0.87,4.5,1.03,6.88c0.15,1.67-0.17,3.02-0.95,4.03c-0.79,1.01-1.89,1.52-3.31,1.52c-1.22,0-2.27-0.33-3.15-0.99
			c-0.89-0.66-1.84-1.87-2.85-3.65c-1.01-1.72-1.75-2.91-2.2-3.57c-0.46-0.66-0.91-1.24-1.37-1.75c-0.46-0.51-1.01-0.86-1.67-1.06
			c-0.66-0.2-1.57-0.3-2.74-0.3c-2.94,0-5.03,0-6.27,0c-1.24,0-2.09,0.03-2.55,0.08c-0.81,0.05-1.42,0.3-1.82,0.76
			c-0.41,0.46-0.63,1.09-0.68,1.9c-0.05,0.61-0.09,1.72-0.11,3.34c-0.03,1.62-0.04,4-0.04,7.14c0,0.76,0.08,1.39,0.23,1.9
			c0.15,0.51,0.38,0.86,0.68,1.06c0.35,0.15,1.09,0.29,2.2,0.42c1.11,0.13,2.13,0.19,3.04,0.19c0.56,0,1-0.09,1.33-0.27
			c0.33-0.18,0.54-0.44,0.65-0.8c0.1-0.25,0.2-0.58,0.3-0.99c0.1-0.4,0.2-1.29,0.3-2.66c0.1-1.42,0.49-2.48,1.18-3.19
			c0.68-0.71,1.63-1.06,2.85-1.06c1.32,0,2.3,0.33,2.96,0.99c0.66,0.66,1.11,1.75,1.37,3.27c0.15,1.27,0.27,2.99,0.34,5.17
			c0.08,2.18,0.11,4.86,0.11,8.06c0,2.69-0.33,4.64-0.99,5.85c-0.66,1.22-1.7,1.82-3.12,1.82c-1.32,0-2.33-0.34-3.04-1.03
			c-0.71-0.68-1.17-1.79-1.37-3.31c-0.15-1.11-0.28-1.99-0.38-2.62c-0.1-0.63-0.2-1.03-0.3-1.18c-0.15-0.41-0.37-0.67-0.65-0.8
			c-0.28-0.13-0.67-0.19-1.18-0.19c-1.12,0-2.17,0.04-3.15,0.11s-1.69,0.17-2.09,0.27c-0.46,0.2-0.77,0.57-0.95,1.1
			c-0.18,0.53-0.27,1.33-0.27,2.39c0,1.17,0,2.34,0,3.53c0,1.19,0,2.37,0,3.53c0,0.96,0.13,1.72,0.38,2.28
			c0.25,0.56,0.63,0.91,1.14,1.06c0.3,0.1,0.62,0.19,0.95,0.27c0.33,0.08,0.82,0.17,1.48,0.27c0.41,0.1,0.72,0.17,0.95,0.19
			c0.23,0.03,0.42,0.06,0.57,0.11c0.91,0.25,1.58,0.68,2.01,1.29c0.43,0.61,0.65,1.42,0.65,2.43c0,1.17-0.37,2.1-1.1,2.81
			c-0.73,0.71-1.76,1.14-3.08,1.29c-1.32,0.1-2.88,0.18-4.67,0.23C156.86,148.38,154.36,148.41,151.17,148.41z"/>
		<path class="st0" d="M194.41,148.41c-1.98,0-3.57-0.03-4.79-0.08c-1.22-0.05-2.28-0.13-3.19-0.23c-1.22-0.15-2.13-0.53-2.74-1.14
			c-0.61-0.61-0.91-1.44-0.91-2.51c0-0.91,0.25-1.71,0.76-2.39c0.51-0.68,1.24-1.23,2.2-1.63c0.46-0.2,0.89-0.42,1.29-0.65
			c0.4-0.23,0.73-0.44,0.99-0.65c0.41-0.41,0.79-0.89,1.14-1.44c0.35-0.56,0.71-1.29,1.06-2.2c0.35-0.96,0.76-2,1.22-3.12
			s1.11-2.79,1.98-5.02c0.91-2.33,1.61-4.1,2.09-5.32c0.48-1.22,0.92-2.36,1.33-3.42c1.17-2.84,2.29-5.62,3.38-8.36
			c1.09-2.74,2.17-5.42,3.23-8.06c1.82-4.46,3.48-7.28,4.98-8.47c1.49-1.19,3.51-1.79,6.04-1.79c2.58,0,4.51,0.48,5.78,1.44
			c1.27,0.96,2.68,3.22,4.26,6.76c0.71,1.72,1.98,4.9,3.8,9.54s2.81,7.16,2.96,7.56c0.41,1.01,0.85,2.13,1.33,3.34
			c0.48,1.22,1.18,2.99,2.09,5.32c1.37,3.45,2.33,5.9,2.89,7.37s1.04,2.71,1.44,3.72c0.25,0.61,0.51,1.08,0.76,1.41
			c0.25,0.33,0.58,0.6,0.99,0.8c0.3,0.15,0.62,0.32,0.95,0.49c0.33,0.18,0.77,0.37,1.33,0.57c1.01,0.41,1.71,0.89,2.09,1.44
			c0.38,0.56,0.57,1.32,0.57,2.28c0,1.17-0.36,2.09-1.06,2.77c-0.71,0.68-1.75,1.1-3.12,1.25c-1.93,0.15-3.79,0.25-5.59,0.3
			c-1.8,0.05-3.71,0.08-5.74,0.08c-2.74,0-4.98-0.03-6.73-0.08c-1.75-0.05-3.21-0.15-4.37-0.3c-1.01-0.15-1.8-0.54-2.36-1.18
			c-0.56-0.63-0.84-1.43-0.84-2.39c0-0.96,0.25-1.77,0.76-2.43c0.51-0.66,1.22-1.09,2.13-1.29c0.25-0.05,0.51-0.1,0.76-0.15
			c0.25-0.05,0.63-0.1,1.14-0.15c0.25-0.05,0.46-0.09,0.61-0.11c0.15-0.02,0.28-0.04,0.38-0.04c0.61-0.2,1.04-0.51,1.29-0.91
			c0.25-0.4,0.3-0.89,0.15-1.44c-0.1-0.61-0.27-1.23-0.49-1.86c-0.23-0.63-0.7-1.84-1.41-3.61c-0.25-0.51-0.58-0.86-0.99-1.06
			c-0.41-0.2-0.99-0.3-1.75-0.3c-1.17,0-2.33,0-3.5,0c-1.17,0-2.33,0-3.5,0c-1.12,0-2.24,0-3.38,0c-1.14,0-2.29,0-3.46,0
			c-0.66,0-1.17,0.11-1.52,0.34c-0.35,0.23-0.63,0.62-0.84,1.18c-0.46,1.06-0.82,2-1.1,2.81c-0.28,0.81-0.52,1.65-0.72,2.51
			c-0.1,0.46-0.05,0.85,0.15,1.18c0.2,0.33,0.51,0.54,0.91,0.65c0.2,0.05,0.42,0.09,0.65,0.11c0.23,0.03,0.54,0.09,0.95,0.19
			c0.56,0.05,0.96,0.1,1.22,0.15c0.25,0.05,0.48,0.1,0.68,0.15c0.96,0.2,1.71,0.63,2.24,1.29c0.53,0.66,0.8,1.47,0.8,2.43
			c0,1.06-0.3,1.94-0.91,2.62c-0.61,0.68-1.44,1.1-2.51,1.25c-1.01,0.15-2.38,0.27-4.1,0.34
			C198.85,148.37,196.79,148.41,194.41,148.41z M205.97,120.75c-0.3,0.86-0.32,1.48-0.04,1.86c0.28,0.38,0.85,0.57,1.71,0.57
			c0.66,0,1.32,0,1.98,0c0.66,0,1.32,0,1.98,0c0.71,0,1.43,0,2.17,0c0.73,0,1.46,0,2.17,0c0.76,0,1.24-0.21,1.44-0.65
			c0.2-0.43,0.15-1.05-0.15-1.86c-0.56-1.57-1.19-3.25-1.9-5.05c-0.71-1.8-1.44-3.71-2.2-5.74c-0.15-0.41-0.35-0.72-0.61-0.95
			c-0.25-0.23-0.56-0.34-0.91-0.34c-0.36,0-0.65,0.11-0.87,0.34c-0.23,0.23-0.44,0.57-0.65,1.03c-0.66,1.57-1.33,3.28-2.01,5.13
			C207.37,116.93,206.67,118.82,205.97,120.75z"/>
	</g>
</g>
<g id="Layer_2_copy" class="st23">
</g>
</svg>
