<?xml version="1.0" encoding="utf-8"?>
<!-- Generator: Adobe Illustrator 24.1.2, SVG Export Plug-In . SVG Version: 6.00 Build 0)  -->
<svg version="1.1" xmlns="http://www.w3.org/2000/svg" xmlns:xlink="http://www.w3.org/1999/xlink" x="0px" y="0px"
	 viewBox="0 0 300 300" style="enable-background:new 0 0 300 300;" xml:space="preserve">
<style type="text/css">
	.st0{fill:#EB3772;stroke:#00685C;stroke-width:0.5;stroke-miterlimit:10;}
	.st1{fill:#FFE41B;stroke:#00685C;stroke-width:0.5;stroke-miterlimit:10;}
	.st2{fill:#5EB34B;stroke:#00685C;stroke-width:0.5;stroke-miterlimit:10;}
	.st3{fill:#0198BD;stroke:#00685C;stroke-width:0.5;stroke-miterlimit:10;}
	.st4{fill:#FFF7E3;stroke:#00685C;stroke-width:0.5;stroke-miterlimit:10;}
	.st5{fill:#5EB34B;stroke:#00685C;stroke-width:1.1271;stroke-miterlimit:10;}
	.st6{fill:#FFF7E3;stroke:#00685C;stroke-width:1.1271;stroke-miterlimit:10;}
	.st7{fill:#FFE41B;stroke:#00685C;stroke-width:1.175;stroke-miterlimit:10;}
	.st8{fill:none;stroke:#00685C;stroke-width:1.1271;stroke-miterlimit:10;}
	.st9{fill:#00685C;}
	.st10{fill:#FFFFFF;stroke:#00685C;stroke-width:1.1271;stroke-miterlimit:10;}
	.st11{fill:#FFFFFF;stroke:#00685C;stroke-width:0.8333;stroke-miterlimit:10;}
	.st12{fill:#5EB34B;stroke:#00685C;stroke-width:1.1454;stroke-miterlimit:10;}
	.st13{fill:#FFE41B;stroke:#00685C;stroke-width:1.1271;stroke-miterlimit:10;}
	.st14{fill:#FFF7E3;stroke:#00685C;stroke-width:1.1271;stroke-linejoin:round;stroke-miterlimit:10;}
	.st15{fill:#00685C;stroke:#00685C;stroke-width:1.1271;stroke-miterlimit:10;}
	.st16{fill:#EB3772;stroke:#00685C;stroke-width:1.1271;stroke-miterlimit:10;}
	.st17{fill:#EB3772;}
	.st18{fill:none;stroke:#00685C;stroke-width:0.5;stroke-miterlimit:10;}
	.st19{fill:#FFFFFF;stroke:#00685C;stroke-width:0.3697;stroke-miterlimit:10;}
	.st20{fill:#00685C;stroke:#00685C;stroke-width:0.5;stroke-miterlimit:10;}
	.st21{fill:#FFFFFF;stroke:#00685C;stroke-width:0.5;stroke-miterlimit:10;}
	.st22{fill:#0198BD;}
	.st23{display:none;}
	.st24{display:inline;}
</style>
<g id="Layer_1">
	<path class="st2" d="M259.98,28.74v-0.05H40.36v0.05h-2.25v244.71h2.72v-0.02h216.66v0.02h2.72V28.74H259.98z M60.04,270.68H40.83
		v-19.26h19.21V270.68z M60.04,248.7H40.83v-19.28h19.21V248.7z M60.04,226.69H40.83v-19.28h19.21V226.69z M60.04,204.69H40.83
		v-19.28h19.21V204.69z M60.04,182.68H40.83v-19.26h19.21V182.68z M60.04,160.68H40.83v-19.26h19.21V160.68z M60.04,138.69H40.83
		v-19.28h19.21V138.69z M60.04,116.68H40.83V97.41h19.21V116.68z M60.04,94.68H40.83V75.4h19.21V94.68z M60.04,72.67H40.83V53.41
		h19.21V72.67z M60.04,50.67H40.83V31.41h19.21V50.67z M81.98,270.68h-19.2v-19.26h19.2V270.68z M81.98,248.7h-19.2v-19.28h19.2
		V248.7z M81.98,226.69h-19.2v-19.28h19.2V226.69z M81.98,204.69h-19.2v-19.28h19.2V204.69z M81.98,182.68h-19.2v-19.26h19.2V182.68
		z M81.98,160.68h-19.2v-19.26h19.2V160.68z M81.98,138.69h-19.2v-19.28h19.2V138.69z M81.98,116.68h-19.2V97.41h19.2V116.68z
		 M81.98,94.68h-19.2V75.4h19.2V94.68z M81.98,72.67h-19.2V53.41h19.2V72.67z M81.98,50.67h-19.2V31.41h19.2V50.67z M103.92,270.68
		H84.7v-19.26h19.22V270.68z M103.92,248.7H84.7v-19.28h19.22V248.7z M103.92,226.69H84.7v-19.28h19.22V226.69z M103.92,204.69H84.7
		v-19.28h19.22V204.69z M103.92,182.68H84.7v-19.26h19.22V182.68z M103.92,160.68H84.7v-19.26h19.22V160.68z M103.92,138.69H84.7
		v-19.28h19.22V138.69z M103.92,116.68H84.7V97.41h19.22V116.68z M103.92,94.68H84.7V75.4h19.22V94.68z M103.92,72.67H84.7V53.41
		h19.22V72.67z M103.92,50.67H84.7V31.41h19.22V50.67z M106.64,31.41h19.22v19.26h-19.22V31.41z M106.64,53.41h19.22v19.26h-19.22
		V53.41z M106.64,75.4h19.22v19.28h-19.22V75.4z M106.64,97.41h19.22v19.28h-19.22V97.41z M106.64,119.41h19.22v19.28h-19.22V119.41
		z M125.86,270.68h-19.22v-19.26h19.22V270.68z M125.86,248.7h-19.22v-19.28h19.22V248.7z M125.86,226.69h-19.22v-19.28h19.22
		V226.69z M125.86,204.69h-19.22v-19.28h19.22V204.69z M125.86,182.68h-19.22v-19.26h19.22V182.68z M125.86,160.68h-19.22v-19.26
		h19.22V160.68z M147.8,270.68h-19.22v-19.26h19.22V270.68z M147.8,248.7h-19.22v-19.28h19.22V248.7z M147.8,226.69h-19.22v-19.28
		h19.22V226.69z M147.8,204.69h-19.22v-19.28h19.22V204.69z M147.8,182.68h-19.22v-19.26h19.22V182.68z M147.8,160.68h-19.22v-19.26
		h19.22V160.68z M147.8,138.69h-19.22v-19.28h19.22V138.69z M147.8,116.68h-19.22V97.41h19.22V116.68z M147.8,94.68h-19.22V75.4
		h19.22V94.68z M147.8,72.67h-19.22V53.41h19.22V72.67z M147.8,50.67h-19.22V31.41h19.22V50.67z M169.73,270.68h-19.21v-19.26h19.21
		V270.68z M169.73,248.7h-19.21v-19.28h19.21V248.7z M169.73,226.69h-19.21v-19.28h19.21V226.69z M169.73,204.69h-19.21v-19.28
		h19.21V204.69z M169.73,182.68h-19.21v-19.26h19.21V182.68z M169.73,160.68h-19.21v-19.26h19.21V160.68z M169.73,138.69h-19.21
		v-19.28h19.21V138.69z M169.73,116.68h-19.21V97.41h19.21V116.68z M169.73,94.68h-19.21V75.4h19.21V94.68z M169.73,72.67h-19.21
		V53.41h19.21V72.67z M169.73,50.67h-19.21V31.41h19.21V50.67z M191.67,270.68h-19.2v-19.26h19.2V270.68z M191.67,248.7h-19.2
		v-19.28h19.2V248.7z M191.67,226.69h-19.2v-19.28h19.2V226.69z M191.67,204.69h-19.2v-19.28h19.2V204.69z M191.67,182.68h-19.2
		v-19.26h19.2V182.68z M191.67,160.68h-19.2v-19.26h19.2V160.68z M191.67,138.69h-19.2v-19.28h19.2V138.69z M191.67,116.68h-19.2
		V97.41h19.2V116.68z M191.67,94.68h-19.2V75.4h19.2V94.68z M191.67,72.67h-19.2V53.41h19.2V72.67z M191.67,50.67h-19.2V31.41h19.2
		V50.67z M213.61,270.68H194.4v-19.26h19.21V270.68z M213.61,248.7H194.4v-19.28h19.21V248.7z M213.61,226.69H194.4v-19.28h19.21
		V226.69z M213.61,204.69H194.4v-19.28h19.21V204.69z M213.61,182.68H194.4v-19.26h19.21V182.68z M213.61,160.68H194.4v-19.26h19.21
		V160.68z M213.61,138.69H194.4v-19.28h19.21V138.69z M213.61,116.68H194.4V97.41h19.21V116.68z M213.61,94.68H194.4V75.4h19.21
		V94.68z M213.61,72.67H194.4V53.41h19.21V72.67z M213.61,50.67H194.4V31.41h19.21V50.67z M235.55,270.68h-19.22v-19.26h19.22
		V270.68z M235.55,248.7h-19.22v-19.28h19.22V248.7z M235.55,226.69h-19.22v-19.28h19.22V226.69z M235.55,204.69h-19.22v-19.28
		h19.22V204.69z M235.55,182.68h-19.22v-19.26h19.22V182.68z M235.55,160.68h-19.22v-19.26h19.22V160.68z M235.55,138.69h-19.22
		v-19.28h19.22V138.69z M235.55,116.68h-19.22V97.41h19.22V116.68z M235.55,94.68h-19.22V75.4h19.22V94.68z M235.55,72.67h-19.22
		V53.41h19.22V72.67z M235.55,50.67h-19.22V31.41h19.22V50.67z M257.49,270.68h-19.22v-19.26h19.22V270.68z M257.49,248.7h-19.22
		v-19.28h19.22V248.7z M257.49,226.69h-19.22v-19.28h19.22V226.69z M257.49,204.69h-19.22v-19.28h19.22V204.69z M257.49,182.68
		h-19.22v-19.26h19.22V182.68z M257.49,160.68h-19.22v-19.26h19.22V160.68z M257.49,138.69h-19.22v-19.28h19.22V138.69z
		 M257.49,116.68h-19.22V97.41h19.22V116.68z M257.49,94.68h-19.22V75.4h19.22V94.68z M257.49,72.67h-19.22V53.41h19.22V72.67z
		 M257.49,50.67h-19.22V31.41h19.22V50.67z"/>
	<rect x="133.07" y="96.92" class="st4" width="102.39" height="107.89"/>
	<rect x="238.18" y="148.15" class="st1" width="31.67" height="31.6"/>
	<rect x="40.78" y="85.87" class="st4" width="106.99" height="185.32"/>
	<rect x="161.64" y="31.41" class="st4" width="59.78" height="107"/>
	<rect x="193.27" y="194.93" class="st1" width="31.67" height="31.6"/>
	<rect x="225.79" y="31.47" class="st4" width="31.67" height="52.91"/>
	<rect x="33.43" y="201.29" class="st4" width="53.11" height="52.91"/>
	<rect x="40.74" y="97.52" class="st1" width="31.67" height="31.6"/>
	<rect x="68.12" y="241.47" class="st1" width="42.36" height="12.74"/>
</g>
<g id="Layer_2">
	<g>
		<g>
			<path class="st3" d="M136.08,229.07c-1.02,0.85-1.73,1.33-2.12,1.45c-0.4,0.11-0.88,0.17-1.44,0.17c-1.53,0-2.67-0.78-3.4-2.34
				c-0.74-1.56-1.11-3.9-1.11-7.01c0-4.59,1.12-8.61,3.36-12.07c2.24-3.46,5.79-6.6,10.67-9.44c1.47-0.85,3.47-1.91,5.99-3.19
				c2.52-1.27,4.18-2.14,4.97-2.59c2.83-1.53,4.84-2.98,6.04-4.33c1.19-1.36,1.79-2.83,1.79-4.42c0-1.93-0.58-3.46-1.74-4.59
				c-1.16-1.13-2.76-1.7-4.8-1.7c-1.36,0-2.55,0.25-3.57,0.76c-1.02,0.51-1.9,1.25-2.63,2.21c-0.57,0.74-1.21,1.83-1.91,3.27
				c-0.71,1.45-1.09,2.2-1.15,2.25c-1.02,1.87-2.24,3.22-3.65,4.04c-1.42,0.82-3.17,1.23-5.27,1.23c-2.72,0-4.8-0.71-6.25-2.12
				c-1.45-1.42-2.14-3.4-2.08-5.95c0.06-5.16,2.48-9.48,7.27-12.96c4.79-3.49,11.04-5.23,18.74-5.23c7.65,0,13.56,1.56,17.72,4.67
				c4.17,3.12,6.25,7.51,6.25,13.17c0,5.16-1.67,9.34-5.02,12.54c-3.34,3.2-9.63,6.19-18.87,8.97c-3.63,1.19-6.19,2.28-7.69,3.27
				c-1.5,0.99-2.25,2.05-2.25,3.19c0,0.34,0.13,0.61,0.38,0.81c0.25,0.2,0.58,0.3,0.98,0.3c0.28,0,0.57-0.03,0.85-0.08
				c0.28-0.06,0.68-0.17,1.19-0.34c0.91-0.34,1.84-0.58,2.81-0.72c0.96-0.14,1.98-0.21,3.06-0.21c1.13,0,2.25,0.07,3.36,0.21
				c1.11,0.14,2.56,0.41,4.38,0.81c1.47,0.34,2.56,0.57,3.27,0.68c0.71,0.11,1.4,0.17,2.08,0.17c1.93,0,3.43-0.5,4.51-1.49
				c1.08-0.99,1.78-2.56,2.12-4.72c0.11-0.96,0.5-1.74,1.15-2.34c0.65-0.6,1.43-0.89,2.34-0.89c1.19,0,2.1,0.38,2.72,1.15
				c0.62,0.76,0.94,1.88,0.94,3.36c0,7.08-1.33,12.45-4,16.11c-2.66,3.66-6.54,5.48-11.64,5.48c-1.98,0-3.97-0.14-5.95-0.42
				c-1.98-0.28-4.62-0.88-7.91-1.79c-2.44-0.62-4.24-1.03-5.4-1.23c-1.16-0.2-2.25-0.3-3.27-0.3c-1.25,0-2.32,0.17-3.23,0.51
				C137.73,227.71,136.88,228.28,136.08,229.07z"/>
		</g>
		<g>
			<g>
				<path class="st3" d="M82.41,157.52c-1.27,0.05-2.2,0.09-2.81,0.11c-0.61,0.02-1.17,0.04-1.67,0.04c-2.28,0-4.04-0.35-5.28-1.06
					c-1.24-0.71-1.86-1.75-1.86-3.12c0-0.81,0.18-1.48,0.53-2.01c0.35-0.53,0.91-0.95,1.67-1.25c0.3-0.1,0.62-0.21,0.95-0.34
					c0.33-0.13,0.77-0.27,1.33-0.42c0.61-0.25,1.05-0.62,1.33-1.1c0.28-0.48,0.44-1.1,0.49-1.86c0.05-1.52,0.09-3.9,0.11-7.14
					c0.03-3.24,0.04-6.43,0.04-9.58c0-2.84,0-5.67,0-8.51c0-2.84,0-5.67,0-8.51c-0.05-0.76-0.2-1.37-0.46-1.82
					c-0.25-0.46-0.66-0.79-1.22-0.99c-0.1-0.05-0.22-0.09-0.34-0.11c-0.13-0.02-0.32-0.06-0.57-0.11c-0.41-0.1-0.7-0.18-0.87-0.23
					c-0.18-0.05-0.34-0.1-0.49-0.15c-0.86-0.25-1.48-0.67-1.86-1.25c-0.38-0.58-0.57-1.33-0.57-2.24c0-1.42,0.63-2.48,1.9-3.19
					c1.27-0.71,3.14-1.06,5.62-1.06c0.96,0,1.92,0.01,2.89,0.04c0.96,0.03,2.28,0.09,3.95,0.19c1.32,0.05,2.28,0.09,2.89,0.11
					c0.61,0.03,1.19,0.04,1.75,0.04c0.35,0,0.8-0.01,1.33-0.04s1.48-0.06,2.85-0.11c2.58-0.1,4.64-0.16,6.16-0.19
					c1.52-0.02,2.96-0.04,4.33-0.04c6.08,0,10.7,1.06,13.87,3.19c3.17,2.13,4.75,5.27,4.75,9.42c0,2.89-0.86,5.42-2.58,7.6
					c-1.72,2.18-4.08,3.75-7.07,4.71c-0.25,0.1-0.44,0.22-0.57,0.34c-0.13,0.13-0.19,0.29-0.19,0.49c0,0.2,0.06,0.38,0.19,0.53
					c0.13,0.15,0.34,0.25,0.65,0.3c4.1,0.91,7.18,2.52,9.23,4.83s3.08,5.31,3.08,9.01c0,5.17-2.01,9.08-6.04,11.74
					c-4.03,2.66-9.94,3.99-17.75,3.99c-2.18,0-4.18-0.03-6-0.08c-1.82-0.05-3.8-0.13-5.93-0.23c-0.81-0.05-1.39-0.08-1.75-0.08
					s-0.66,0-0.91,0c-0.61,0-1.27,0.01-1.98,0.04C84.81,157.43,83.77,157.47,82.41,157.52z M94.95,125.14c0.41,0,0.81,0,1.22,0
					s0.81,0,1.22,0c3.09,0,5.43-0.63,7.03-1.9c1.6-1.27,2.39-3.14,2.39-5.62c0-2.53-0.77-4.43-2.32-5.7
					c-1.55-1.27-3.89-1.9-7.03-1.9c-0.35,0-0.72,0-1.1,0s-0.75,0-1.1,0c-0.96,0-1.69,0.22-2.17,0.65c-0.48,0.43-0.75,1.13-0.8,2.09
					c-0.05,0.66-0.09,1.42-0.11,2.28c-0.03,0.86-0.04,1.82-0.04,2.89c0,0.66,0,1.33,0,2.01c0,0.68,0,1.38,0,2.09
					c0,1.27,0.2,2.1,0.61,2.51C93.15,124.94,93.88,125.14,94.95,125.14z M95.4,148.7c0.35,0,0.72,0,1.1,0s0.75,0,1.1,0
					c3.85,0,6.66-0.66,8.44-1.98c1.77-1.32,2.66-3.39,2.66-6.23c0-2.68-0.95-4.69-2.85-6c-1.9-1.32-4.78-1.98-8.63-1.98
					c-0.3,0-0.62,0-0.95,0c-0.33,0-0.65,0-0.95,0c-1.17,0-1.98,0.23-2.43,0.68s-0.68,1.32-0.68,2.58c0,0.86,0,1.74,0,2.62
					c0,0.89,0,1.79,0,2.7c0,1.42,0,2.41,0,2.96c0,0.56,0.02,1.04,0.08,1.44c0.05,1.11,0.33,1.93,0.84,2.43
					C93.63,148.45,94.39,148.7,95.4,148.7z"/>
				<g>
					<g>
						<path class="st22" d="M142.6,157.67c-2.33,0-4.48-0.08-6.46-0.23c-1.98-0.15-3.37-0.33-4.18-0.53
							c-0.86-0.25-1.51-0.66-1.94-1.22c-0.43-0.56-0.65-1.29-0.65-2.2c0-0.81,0.19-1.49,0.57-2.05c0.38-0.56,0.92-0.96,1.63-1.22
							c0.1-0.05,0.42-0.16,0.95-0.34s0.97-0.32,1.33-0.42c0.61-0.25,1.05-0.62,1.33-1.1c0.28-0.48,0.44-1.1,0.49-1.86
							c0.05-1.52,0.09-3.9,0.11-7.14c0.03-3.24,0.04-6.43,0.04-9.58c0-2.84,0-5.67,0-8.51c0-2.84,0-5.67,0-8.51
							c-0.05-0.81-0.2-1.43-0.46-1.86c-0.25-0.43-0.66-0.75-1.22-0.95c-0.25-0.1-0.52-0.19-0.8-0.27c-0.28-0.08-0.77-0.19-1.48-0.34
							c-0.81-0.2-1.42-0.59-1.82-1.18c-0.41-0.58-0.61-1.35-0.61-2.32c0-1.42,0.63-2.48,1.9-3.19c1.27-0.71,3.14-1.06,5.62-1.06
							c1.06,0,2.23,0.01,3.5,0.04c1.27,0.03,3.14,0.09,5.62,0.19c2.33,0.05,4.05,0.09,5.17,0.11c1.11,0.03,2.13,0.04,3.04,0.04
							c1.92,0,3.86,0,5.81,0c1.95,0,3.89,0,5.81,0c0.56,0,1.09-0.06,1.6-0.19c0.51-0.13,1.17-0.37,1.98-0.72
							c0.76-0.35,1.37-0.58,1.82-0.68c0.46-0.1,0.94-0.15,1.44-0.15c1.06,0,1.99,0.25,2.77,0.76c0.79,0.51,1.41,1.27,1.86,2.28
							c0.81,1.93,1.48,3.99,2.01,6.19c0.53,2.2,0.87,4.5,1.03,6.88c0.15,1.67-0.17,3.02-0.95,4.03c-0.79,1.01-1.89,1.52-3.31,1.52
							c-1.22,0-2.27-0.33-3.15-0.99c-0.89-0.66-1.84-1.87-2.85-3.65c-1.01-1.72-1.75-2.91-2.2-3.57c-0.46-0.66-0.91-1.24-1.37-1.75
							c-0.46-0.51-1.01-0.86-1.67-1.06c-0.66-0.2-1.57-0.3-2.74-0.3c-2.94,0-5.03,0-6.27,0c-1.24,0-2.09,0.03-2.55,0.08
							c-0.81,0.05-1.42,0.3-1.82,0.76c-0.41,0.46-0.63,1.09-0.68,1.9c-0.05,0.61-0.09,1.72-0.11,3.34c-0.03,1.62-0.04,4-0.04,7.14
							c0,0.76,0.08,1.39,0.23,1.9c0.15,0.51,0.38,0.86,0.68,1.06c0.35,0.15,1.09,0.29,2.2,0.42c1.11,0.13,2.13,0.19,3.04,0.19
							c0.56,0,1-0.09,1.33-0.27c0.33-0.18,0.54-0.44,0.65-0.8c0.1-0.25,0.2-0.58,0.3-0.99c0.1-0.4,0.2-1.29,0.3-2.66
							c0.1-1.42,0.49-2.48,1.18-3.19c0.68-0.71,1.63-1.06,2.85-1.06c1.32,0,2.3,0.33,2.96,0.99c0.66,0.66,1.11,1.75,1.37,3.27
							c0.15,1.27,0.27,2.99,0.34,5.17c0.08,2.18,0.11,4.86,0.11,8.06c0,2.69-0.33,4.64-0.99,5.85c-0.66,1.22-1.7,1.82-3.12,1.82
							c-1.32,0-2.33-0.34-3.04-1.03c-0.71-0.68-1.17-1.79-1.37-3.31c-0.15-1.11-0.28-1.99-0.38-2.62c-0.1-0.63-0.2-1.03-0.3-1.18
							c-0.15-0.41-0.37-0.67-0.65-0.8c-0.28-0.13-0.67-0.19-1.18-0.19c-1.12,0-2.17,0.04-3.15,0.11s-1.69,0.17-2.09,0.27
							c-0.46,0.2-0.77,0.57-0.95,1.1c-0.18,0.53-0.27,1.33-0.27,2.39c0,1.17,0,2.34,0,3.53c0,1.19,0,2.37,0,3.53
							c0,0.96,0.13,1.72,0.38,2.28c0.25,0.56,0.63,0.91,1.14,1.06c0.3,0.1,0.62,0.19,0.95,0.27c0.33,0.08,0.82,0.17,1.48,0.27
							c0.41,0.1,0.72,0.17,0.95,0.19c0.23,0.03,0.42,0.06,0.57,0.11c0.91,0.25,1.58,0.68,2.01,1.29c0.43,0.61,0.65,1.42,0.65,2.43
							c0,1.17-0.37,2.1-1.1,2.81c-0.73,0.71-1.76,1.14-3.08,1.29c-1.32,0.1-2.88,0.18-4.67,0.23
							C148.29,157.65,145.79,157.67,142.6,157.67z"/>
					</g>
					<g>
						<path class="st18" d="M142.6,157.67c-2.33,0-4.48-0.08-6.46-0.23c-1.98-0.15-3.37-0.33-4.18-0.53
							c-0.86-0.25-1.51-0.66-1.94-1.22c-0.43-0.56-0.65-1.29-0.65-2.2c0-0.81,0.19-1.49,0.57-2.05c0.38-0.56,0.92-0.96,1.63-1.22
							c0.1-0.05,0.42-0.16,0.95-0.34s0.97-0.32,1.33-0.42c0.61-0.25,1.05-0.62,1.33-1.1c0.28-0.48,0.44-1.1,0.49-1.86
							c0.05-1.52,0.09-3.9,0.11-7.14c0.03-3.24,0.04-6.43,0.04-9.58c0-2.84,0-5.67,0-8.51c0-2.84,0-5.67,0-8.51
							c-0.05-0.81-0.2-1.43-0.46-1.86c-0.25-0.43-0.66-0.75-1.22-0.95c-0.25-0.1-0.52-0.19-0.8-0.27c-0.28-0.08-0.77-0.19-1.48-0.34
							c-0.81-0.2-1.42-0.59-1.82-1.18c-0.41-0.58-0.61-1.35-0.61-2.32c0-1.42,0.63-2.48,1.9-3.19c1.27-0.71,3.14-1.06,5.62-1.06
							c1.06,0,2.23,0.01,3.5,0.04c1.27,0.03,3.14,0.09,5.62,0.19c2.33,0.05,4.05,0.09,5.17,0.11c1.11,0.03,2.13,0.04,3.04,0.04
							c1.92,0,3.86,0,5.81,0c1.95,0,3.89,0,5.81,0c0.56,0,1.09-0.06,1.6-0.19c0.51-0.13,1.17-0.37,1.98-0.72
							c0.76-0.35,1.37-0.58,1.82-0.68c0.46-0.1,0.94-0.15,1.44-0.15c1.06,0,1.99,0.25,2.77,0.76c0.79,0.51,1.41,1.27,1.86,2.28
							c0.81,1.93,1.48,3.99,2.01,6.19c0.53,2.2,0.87,4.5,1.03,6.88c0.15,1.67-0.17,3.02-0.95,4.03c-0.79,1.01-1.89,1.52-3.31,1.52
							c-1.22,0-2.27-0.33-3.15-0.99c-0.89-0.66-1.84-1.87-2.85-3.65c-1.01-1.72-1.75-2.91-2.2-3.57c-0.46-0.66-0.91-1.24-1.37-1.75
							c-0.46-0.51-1.01-0.86-1.67-1.06c-0.66-0.2-1.57-0.3-2.74-0.3c-2.94,0-5.03,0-6.27,0c-1.24,0-2.09,0.03-2.55,0.08
							c-0.81,0.05-1.42,0.3-1.82,0.76c-0.41,0.46-0.63,1.09-0.68,1.9c-0.05,0.61-0.09,1.72-0.11,3.34c-0.03,1.62-0.04,4-0.04,7.14
							c0,0.76,0.08,1.39,0.23,1.9c0.15,0.51,0.38,0.86,0.68,1.06c0.35,0.15,1.09,0.29,2.2,0.42c1.11,0.13,2.13,0.19,3.04,0.19
							c0.56,0,1-0.09,1.33-0.27c0.33-0.18,0.54-0.44,0.65-0.8c0.1-0.25,0.2-0.58,0.3-0.99c0.1-0.4,0.2-1.29,0.3-2.66
							c0.1-1.42,0.49-2.48,1.18-3.19c0.68-0.71,1.63-1.06,2.85-1.06c1.32,0,2.3,0.33,2.96,0.99c0.66,0.66,1.11,1.75,1.37,3.27
							c0.15,1.27,0.27,2.99,0.34,5.17c0.08,2.18,0.11,4.86,0.11,8.06c0,2.69-0.33,4.64-0.99,5.85c-0.66,1.22-1.7,1.82-3.12,1.82
							c-1.32,0-2.33-0.34-3.04-1.03c-0.71-0.68-1.17-1.79-1.37-3.31c-0.15-1.11-0.28-1.99-0.38-2.62c-0.1-0.63-0.2-1.03-0.3-1.18
							c-0.15-0.41-0.37-0.67-0.65-0.8c-0.28-0.13-0.67-0.19-1.18-0.19c-1.12,0-2.17,0.04-3.15,0.11s-1.69,0.17-2.09,0.27
							c-0.46,0.2-0.77,0.57-0.95,1.1c-0.18,0.53-0.27,1.33-0.27,2.39c0,1.17,0,2.34,0,3.53c0,1.19,0,2.37,0,3.53
							c0,0.96,0.13,1.72,0.38,2.28c0.25,0.56,0.63,0.91,1.14,1.06c0.3,0.1,0.62,0.19,0.95,0.27c0.33,0.08,0.82,0.17,1.48,0.27
							c0.41,0.1,0.72,0.17,0.95,0.19c0.23,0.03,0.42,0.06,0.57,0.11c0.91,0.25,1.58,0.68,2.01,1.29c0.43,0.61,0.65,1.42,0.65,2.43
							c0,1.17-0.37,2.1-1.1,2.81c-0.73,0.71-1.76,1.14-3.08,1.29c-1.32,0.1-2.88,0.18-4.67,0.23
							C148.29,157.65,145.79,157.67,142.6,157.67z"/>
					</g>
				</g>
				<path class="st3" d="M185.84,157.67c-1.98,0-3.57-0.03-4.79-0.08c-1.22-0.05-2.28-0.13-3.19-0.23
					c-1.22-0.15-2.13-0.53-2.74-1.14c-0.61-0.61-0.91-1.44-0.91-2.51c0-0.91,0.25-1.71,0.76-2.39c0.51-0.68,1.24-1.23,2.2-1.63
					c0.46-0.2,0.89-0.42,1.29-0.65c0.4-0.23,0.73-0.44,0.99-0.65c0.41-0.41,0.79-0.89,1.14-1.44c0.35-0.56,0.71-1.29,1.06-2.2
					c0.35-0.96,0.76-2,1.22-3.12s1.11-2.79,1.98-5.02c0.91-2.33,1.61-4.1,2.09-5.32c0.48-1.22,0.92-2.36,1.33-3.42
					c1.17-2.84,2.29-5.62,3.38-8.36c1.09-2.74,2.17-5.42,3.23-8.06c1.82-4.46,3.48-7.28,4.98-8.47c1.49-1.19,3.51-1.79,6.04-1.79
					c2.58,0,4.51,0.48,5.78,1.44c1.27,0.96,2.68,3.22,4.26,6.76c0.71,1.72,1.98,4.9,3.8,9.54s2.81,7.16,2.96,7.56
					c0.41,1.01,0.85,2.13,1.33,3.34c0.48,1.22,1.18,2.99,2.09,5.32c1.37,3.45,2.33,5.9,2.89,7.37s1.04,2.71,1.44,3.72
					c0.25,0.61,0.51,1.08,0.76,1.41c0.25,0.33,0.58,0.6,0.99,0.8c0.3,0.15,0.62,0.32,0.95,0.49c0.33,0.18,0.77,0.37,1.33,0.57
					c1.01,0.41,1.71,0.89,2.09,1.44c0.38,0.56,0.57,1.32,0.57,2.28c0,1.17-0.36,2.09-1.06,2.77c-0.71,0.68-1.75,1.1-3.12,1.25
					c-1.93,0.15-3.79,0.25-5.59,0.3c-1.8,0.05-3.71,0.08-5.74,0.08c-2.74,0-4.98-0.03-6.73-0.08c-1.75-0.05-3.21-0.15-4.37-0.3
					c-1.01-0.15-1.8-0.54-2.36-1.18c-0.56-0.63-0.84-1.43-0.84-2.39c0-0.96,0.25-1.77,0.76-2.43c0.51-0.66,1.22-1.09,2.13-1.29
					c0.25-0.05,0.51-0.1,0.76-0.15c0.25-0.05,0.63-0.1,1.14-0.15c0.25-0.05,0.46-0.09,0.61-0.11c0.15-0.02,0.28-0.04,0.38-0.04
					c0.61-0.2,1.04-0.51,1.29-0.91c0.25-0.4,0.3-0.89,0.15-1.44c-0.1-0.61-0.27-1.23-0.49-1.86c-0.23-0.63-0.7-1.84-1.41-3.61
					c-0.25-0.51-0.58-0.86-0.99-1.06c-0.41-0.2-0.99-0.3-1.75-0.3c-1.17,0-2.33,0-3.5,0c-1.17,0-2.33,0-3.5,0c-1.12,0-2.24,0-3.38,0
					c-1.14,0-2.29,0-3.46,0c-0.66,0-1.17,0.11-1.52,0.34c-0.35,0.23-0.63,0.62-0.84,1.18c-0.46,1.06-0.82,2-1.1,2.81
					c-0.28,0.81-0.52,1.65-0.72,2.51c-0.1,0.46-0.05,0.85,0.15,1.18c0.2,0.33,0.51,0.54,0.91,0.65c0.2,0.05,0.42,0.09,0.65,0.11
					c0.23,0.03,0.54,0.09,0.95,0.19c0.56,0.05,0.96,0.1,1.22,0.15c0.25,0.05,0.48,0.1,0.68,0.15c0.96,0.2,1.71,0.63,2.24,1.29
					c0.53,0.66,0.8,1.47,0.8,2.43c0,1.06-0.3,1.94-0.91,2.62c-0.61,0.68-1.44,1.1-2.51,1.25c-1.01,0.15-2.38,0.27-4.1,0.34
					C190.28,157.63,188.22,157.67,185.84,157.67z M197.4,130.01c-0.3,0.86-0.32,1.48-0.04,1.86c0.28,0.38,0.85,0.57,1.71,0.57
					c0.66,0,1.32,0,1.98,0c0.66,0,1.32,0,1.98,0c0.71,0,1.43,0,2.17,0c0.73,0,1.46,0,2.17,0c0.76,0,1.24-0.21,1.44-0.65
					c0.2-0.43,0.15-1.05-0.15-1.86c-0.56-1.57-1.19-3.25-1.9-5.05c-0.71-1.8-1.44-3.71-2.2-5.74c-0.15-0.41-0.35-0.72-0.61-0.95
					c-0.25-0.23-0.56-0.34-0.91-0.34c-0.36,0-0.65,0.11-0.87,0.34c-0.23,0.23-0.44,0.57-0.65,1.03c-0.66,1.57-1.33,3.28-2.01,5.13
					C198.8,126.2,198.1,128.08,197.4,130.01z"/>
			</g>
		</g>
	</g>
</g>
<g id="Layer_2_copy" class="st23">
</g>
</svg>
