<?xml version="1.0" encoding="utf-8"?>
<!-- Generator: Adobe Illustrator 24.1.2, SVG Export Plug-In . SVG Version: 6.00 Build 0)  -->
<svg version="1.1" xmlns="http://www.w3.org/2000/svg" xmlns:xlink="http://www.w3.org/1999/xlink" x="0px" y="0px"
	 viewBox="0 0 300 300" style="enable-background:new 0 0 300 300;" xml:space="preserve">
<style type="text/css">
	.st0{fill:#EB3772;stroke:#00685C;stroke-width:0.5;stroke-miterlimit:10;}
	.st1{fill:#FFE41B;stroke:#00685C;stroke-width:0.5;stroke-miterlimit:10;}
	.st2{fill:#5EB34B;stroke:#00685C;stroke-width:0.5;stroke-miterlimit:10;}
	.st3{fill:#0198BD;stroke:#00685C;stroke-width:0.5;stroke-miterlimit:10;}
	.st4{fill:#FFF7E3;stroke:#00685C;stroke-width:0.5;stroke-miterlimit:10;}
	.st5{fill:#5EB34B;stroke:#00685C;stroke-width:1.1271;stroke-miterlimit:10;}
	.st6{fill:#FFF7E3;stroke:#00685C;stroke-width:1.1271;stroke-miterlimit:10;}
	.st7{fill:#FFE41B;stroke:#00685C;stroke-width:1.175;stroke-miterlimit:10;}
	.st8{fill:none;stroke:#00685C;stroke-width:1.1271;stroke-miterlimit:10;}
	.st9{fill:#00685C;}
	.st10{fill:#FFFFFF;stroke:#00685C;stroke-width:1.1271;stroke-miterlimit:10;}
	.st11{fill:#FFFFFF;stroke:#00685C;stroke-width:0.8333;stroke-miterlimit:10;}
	.st12{fill:#5EB34B;stroke:#00685C;stroke-width:1.1454;stroke-miterlimit:10;}
	.st13{fill:#FFE41B;stroke:#00685C;stroke-width:1.1271;stroke-miterlimit:10;}
	.st14{fill:#FFF7E3;stroke:#00685C;stroke-width:1.1271;stroke-linejoin:round;stroke-miterlimit:10;}
	.st15{fill:#00685C;stroke:#00685C;stroke-width:1.1271;stroke-miterlimit:10;}
	.st16{fill:#EB3772;stroke:#00685C;stroke-width:1.1271;stroke-miterlimit:10;}
	.st17{fill:#EB3772;}
	.st18{fill:none;stroke:#00685C;stroke-width:0.5;stroke-miterlimit:10;}
	.st19{fill:#FFFFFF;stroke:#00685C;stroke-width:0.3697;stroke-miterlimit:10;}
	.st20{fill:#00685C;stroke:#00685C;stroke-width:0.5;stroke-miterlimit:10;}
	.st21{fill:#FFFFFF;stroke:#00685C;stroke-width:0.5;stroke-miterlimit:10;}
	.st22{fill:#0198BD;}
	.st23{display:none;}
	.st24{display:inline;}
</style>
<g id="Layer_1">
	<g>
		<path class="st4" d="M112.45,183.72c0-0.1,0.01-0.2,0.01-0.3v0.3H112.45z"/>
		<path class="st4" d="M129.89,135.99c1.2-1.55,2.47-3.05,3.81-4.51C132.38,132.93,131.11,134.44,129.89,135.99z"/>
		<path class="st4" d="M133.7,131.48c0.43-0.49,0.87-0.97,1.35-1.44C134.59,130.51,134.15,130.99,133.7,131.48z"/>
		<path class="st4" d="M136.42,128.63c1.39-1.41,2.83-2.75,4.32-4.02C139.25,125.9,137.81,127.24,136.42,128.63z"/>
		<path class="st4" d="M146.93,119.74c1.07-0.77,2.17-1.51,3.28-2.21C149.1,118.24,148.01,118.98,146.93,119.74z"/>
		<path class="st4" d="M189.15,175.89c0.23,1.71,0.4,3.44,0.51,5.19C189.54,179.33,189.37,177.61,189.15,175.89z"/>
		<path class="st0" d="M233.12,111.4c0,0.97-0.02,1.93-0.06,2.89c-11.52-6.18-24.68-9.68-38.66-9.68
			c-15.88,0-30.71,4.52-43.27,12.34c0-0.01-0.01-0.01-0.01-0.01s-0.01,0-0.01,0.01c-12.56-7.82-27.38-12.34-43.26-12.34
			c-13.99,0-27.15,3.5-38.67,9.68c-0.04-0.96-0.06-1.92-0.06-2.89c0-45.29,36.71-82,82-82C196.41,29.4,233.12,66.11,233.12,111.4z"
			/>
		<path class="st4" d="M151.13,116.95c-0.31,0.19-0.62,0.38-0.92,0.58c0.3-0.2,0.6-0.4,0.9-0.58c0-0.01,0.01-0.01,0.01-0.01
			S151.13,116.94,151.13,116.95z"/>
		<path class="st4" d="M151.11,116.95c-0.3,0.18-0.6,0.38-0.9,0.58c-1.11,0.7-2.21,1.44-3.28,2.21c-0.53,0.37-1.06,0.76-1.59,1.16
			c-0.53,0.38-1.05,0.78-1.56,1.2c-0.52,0.4-1.04,0.81-1.54,1.24c-0.51,0.4-1.01,0.83-1.5,1.27c-1.49,1.27-2.93,2.61-4.32,4.02
			c-0.47,0.45-0.93,0.93-1.37,1.41c-0.48,0.47-0.92,0.95-1.35,1.44c-1.34,1.46-2.61,2.96-3.81,4.51c-0.42,0.51-0.82,1.03-1.2,1.56
			c-0.4,0.52-0.79,1.05-1.16,1.59c-0.28,0.39-0.55,0.78-0.82,1.17c-0.54,0.78-1.06,1.58-1.57,2.38c-0.26,0.41-0.5,0.81-0.75,1.22
			c-0.09,0.11-0.15,0.23-0.21,0.34c-1.34,2.2-2.57,4.47-3.69,6.81c-0.58,1.2-1.13,2.41-1.65,3.63c-0.2,0.46-0.39,0.92-0.57,1.39
			c-0.37,0.92-0.73,1.86-1.07,2.8c-0.17,0.48-0.33,0.95-0.49,1.43c-0.08,0.21-0.15,0.42-0.21,0.63c-0.35,1.05-0.67,2.11-0.98,3.18
			c0,0.02-0.01,0.04-0.02,0.07c-0.15,0.54-0.3,1.08-0.44,1.62c-0.2,0.75-0.38,1.51-0.56,2.28c-0.15,0.66-0.3,1.33-0.43,2
			c-0.12,0.59-0.24,1.18-0.34,1.78c-0.11,0.57-0.21,1.14-0.3,1.71c-0.05,0.29-0.09,0.58-0.14,0.87c0,0.05-0.01,0.11-0.02,0.16
			c-0.07,0.52-0.14,1.04-0.21,1.56c-0.05,0.39-0.1,0.78-0.14,1.17c-0.04,0.38-0.08,0.76-0.12,1.14c-0.06,0.63-0.12,1.26-0.16,1.9
			c-0.05,0.62-0.09,1.26-0.12,1.89c-0.01,0.08-0.01,0.16-0.01,0.24c-0.02,0.3-0.04,0.61-0.05,0.91c0,0.1-0.01,0.2-0.01,0.3
			c-25-13.39-42.24-39.35-43.27-69.43c11.52-6.18,24.68-9.68,38.67-9.68C123.73,104.61,138.55,109.13,151.11,116.95z"/>
		<path class="st4" d="M133.7,131.48c-1.32,1.45-2.59,2.96-3.81,4.51C131.09,134.44,132.36,132.94,133.7,131.48z"/>
		<path class="st4" d="M135.05,130.04c-0.46,0.47-0.9,0.95-1.35,1.44C134.13,130.99,134.57,130.51,135.05,130.04z"/>
		<path class="st4" d="M140.74,124.61c-1.49,1.29-2.93,2.63-4.32,4.02C137.81,127.22,139.25,125.88,140.74,124.61z"/>
		<path class="st4" d="M150.21,117.53c-1.11,0.71-2.2,1.45-3.28,2.21C148,118.97,149.1,118.23,150.21,117.53z"/>
		<path class="st4" d="M151.13,116.95c-0.31,0.19-0.62,0.38-0.92,0.58c0.3-0.2,0.6-0.4,0.9-0.58
			C151.12,116.95,151.13,116.95,151.13,116.95z"/>
		<path class="st4" d="M189.66,181.08c-0.12-1.75-0.29-3.47-0.51-5.19C189.38,177.6,189.55,179.33,189.66,181.08z"/>
		<path class="st2" d="M151.13,256.27c-12.56,7.82-27.39,12.34-43.28,12.34c-45.29,0-82.01-36.71-82.01-82
			c0-31.31,17.55-58.51,43.34-72.32c1.03,30.08,18.27,56.04,43.27,69.43v0.01h0.01c-0.04,0.96-0.06,1.92-0.06,2.88
			C112.4,216.01,127.87,241.8,151.13,256.27z"/>
		<path class="st4" d="M112.46,183.42v0.31h-0.01v-0.01C112.45,183.62,112.46,183.52,112.46,183.42z"/>
		<path class="st4" d="M189.79,183.72L189.79,183.72c-0.15,0.09-0.31,0.17-0.47,0.25C189.48,183.89,189.63,183.81,189.79,183.72z"/>
		<path class="st4" d="M233.06,114.29c-1.03,30.08-18.27,56.04-43.27,69.43c-0.03-0.87-0.07-1.73-0.13-2.59v-0.05
			c-0.11-1.75-0.28-3.48-0.51-5.19c-0.06-0.44-0.12-0.89-0.19-1.33c-0.06-0.41-0.12-0.82-0.19-1.23c-0.12-0.78-0.26-1.56-0.41-2.34
			c-0.03-0.13-0.05-0.25-0.08-0.37c-0.07-0.36-0.14-0.72-0.22-1.08c-0.09-0.42-0.18-0.84-0.27-1.25c-0.1-0.42-0.2-0.83-0.3-1.25
			c-0.1-0.41-0.2-0.82-0.31-1.23c-0.11-0.41-0.22-0.82-0.33-1.23c-0.11-0.4-0.23-0.8-0.34-1.19c-0.25-0.82-0.5-1.64-0.77-2.45
			c-0.12-0.37-0.24-0.73-0.37-1.1c-0.16-0.47-0.33-0.95-0.5-1.42c-0.2-0.57-0.42-1.13-0.64-1.69c-0.27-0.68-0.55-1.36-0.83-2.04
			c-0.22-0.52-0.45-1.05-0.68-1.57c-1.31-2.91-2.78-5.73-4.4-8.45c-0.25-0.43-0.5-0.85-0.77-1.26c-0.19-0.32-0.4-0.65-0.6-0.96
			c-0.03-0.05-0.06-0.09-0.1-0.14c-0.59-0.94-1.21-1.86-1.85-2.77c-0.11-0.17-0.23-0.33-0.34-0.49c-0.24-0.33-0.48-0.65-0.72-0.98
			c-0.2-0.27-0.4-0.54-0.6-0.81c-0.28-0.37-0.57-0.75-0.86-1.11c-0.08-0.12-0.17-0.23-0.27-0.34c-0.35-0.46-0.72-0.91-1.09-1.36
			c-0.65-0.78-1.31-1.55-1.98-2.31c-0.63-0.72-1.28-1.42-1.96-2.12c-0.41-0.43-0.82-0.86-1.24-1.28c-0.09-0.1-0.19-0.19-0.28-0.28
			c-0.41-0.4-0.82-0.81-1.24-1.2c-0.96-0.93-1.94-1.82-2.95-2.68c-0.4-0.36-0.81-0.7-1.22-1.04c-0.12-0.11-0.25-0.21-0.38-0.31
			c-0.45-0.37-0.9-0.74-1.36-1.1c-0.04-0.04-0.08-0.07-0.13-0.1c-0.47-0.37-0.94-0.73-1.42-1.09c-1.07-0.81-2.16-1.58-3.27-2.32
			c-0.54-0.37-1.09-0.73-1.65-1.09c-0.3-0.2-0.6-0.39-0.91-0.58c12.56-7.82,27.39-12.34,43.27-12.34
			C208.38,104.61,221.54,108.11,233.06,114.29z"/>
		<path class="st4" d="M189.66,181.08c-0.12-1.75-0.29-3.47-0.51-5.19C189.38,177.6,189.55,179.33,189.66,181.08z"/>
		<path class="st4" d="M189.85,186.61c0,29.4-15.47,55.18-38.72,69.66c-23.26-14.47-38.73-40.26-38.73-69.66
			c0-0.96,0.02-1.92,0.06-2.88c0.52,0.28,1.04,0.55,1.56,0.81c0.49,0.25,0.99,0.5,1.48,0.74c0.07,0.04,0.14,0.07,0.22,0.1
			c0.48,0.24,0.97,0.46,1.46,0.69c0.28,0.13,0.56,0.25,0.85,0.37c0.39,0.18,0.78,0.35,1.17,0.51c0.61,0.27,1.23,0.52,1.86,0.76
			c0.51,0.2,1.03,0.4,1.55,0.59c0.16,0.07,0.33,0.13,0.5,0.18c0.44,0.17,0.88,0.32,1.32,0.47c0.23,0.09,0.47,0.17,0.71,0.24
			c0.53,0.18,1.06,0.36,1.6,0.52c1.99,0.62,4.01,1.17,6.06,1.63c1.26,0.29,2.53,0.55,3.81,0.78c0.67,0.12,1.35,0.23,2.02,0.33
			c0.68,0.11,1.36,0.2,2.05,0.29c0.04,0.01,0.08,0.01,0.13,0.02c0.58,0.07,1.17,0.14,1.76,0.2c0.11,0.01,0.22,0.02,0.33,0.03
			c0.58,0.06,1.16,0.11,1.74,0.16c0.05,0,0.11,0.01,0.17,0.01c0.7,0.05,1.39,0.1,2.09,0.13c0.7,0.04,1.4,0.07,2.1,0.08
			c0.71,0.02,1.41,0.03,2.12,0.03c0.71,0,1.41-0.01,2.12-0.03c0.7-0.01,1.4-0.04,2.1-0.08c0.7-0.03,1.39-0.08,2.09-0.13
			c0.06,0,0.12-0.01,0.17-0.01c0.58-0.05,1.16-0.1,1.74-0.16c0.11-0.01,0.22-0.02,0.33-0.03c0.59-0.06,1.18-0.13,1.76-0.2
			c0.05-0.01,0.09-0.01,0.13-0.02c0.69-0.09,1.37-0.18,2.05-0.29c0.67-0.1,1.35-0.21,2.02-0.33c1.28-0.23,2.55-0.49,3.81-0.78
			c2.05-0.46,4.07-1,6.06-1.63c0.54-0.16,1.07-0.34,1.6-0.52c0.24-0.07,0.47-0.15,0.71-0.24c0.47-0.15,0.93-0.32,1.39-0.49
			c0.09-0.02,0.17-0.05,0.26-0.1c0.58-0.2,1.15-0.42,1.72-0.65c0.62-0.24,1.24-0.49,1.86-0.76c0.39-0.16,0.78-0.33,1.17-0.51
			c0.29-0.11,0.57-0.24,0.85-0.37c0.49-0.23,0.98-0.45,1.46-0.69c0.08-0.03,0.15-0.06,0.22-0.1c0.49-0.24,0.99-0.49,1.48-0.74
			c0.22-0.1,0.43-0.21,0.64-0.33c0.16-0.08,0.31-0.16,0.46-0.24c0.16-0.08,0.32-0.16,0.47-0.24
			C189.83,184.69,189.85,185.65,189.85,186.61z"/>
		<path class="st1" d="M276.4,186.61c0,45.29-36.71,82-82,82c-15.88,0-30.71-4.52-43.27-12.34c23.25-14.48,38.72-40.26,38.72-69.66
			c0-0.96-0.02-1.92-0.06-2.88v-0.01c25-13.39,42.24-39.35,43.27-69.43C258.86,128.1,276.4,155.3,276.4,186.61z"/>
		<path class="st4" d="M189.79,183.72L189.79,183.72c-0.15,0.09-0.31,0.17-0.47,0.25C189.48,183.89,189.63,183.81,189.79,183.72z"/>
		<path class="st19" d="M189.79,183.72c-0.16,0.09-0.31,0.17-0.47,0.25c-0.15,0.08-0.3,0.16-0.46,0.24
			c-0.21,0.12-0.42,0.23-0.64,0.33c-0.49,0.25-0.99,0.5-1.48,0.74c-0.07,0.04-0.14,0.07-0.22,0.1c-0.48,0.24-0.97,0.46-1.46,0.69
			c-0.28,0.13-0.56,0.26-0.85,0.37c-0.39,0.18-0.78,0.35-1.17,0.51c-0.62,0.27-1.24,0.52-1.86,0.76c-0.57,0.23-1.14,0.45-1.72,0.65
			c-0.09,0.05-0.17,0.08-0.26,0.1c-0.46,0.17-0.92,0.34-1.39,0.49c-0.24,0.09-0.47,0.17-0.71,0.24c-0.53,0.18-1.06,0.36-1.6,0.52
			c-1.99,0.63-4.01,1.17-6.06,1.63c-1.26,0.29-2.53,0.55-3.81,0.78c-0.67,0.12-1.35,0.23-2.02,0.33c-0.68,0.11-1.36,0.2-2.05,0.29
			c-0.04,0.01-0.08,0.01-0.13,0.02c-0.58,0.07-1.17,0.14-1.76,0.2c-0.11,0.01-0.22,0.02-0.33,0.03c-0.58,0.06-1.16,0.11-1.74,0.16
			c-0.05,0-0.11,0.01-0.17,0.01c-0.7,0.05-1.39,0.1-2.09,0.13c-0.7,0.04-1.4,0.07-2.1,0.08c-0.71,0.02-1.41,0.03-2.12,0.03
			c-0.71,0-1.41-0.01-2.12-0.03c-0.7-0.01-1.4-0.04-2.1-0.08c-0.7-0.03-1.39-0.08-2.09-0.13c-0.06,0-0.12-0.01-0.17-0.01
			c-0.58-0.05-1.16-0.1-1.74-0.16c-0.11-0.01-0.22-0.02-0.33-0.03c-0.59-0.06-1.18-0.13-1.76-0.2c-0.05-0.01-0.09-0.01-0.13-0.02
			c-0.69-0.09-1.37-0.18-2.05-0.29c-0.67-0.1-1.35-0.21-2.02-0.33c-1.28-0.23-2.55-0.49-3.81-0.78c-2.05-0.46-4.07-1.01-6.06-1.63
			c-0.54-0.16-1.07-0.34-1.6-0.52c-0.24-0.07-0.48-0.15-0.71-0.24c-0.44-0.15-0.88-0.3-1.32-0.47c-0.17-0.05-0.34-0.11-0.5-0.18
			c-0.52-0.19-1.04-0.39-1.55-0.59c-0.63-0.24-1.25-0.49-1.86-0.76c-0.39-0.16-0.78-0.33-1.17-0.51c-0.29-0.12-0.57-0.24-0.85-0.37
			c-0.49-0.23-0.98-0.45-1.46-0.69c-0.08-0.03-0.15-0.06-0.22-0.1c-0.49-0.24-0.99-0.49-1.48-0.74c-0.52-0.26-1.04-0.53-1.56-0.81
			v-0.31c0.01-0.3,0.03-0.61,0.05-0.91c0-0.08,0-0.16,0.01-0.24c0.03-0.63,0.07-1.26,0.12-1.89c0.04-0.64,0.1-1.27,0.16-1.9
			c0.04-0.38,0.08-0.76,0.12-1.14c0.04-0.39,0.09-0.78,0.14-1.17c0.07-0.52,0.14-1.04,0.21-1.56c0.01-0.05,0.02-0.11,0.02-0.16
			c0.05-0.29,0.09-0.58,0.14-0.87c0.09-0.57,0.19-1.14,0.3-1.71c0.1-0.6,0.22-1.19,0.34-1.78c0.13-0.67,0.28-1.34,0.43-2
			c0.18-0.77,0.36-1.53,0.56-2.28c0.14-0.54,0.29-1.08,0.44-1.62c0.01-0.03,0.02-0.05,0.02-0.07c0.31-1.07,0.63-2.13,0.98-3.18
			c0.06-0.21,0.13-0.42,0.21-0.63c0.16-0.48,0.32-0.95,0.49-1.43c0.35-0.94,0.7-1.88,1.07-2.8c0.18-0.47,0.37-0.93,0.57-1.39
			c0.52-1.22,1.07-2.43,1.65-3.63c1.12-2.34,2.35-4.61,3.69-6.81c0.06-0.11,0.12-0.23,0.21-0.34c0.25-0.41,0.49-0.81,0.75-1.22
			c0.51-0.8,1.04-1.6,1.57-2.38c0.27-0.39,0.54-0.78,0.82-1.17c0.38-0.53,0.77-1.06,1.16-1.59c0.4-0.52,0.8-1.05,1.2-1.56
			c1.22-1.55,2.49-3.06,3.81-4.51c0.45-0.49,0.89-0.97,1.35-1.44c0.45-0.48,0.91-0.95,1.37-1.41c1.39-1.39,2.83-2.73,4.32-4.02
			c0.5-0.43,1-0.86,1.5-1.27c0.51-0.42,1.02-0.83,1.54-1.24c0.51-0.4,1.04-0.8,1.56-1.2c0.53-0.4,1.06-0.79,1.59-1.16
			c1.08-0.76,2.17-1.5,3.28-2.21c0.3-0.2,0.61-0.39,0.92-0.58c0.31,0.19,0.61,0.38,0.91,0.58c0.56,0.36,1.11,0.72,1.65,1.09
			c1.11,0.74,2.2,1.51,3.27,2.32c0.48,0.36,0.95,0.72,1.42,1.09c0.05,0.03,0.09,0.06,0.13,0.1c0.46,0.36,0.91,0.73,1.36,1.1
			c0.13,0.1,0.26,0.2,0.38,0.31c0.41,0.34,0.82,0.68,1.22,1.04c1.01,0.86,1.99,1.75,2.95,2.68c0.42,0.39,0.83,0.8,1.24,1.2
			c0.09,0.09,0.19,0.18,0.28,0.28c0.42,0.42,0.83,0.85,1.24,1.28c0.68,0.7,1.33,1.4,1.96,2.12c0.67,0.76,1.33,1.53,1.98,2.31
			c0.37,0.45,0.74,0.9,1.09,1.36c0.1,0.11,0.19,0.22,0.27,0.34c0.29,0.36,0.58,0.74,0.86,1.11c0.2,0.27,0.4,0.54,0.6,0.81
			c0.24,0.33,0.48,0.65,0.72,0.98c0.11,0.16,0.23,0.32,0.34,0.49c0.64,0.91,1.26,1.83,1.85,2.77c0.04,0.05,0.07,0.09,0.1,0.14
			c0.2,0.31,0.41,0.64,0.6,0.96c0.27,0.41,0.52,0.83,0.77,1.26c1.62,2.72,3.09,5.54,4.4,8.45c0.23,0.52,0.46,1.05,0.68,1.57
			c0.28,0.68,0.56,1.36,0.83,2.04c0.22,0.56,0.44,1.12,0.64,1.69c0.17,0.47,0.34,0.95,0.5,1.42c0.13,0.37,0.25,0.73,0.37,1.1
			c0.27,0.81,0.52,1.63,0.77,2.45c0.11,0.39,0.23,0.79,0.34,1.19c0.11,0.41,0.22,0.82,0.33,1.23c0.11,0.41,0.21,0.82,0.31,1.23
			c0.1,0.42,0.2,0.83,0.3,1.25c0.09,0.41,0.18,0.83,0.27,1.25c0.08,0.36,0.15,0.72,0.22,1.08c0.03,0.12,0.05,0.24,0.08,0.37
			c0.14,0.77,0.28,1.56,0.41,2.34c0.07,0.41,0.13,0.82,0.19,1.23c0.07,0.44,0.13,0.89,0.19,1.33c0.22,1.72,0.39,3.44,0.51,5.19v0.05
			C189.72,181.99,189.76,182.85,189.79,183.72z"/>
		<path class="st4" d="M112.46,183.42v0.31h-0.01v-0.01C112.45,183.62,112.46,183.52,112.46,183.42z"/>
		<path class="st4" d="M129.89,135.99c1.2-1.55,2.47-3.05,3.81-4.51C132.38,132.93,131.11,134.44,129.89,135.99z"/>
		<path class="st4" d="M133.7,131.48c0.43-0.49,0.87-0.97,1.35-1.44C134.59,130.51,134.15,130.99,133.7,131.48z"/>
		<path class="st4" d="M136.42,128.63c1.39-1.41,2.83-2.75,4.32-4.02C139.25,125.9,137.81,127.24,136.42,128.63z"/>
		<path class="st4" d="M146.93,119.74c1.07-0.77,2.17-1.51,3.28-2.21C149.1,118.24,148.01,118.98,146.93,119.74z"/>
		<path class="st4" d="M151.13,116.95c-0.31,0.19-0.62,0.38-0.92,0.58c0.3-0.2,0.6-0.4,0.9-0.58c0-0.01,0.01-0.01,0.01-0.01
			S151.13,116.94,151.13,116.95z"/>
		<path class="st4" d="M189.79,183.72L189.79,183.72c-0.15,0.09-0.31,0.17-0.47,0.25C189.48,183.89,189.63,183.81,189.79,183.72z"/>
	</g>
</g>
<g id="Layer_2">
	<g>
		<g>
			<path class="st3" d="M67.36,216.46c-2.23,0-4-0.03-5.32-0.08c-1.32-0.05-2.23-0.15-2.74-0.3c-1.01-0.2-1.77-0.62-2.28-1.25
				c-0.51-0.63-0.76-1.46-0.76-2.47c0-0.96,0.32-1.81,0.95-2.55c0.63-0.73,1.48-1.28,2.55-1.63c0.51-0.15,0.94-0.29,1.29-0.42
				c0.35-0.13,0.61-0.21,0.76-0.27c0.46-0.2,0.77-0.47,0.95-0.8c0.18-0.33,0.27-0.77,0.27-1.33c0.05-1.72,0.09-4.22,0.11-7.49
				s0.04-6.27,0.04-9.01c0-6.08,0-10.27,0-12.58c0-2.3-0.03-3.81-0.08-4.52c0-0.71-0.09-1.24-0.27-1.6
				c-0.18-0.35-0.47-0.61-0.87-0.76c-0.25-0.1-0.51-0.2-0.76-0.3c-0.25-0.1-0.58-0.2-0.99-0.3c-0.96-0.4-1.66-0.91-2.09-1.52
				c-0.43-0.61-0.65-1.37-0.65-2.28c0-0.96,0.24-1.77,0.72-2.43c0.48-0.66,1.15-1.09,2.01-1.29c1.11-0.3,2.41-0.52,3.88-0.65
				c1.47-0.13,3.12-0.19,4.94-0.19c3.19,0,5.32,0.03,6.38,0.08c1.06,0.05,2.05,0.15,2.96,0.3c1.62,0.2,2.88,0.75,3.76,1.63
				c0.89,0.89,1.86,2.57,2.93,5.05c0.51,1.27,1.91,4.78,4.22,10.53c2.3,5.75,4.09,10.15,5.36,13.19c0.1,0.3,0.29,0.51,0.57,0.61
				c0.28,0.1,0.52,0.05,0.72-0.15c0.66-1.42,1.36-3.01,2.09-4.79c0.73-1.77,1.99-4.84,3.76-9.2c1.62-4.1,2.65-6.67,3.08-7.71
				c0.43-1.04,0.8-1.91,1.1-2.62c1.06-2.38,2.1-3.99,3.12-4.83c1.01-0.84,2.3-1.41,3.88-1.71c1.01-0.15,2.15-0.27,3.42-0.34
				c1.27-0.08,2.86-0.11,4.79-0.11c1.52,0,2.94,0.03,4.26,0.08c1.32,0.05,2.43,0.1,3.34,0.15c1.11,0.1,1.95,0.48,2.51,1.14
				c0.56,0.66,0.84,1.55,0.84,2.66c0,0.91-0.23,1.7-0.68,2.36c-0.46,0.66-1.09,1.14-1.9,1.44c-0.3,0.1-0.6,0.22-0.87,0.34
				c-0.28,0.13-0.57,0.27-0.87,0.42c-0.46,0.25-0.77,0.57-0.95,0.95c-0.18,0.38-0.27,0.87-0.27,1.48c-0.05,1.42-0.09,3.89-0.11,7.41
				c-0.03,3.52-0.04,6.78-0.04,9.77c0,5.88,0,9.97,0,12.27c0,2.31,0.02,3.76,0.08,4.37c0,0.66,0.1,1.19,0.3,1.6
				c0.2,0.41,0.53,0.71,0.99,0.91c0.4,0.15,0.78,0.29,1.14,0.42c0.35,0.13,0.68,0.22,0.99,0.27c0.86,0.2,1.51,0.61,1.94,1.22
				c0.43,0.61,0.65,1.42,0.65,2.43c0,1.17-0.34,2.1-1.03,2.81c-0.68,0.71-1.63,1.14-2.85,1.29c-0.71,0.1-1.93,0.18-3.65,0.23
				c-1.72,0.05-3.83,0.08-6.31,0.08c-2.43,0-4.48-0.03-6.16-0.08c-1.67-0.05-2.86-0.13-3.57-0.23c-1.27-0.15-2.22-0.56-2.85-1.22
				c-0.63-0.66-0.95-1.55-0.95-2.66c0-0.96,0.23-1.77,0.68-2.43c0.46-0.66,1.14-1.14,2.05-1.44c0.56-0.15,1.03-0.29,1.41-0.42
				c0.38-0.13,0.65-0.24,0.8-0.34c0.46-0.2,0.8-0.48,1.03-0.84c0.23-0.35,0.34-0.81,0.34-1.37c0-2.43,0-4.86,0-7.3
				c0-2.43,0-4.86,0-7.3c0-1.57,0-3.15,0-4.75c0-1.6,0-3.18,0-4.75c-0.05-0.4-0.14-0.71-0.27-0.91c-0.13-0.2-0.32-0.3-0.57-0.3
				c-0.2,0-0.42,0.1-0.65,0.3c-0.23,0.2-0.39,0.48-0.49,0.84c-1.98,5.02-4.05,10.24-6.23,15.66c-2.18,5.42-4.26,10.51-6.23,15.28
				c-0.56,1.42-1.17,2.41-1.82,2.96c-0.66,0.56-1.52,0.84-2.58,0.84c-1.01,0-1.81-0.22-2.39-0.65c-0.58-0.43-1.1-1.18-1.56-2.24
				c-1.42-3.14-2.86-6.46-4.33-9.96c-1.47-3.5-4.36-10.56-8.66-21.2c-0.15-0.41-0.34-0.71-0.57-0.91c-0.23-0.2-0.47-0.3-0.72-0.3
				c-0.25,0-0.46,0.11-0.61,0.34c-0.15,0.23-0.25,0.57-0.3,1.03c-0.05,0.56-0.08,1.36-0.08,2.39c0,1.04,0,3.21,0,6.5
				c0,2.13,0,4.14,0,6.04s0.02,3.94,0.08,6.12c0,0.61,0,1.03,0,1.25c0,0.23,0,0.42,0,0.57c0.05,0.56,0.19,1.01,0.42,1.37
				c0.23,0.36,0.59,0.61,1.1,0.76c0.41,0.15,0.81,0.29,1.22,0.42c0.41,0.13,0.86,0.27,1.37,0.42c1.17,0.25,2.06,0.72,2.7,1.41
				c0.63,0.68,0.95,1.53,0.95,2.55c0,1.17-0.36,2.12-1.06,2.85c-0.71,0.74-1.7,1.2-2.96,1.41c-0.81,0.1-2.04,0.18-3.69,0.23
				C71.83,216.44,69.79,216.46,67.36,216.46z"/>
			<path class="st3" d="M149.82,216.46c-2.33,0-4.48-0.08-6.46-0.23c-1.98-0.15-3.37-0.33-4.18-0.53c-0.86-0.25-1.51-0.66-1.94-1.22
				c-0.43-0.56-0.65-1.29-0.65-2.2c0-0.81,0.19-1.49,0.57-2.05c0.38-0.56,0.92-0.96,1.63-1.22c0.1-0.05,0.42-0.16,0.95-0.34
				c0.53-0.18,0.97-0.32,1.33-0.42c0.61-0.25,1.05-0.62,1.33-1.1c0.28-0.48,0.44-1.1,0.49-1.86c0.05-1.52,0.09-3.9,0.11-7.14
				c0.03-3.24,0.04-6.43,0.04-9.58c0-2.84,0-5.67,0-8.51c0-2.84,0-5.67,0-8.51c-0.05-0.81-0.2-1.43-0.46-1.86
				c-0.25-0.43-0.66-0.75-1.22-0.95c-0.25-0.1-0.52-0.19-0.8-0.27c-0.28-0.08-0.77-0.19-1.48-0.34c-0.81-0.2-1.42-0.59-1.82-1.18
				c-0.41-0.58-0.61-1.36-0.61-2.32c0-1.42,0.63-2.48,1.9-3.19c1.27-0.71,3.14-1.06,5.62-1.06c1.06,0,2.23,0.01,3.5,0.04
				c1.27,0.03,3.14,0.09,5.62,0.19c2.33,0.05,4.05,0.09,5.17,0.11c1.11,0.03,2.13,0.04,3.04,0.04c1.92,0,3.86,0,5.81,0
				c1.95,0,3.89,0,5.81,0c0.56,0,1.09-0.06,1.6-0.19c0.51-0.12,1.17-0.37,1.98-0.72c0.76-0.35,1.37-0.58,1.82-0.68
				s0.94-0.15,1.44-0.15c1.06,0,1.99,0.25,2.77,0.76c0.79,0.51,1.41,1.27,1.86,2.28c0.81,1.93,1.48,3.99,2.01,6.19
				c0.53,2.2,0.87,4.5,1.03,6.88c0.15,1.67-0.17,3.01-0.95,4.03c-0.79,1.01-1.89,1.52-3.31,1.52c-1.22,0-2.27-0.33-3.15-0.99
				c-0.89-0.66-1.84-1.87-2.85-3.65c-1.01-1.72-1.75-2.91-2.2-3.57c-0.46-0.66-0.91-1.24-1.37-1.75c-0.46-0.51-1.01-0.86-1.67-1.06
				c-0.66-0.2-1.57-0.3-2.74-0.3c-2.94,0-5.03,0-6.27,0c-1.24,0-2.09,0.03-2.55,0.08c-0.81,0.05-1.42,0.3-1.82,0.76
				c-0.41,0.46-0.63,1.09-0.68,1.9c-0.05,0.61-0.09,1.72-0.11,3.34c-0.03,1.62-0.04,4-0.04,7.14c0,0.76,0.08,1.39,0.23,1.9
				c0.15,0.51,0.38,0.86,0.68,1.06c0.35,0.15,1.09,0.29,2.2,0.42c1.11,0.13,2.13,0.19,3.04,0.19c0.56,0,1-0.09,1.33-0.27
				c0.33-0.18,0.54-0.44,0.65-0.8c0.1-0.25,0.2-0.58,0.3-0.99c0.1-0.41,0.2-1.29,0.3-2.66c0.1-1.42,0.49-2.48,1.18-3.19
				c0.68-0.71,1.63-1.06,2.85-1.06c1.32,0,2.3,0.33,2.96,0.99c0.66,0.66,1.11,1.75,1.37,3.27c0.15,1.27,0.27,2.99,0.34,5.17
				c0.08,2.18,0.11,4.86,0.11,8.06c0,2.69-0.33,4.64-0.99,5.85s-1.7,1.82-3.12,1.82c-1.32,0-2.33-0.34-3.04-1.03
				c-0.71-0.68-1.17-1.79-1.37-3.31c-0.15-1.11-0.28-1.99-0.38-2.62c-0.1-0.63-0.2-1.03-0.3-1.18c-0.15-0.41-0.37-0.67-0.65-0.8
				c-0.28-0.12-0.67-0.19-1.18-0.19c-1.12,0-2.17,0.04-3.15,0.11c-0.99,0.08-1.69,0.17-2.09,0.27c-0.46,0.2-0.77,0.57-0.95,1.1
				c-0.18,0.53-0.27,1.33-0.27,2.39c0,1.17,0,2.34,0,3.53s0,2.37,0,3.53c0,0.96,0.13,1.72,0.38,2.28c0.25,0.56,0.63,0.91,1.14,1.06
				c0.3,0.1,0.62,0.19,0.95,0.27c0.33,0.08,0.82,0.17,1.48,0.27c0.41,0.1,0.72,0.17,0.95,0.19c0.23,0.03,0.42,0.06,0.57,0.11
				c0.91,0.25,1.58,0.68,2.01,1.29c0.43,0.61,0.65,1.42,0.65,2.43c0,1.17-0.37,2.1-1.1,2.81c-0.73,0.71-1.76,1.14-3.08,1.29
				c-1.32,0.1-2.88,0.18-4.67,0.23C155.5,216.44,153.01,216.46,149.82,216.46z"/>
			<path class="st3" d="M193.06,216.46c-1.98,0-3.57-0.03-4.79-0.08c-1.22-0.05-2.28-0.13-3.19-0.23c-1.22-0.15-2.13-0.53-2.74-1.14
				c-0.61-0.61-0.91-1.44-0.91-2.51c0-0.91,0.25-1.71,0.76-2.39c0.51-0.68,1.24-1.23,2.2-1.63c0.46-0.2,0.89-0.42,1.29-0.65
				c0.4-0.23,0.73-0.44,0.99-0.65c0.41-0.4,0.79-0.89,1.14-1.44c0.35-0.56,0.71-1.29,1.06-2.2c0.35-0.96,0.76-2,1.22-3.12
				c0.46-1.11,1.11-2.79,1.98-5.02c0.91-2.33,1.61-4.1,2.09-5.32c0.48-1.22,0.92-2.36,1.33-3.42c1.17-2.84,2.29-5.62,3.38-8.36
				c1.09-2.74,2.17-5.42,3.23-8.06c1.82-4.46,3.48-7.28,4.98-8.47c1.49-1.19,3.51-1.79,6.04-1.79c2.58,0,4.51,0.48,5.78,1.44
				c1.27,0.96,2.68,3.22,4.26,6.76c0.71,1.72,1.98,4.9,3.8,9.54c1.82,4.64,2.81,7.16,2.96,7.56c0.41,1.01,0.85,2.13,1.33,3.34
				c0.48,1.22,1.18,2.99,2.09,5.32c1.37,3.45,2.33,5.9,2.89,7.37c0.56,1.47,1.04,2.71,1.44,3.72c0.25,0.61,0.51,1.08,0.76,1.41
				c0.25,0.33,0.58,0.6,0.99,0.8c0.3,0.15,0.62,0.32,0.95,0.49c0.33,0.18,0.77,0.37,1.33,0.57c1.01,0.41,1.71,0.89,2.09,1.44
				c0.38,0.56,0.57,1.32,0.57,2.28c0,1.17-0.36,2.09-1.06,2.77c-0.71,0.68-1.75,1.1-3.12,1.25c-1.93,0.15-3.79,0.25-5.59,0.3
				c-1.8,0.05-3.71,0.08-5.74,0.08c-2.74,0-4.98-0.03-6.73-0.08c-1.75-0.05-3.21-0.15-4.37-0.3c-1.01-0.15-1.8-0.54-2.36-1.18
				c-0.56-0.63-0.84-1.43-0.84-2.39c0-0.96,0.25-1.77,0.76-2.43c0.51-0.66,1.22-1.09,2.13-1.29c0.25-0.05,0.51-0.1,0.76-0.15
				c0.25-0.05,0.63-0.1,1.14-0.15c0.25-0.05,0.46-0.09,0.61-0.11s0.28-0.04,0.38-0.04c0.61-0.2,1.04-0.51,1.29-0.91
				c0.25-0.41,0.3-0.89,0.15-1.44c-0.1-0.61-0.27-1.23-0.49-1.86c-0.23-0.63-0.7-1.84-1.41-3.61c-0.25-0.51-0.58-0.86-0.99-1.06
				c-0.41-0.2-0.99-0.3-1.75-0.3c-1.17,0-2.33,0-3.5,0c-1.17,0-2.33,0-3.5,0c-1.12,0-2.24,0-3.38,0c-1.14,0-2.29,0-3.46,0
				c-0.66,0-1.17,0.11-1.52,0.34c-0.35,0.23-0.63,0.62-0.84,1.18c-0.46,1.06-0.82,2-1.1,2.81c-0.28,0.81-0.52,1.65-0.72,2.51
				c-0.1,0.46-0.05,0.85,0.15,1.18c0.2,0.33,0.51,0.54,0.91,0.65c0.2,0.05,0.42,0.09,0.65,0.11c0.23,0.03,0.54,0.09,0.95,0.19
				c0.56,0.05,0.96,0.1,1.22,0.15c0.25,0.05,0.48,0.1,0.68,0.15c0.96,0.2,1.71,0.63,2.24,1.29c0.53,0.66,0.8,1.47,0.8,2.43
				c0,1.06-0.3,1.94-0.91,2.62c-0.61,0.68-1.44,1.1-2.51,1.25c-1.01,0.15-2.38,0.27-4.1,0.34
				C197.5,216.42,195.44,216.46,193.06,216.46z M204.62,188.8c-0.3,0.86-0.32,1.48-0.04,1.86c0.28,0.38,0.85,0.57,1.71,0.57
				c0.66,0,1.32,0,1.98,0c0.66,0,1.32,0,1.98,0c0.71,0,1.43,0,2.17,0c0.73,0,1.46,0,2.17,0c0.76,0,1.24-0.21,1.44-0.65
				c0.2-0.43,0.15-1.05-0.15-1.86c-0.56-1.57-1.19-3.25-1.9-5.05c-0.71-1.8-1.44-3.71-2.2-5.74c-0.15-0.4-0.35-0.72-0.61-0.95
				c-0.25-0.23-0.56-0.34-0.91-0.34c-0.36,0-0.65,0.11-0.87,0.34c-0.23,0.23-0.44,0.57-0.65,1.03c-0.66,1.57-1.33,3.28-2.01,5.13
				C206.02,184.99,205.32,186.87,204.62,188.8z"/>
		</g>
		<g>
			<path class="st3" d="M136.71,150.7c-3.23,0-5.82-0.03-7.78-0.08c-1.96-0.06-3.36-0.17-4.21-0.34c-1.25-0.23-2.21-0.71-2.89-1.44
				c-0.68-0.74-1.02-1.67-1.02-2.81c0-0.91,0.21-1.68,0.64-2.34c0.42-0.65,1.03-1.09,1.83-1.32c0.17-0.06,0.34-0.11,0.51-0.17
				c0.17-0.06,0.45-0.14,0.85-0.25c0.34-0.11,0.59-0.2,0.76-0.26c0.17-0.06,0.31-0.11,0.42-0.17c0.68-0.28,1.18-0.69,1.49-1.23
				c0.31-0.54,0.5-1.23,0.55-2.08c0.06-1.7,0.1-4.36,0.13-7.99c0.03-3.63,0.04-7.2,0.04-10.71c0-3.17,0-6.35,0-9.52
				c0-3.17,0-6.35,0-9.52c-0.06-0.85-0.23-1.52-0.51-2c-0.28-0.48-0.74-0.86-1.36-1.15c-0.11-0.06-0.38-0.14-0.81-0.26
				c-0.42-0.11-1.01-0.25-1.74-0.42c-0.85-0.17-1.52-0.59-2-1.27c-0.48-0.68-0.72-1.56-0.72-2.64c0-1.58,0.71-2.78,2.12-3.57
				c1.42-0.79,3.51-1.19,6.29-1.19c0.68,0,1.43,0.01,2.25,0.04c0.82,0.03,2.11,0.1,3.87,0.21c1.64,0.06,2.86,0.1,3.66,0.13
				c0.79,0.03,1.5,0.04,2.12,0.04c0.45,0,0.99-0.01,1.61-0.04c0.62-0.03,1.67-0.07,3.15-0.13c2.32-0.11,4.15-0.18,5.48-0.21
				c1.33-0.03,2.59-0.04,3.78-0.04c7.82,0,13.78,1.69,17.89,5.06c4.11,3.37,6.16,8.29,6.16,14.75c0,7.08-2.39,12.42-7.18,16.02
				c-4.79,3.6-11.94,5.4-21.46,5.4h-3.4c-0.91,0-1.54,0.16-1.91,0.47c-0.37,0.31-0.55,0.89-0.55,1.74c0,1.19,0,2.39,0,3.61
				c0,1.22,0,2.42,0,3.61c0,0.62,0.1,1.08,0.3,1.36c0.2,0.28,0.55,0.48,1.06,0.59c0.57,0.17,1.26,0.3,2.08,0.38s1.32,0.13,1.49,0.13
				c1.3,0.17,2.32,0.64,3.06,1.4c0.74,0.77,1.11,1.74,1.11,2.93c0,1.3-0.35,2.37-1.06,3.19c-0.71,0.82-1.74,1.35-3.1,1.57
				c-1.08,0.17-2.82,0.3-5.23,0.38C142.08,150.65,139.49,150.7,136.71,150.7z M148.53,120.95h1.79c3.8,0,6.62-0.99,8.46-2.98
				c1.84-1.98,2.76-5.01,2.76-9.09c0-3.8-0.95-6.7-2.85-8.71c-1.9-2.01-4.6-3.02-8.12-3.02c-0.34,0-0.69,0-1.06,0
				c-0.37,0-0.75,0-1.15,0c-1.08,0-1.88,0.23-2.42,0.68c-0.54,0.45-0.86,1.16-0.98,2.12c-0.06,0.74-0.1,1.88-0.13,3.44
				c-0.03,1.56-0.04,3.07-0.04,4.55c0,1.25,0,2.51,0,3.78c0,1.27,0,2.56,0,3.87c0,2.21,0.24,3.66,0.72,4.33
				S147,120.95,148.53,120.95z"/>
		</g>
	</g>
</g>
<g id="Layer_2_copy" class="st23">
</g>
</svg>
