<?xml version="1.0" encoding="utf-8"?>
<!-- Generator: Adobe Illustrator 24.1.2, SVG Export Plug-In . SVG Version: 6.00 Build 0)  -->
<svg version="1.1" xmlns="http://www.w3.org/2000/svg" xmlns:xlink="http://www.w3.org/1999/xlink" x="0px" y="0px"
	 viewBox="0 0 300 300" style="enable-background:new 0 0 300 300;" xml:space="preserve">
<style type="text/css">
	.st0{fill:#EB3772;stroke:#00685C;stroke-width:0.5;stroke-miterlimit:10;}
	.st1{fill:#FFE41B;stroke:#00685C;stroke-width:0.5;stroke-miterlimit:10;}
	.st2{fill:#5EB34B;stroke:#00685C;stroke-width:0.5;stroke-miterlimit:10;}
	.st3{fill:#0198BD;stroke:#00685C;stroke-width:0.5;stroke-miterlimit:10;}
	.st4{fill:#FFF7E3;stroke:#00685C;stroke-width:0.5;stroke-miterlimit:10;}
	.st5{fill:#5EB34B;stroke:#00685C;stroke-width:1.1271;stroke-miterlimit:10;}
	.st6{fill:#FFF7E3;stroke:#00685C;stroke-width:1.1271;stroke-miterlimit:10;}
	.st7{fill:#FFE41B;stroke:#00685C;stroke-width:1.175;stroke-miterlimit:10;}
	.st8{fill:none;stroke:#00685C;stroke-width:1.1271;stroke-miterlimit:10;}
	.st9{fill:#00685C;}
	.st10{fill:#FFFFFF;stroke:#00685C;stroke-width:1.1271;stroke-miterlimit:10;}
	.st11{fill:#FFFFFF;stroke:#00685C;stroke-width:0.8333;stroke-miterlimit:10;}
	.st12{fill:#5EB34B;stroke:#00685C;stroke-width:1.1454;stroke-miterlimit:10;}
	.st13{fill:#FFE41B;stroke:#00685C;stroke-width:1.1271;stroke-miterlimit:10;}
	.st14{fill:#FFF7E3;stroke:#00685C;stroke-width:1.1271;stroke-linejoin:round;stroke-miterlimit:10;}
	.st15{fill:#00685C;stroke:#00685C;stroke-width:1.1271;stroke-miterlimit:10;}
	.st16{fill:#EB3772;stroke:#00685C;stroke-width:1.1271;stroke-miterlimit:10;}
	.st17{fill:#EB3772;}
	.st18{fill:none;stroke:#00685C;stroke-width:0.5;stroke-miterlimit:10;}
	.st19{fill:#FFFFFF;stroke:#00685C;stroke-width:0.3697;stroke-miterlimit:10;}
	.st20{fill:#00685C;stroke:#00685C;stroke-width:0.5;stroke-miterlimit:10;}
	.st21{fill:#FFFFFF;stroke:#00685C;stroke-width:0.5;stroke-miterlimit:10;}
	.st22{fill:#0198BD;}
	.st23{display:none;}
	.st24{display:inline;}
</style>
<g id="Layer_1">
	<g>
		<circle class="st0" cx="152.42" cy="150.21" r="123.59"/>
		<circle class="st1" cx="152.42" cy="150.21" r="106.97"/>
		<circle class="st2" cx="152.42" cy="150.21" r="89.13"/>
		<circle class="st3" cx="152.42" cy="150.68" r="71.03"/>
		<circle class="st4" cx="152.42" cy="150.21" r="54.14"/>
	</g>
	<g>
		<rect x="27.64" y="27.59" class="st18" width="247.3" height="247.3"/>
		<g>
			<rect x="24.23" y="24.65" class="st4" width="6.4" height="6.4"/>
			<rect x="24.23" y="271.12" class="st4" width="6.4" height="6.4"/>
			<rect x="147.55" y="24.65" class="st4" width="6.4" height="6.4"/>
			<rect x="147.55" y="271.12" class="st4" width="6.4" height="6.4"/>
			<rect x="271.66" y="24.65" class="st4" width="6.4" height="6.4"/>
			<rect x="271.66" y="271.12" class="st4" width="6.4" height="6.4"/>
			
				<rect x="271.66" y="148.18" transform="matrix(-1.836970e-16 1 -1 -1.836970e-16 426.2491 -123.4789)" class="st4" width="6.4" height="6.4"/>
			
				<rect x="25.2" y="148.18" transform="matrix(-1.836970e-16 1 -1 -1.836970e-16 179.7812 122.989)" class="st4" width="6.4" height="6.4"/>
		</g>
	</g>
</g>
<g id="Layer_2">
	<g>
		<path class="st0" d="M80.94,155.43c-1.27,0.05-2.21,0.09-2.81,0.11c-0.61,0.03-1.17,0.04-1.67,0.04c-2.28,0-4.04-0.36-5.28-1.06
			c-1.24-0.71-1.86-1.75-1.86-3.12c0-0.81,0.18-1.48,0.53-2.01c0.35-0.53,0.91-0.95,1.67-1.25c0.3-0.1,0.62-0.21,0.95-0.34
			c0.33-0.13,0.77-0.27,1.33-0.42c0.61-0.25,1.05-0.62,1.33-1.1c0.28-0.48,0.44-1.1,0.49-1.86c0.05-1.52,0.09-3.9,0.11-7.14
			c0.03-3.24,0.04-6.43,0.04-9.58c0-2.84,0-5.67,0-8.51c0-2.84,0-5.67,0-8.51c-0.05-0.76-0.2-1.37-0.46-1.82s-0.66-0.79-1.21-0.99
			c-0.1-0.05-0.22-0.09-0.34-0.11c-0.13-0.02-0.32-0.06-0.57-0.11c-0.41-0.1-0.7-0.18-0.88-0.23c-0.18-0.05-0.34-0.1-0.49-0.15
			c-0.86-0.25-1.48-0.67-1.86-1.25c-0.38-0.58-0.57-1.33-0.57-2.24c0-1.42,0.63-2.48,1.9-3.19c1.27-0.71,3.14-1.06,5.62-1.06
			c0.96,0,1.92,0.01,2.89,0.04c0.96,0.03,2.28,0.09,3.95,0.19c1.32,0.05,2.28,0.09,2.89,0.11c0.61,0.03,1.19,0.04,1.75,0.04
			c0.35,0,0.8-0.01,1.33-0.04c0.53-0.02,1.48-0.06,2.85-0.11c2.58-0.1,4.64-0.16,6.16-0.19c1.52-0.02,2.96-0.04,4.33-0.04
			c6.08,0,10.7,1.06,13.87,3.19c3.17,2.13,4.75,5.27,4.75,9.42c0,2.89-0.86,5.42-2.58,7.6c-1.72,2.18-4.08,3.75-7.07,4.71
			c-0.25,0.1-0.44,0.22-0.57,0.34c-0.13,0.13-0.19,0.29-0.19,0.49c0,0.2,0.06,0.38,0.19,0.53c0.13,0.15,0.34,0.25,0.65,0.3
			c4.1,0.91,7.18,2.52,9.23,4.83c2.05,2.31,3.08,5.31,3.08,9.01c0,5.17-2.02,9.08-6.04,11.74s-9.94,3.99-17.75,3.99
			c-2.18,0-4.18-0.03-6-0.08c-1.82-0.05-3.8-0.13-5.93-0.23c-0.81-0.05-1.39-0.08-1.75-0.08c-0.36,0-0.66,0-0.91,0
			c-0.61,0-1.27,0.01-1.98,0.04C83.35,155.34,82.31,155.38,80.94,155.43z M93.48,123.06c0.41,0,0.81,0,1.22,0c0.4,0,0.81,0,1.22,0
			c3.09,0,5.43-0.63,7.03-1.9c1.6-1.27,2.39-3.14,2.39-5.62c0-2.53-0.77-4.43-2.32-5.7c-1.55-1.27-3.89-1.9-7.03-1.9
			c-0.35,0-0.72,0-1.1,0c-0.38,0-0.75,0-1.1,0c-0.96,0-1.69,0.22-2.17,0.65c-0.48,0.43-0.75,1.13-0.8,2.09
			c-0.05,0.66-0.09,1.42-0.11,2.28c-0.03,0.86-0.04,1.82-0.04,2.89c0,0.66,0,1.33,0,2.01s0,1.38,0,2.09c0,1.27,0.2,2.1,0.61,2.51
			C91.68,122.85,92.42,123.06,93.48,123.06z M93.94,146.62c0.35,0,0.72,0,1.1,0c0.38,0,0.75,0,1.1,0c3.85,0,6.66-0.66,8.44-1.98
			c1.77-1.32,2.66-3.39,2.66-6.23c0-2.69-0.95-4.69-2.85-6c-1.9-1.32-4.78-1.98-8.62-1.98c-0.3,0-0.62,0-0.95,0s-0.64,0-0.95,0
			c-1.17,0-1.98,0.23-2.43,0.68c-0.46,0.46-0.68,1.32-0.68,2.58c0,0.86,0,1.74,0,2.62c0,0.89,0,1.79,0,2.7c0,1.42,0,2.41,0,2.96
			c0,0.56,0.02,1.04,0.07,1.44c0.05,1.11,0.33,1.93,0.84,2.43C92.17,146.36,92.93,146.62,93.94,146.62z"/>
		<path class="st0" d="M141.14,155.58c-2.33,0-4.48-0.08-6.46-0.23c-1.98-0.15-3.37-0.33-4.18-0.53c-0.86-0.25-1.51-0.66-1.94-1.22
			c-0.43-0.56-0.65-1.29-0.65-2.2c0-0.81,0.19-1.49,0.57-2.05c0.38-0.56,0.92-0.96,1.63-1.22c0.1-0.05,0.42-0.16,0.95-0.34
			c0.53-0.18,0.97-0.32,1.33-0.42c0.61-0.25,1.05-0.62,1.33-1.1c0.28-0.48,0.44-1.1,0.49-1.86c0.05-1.52,0.09-3.9,0.11-7.14
			c0.03-3.24,0.04-6.43,0.04-9.58c0-2.84,0-5.67,0-8.51c0-2.84,0-5.67,0-8.51c-0.05-0.81-0.2-1.43-0.46-1.86
			c-0.25-0.43-0.66-0.75-1.21-0.95c-0.25-0.1-0.52-0.19-0.8-0.27c-0.28-0.08-0.77-0.19-1.48-0.34c-0.81-0.2-1.42-0.59-1.82-1.18
			c-0.41-0.58-0.61-1.35-0.61-2.32c0-1.42,0.63-2.48,1.9-3.19c1.27-0.71,3.14-1.06,5.62-1.06c1.06,0,2.23,0.01,3.5,0.04
			c1.27,0.03,3.14,0.09,5.62,0.19c2.33,0.05,4.05,0.09,5.17,0.11c1.11,0.03,2.13,0.04,3.04,0.04c1.92,0,3.86,0,5.81,0s3.89,0,5.81,0
			c0.56,0,1.09-0.06,1.6-0.19c0.51-0.13,1.17-0.37,1.98-0.72c0.76-0.35,1.37-0.58,1.82-0.68c0.46-0.1,0.94-0.15,1.44-0.15
			c1.06,0,1.99,0.25,2.77,0.76c0.79,0.51,1.41,1.27,1.86,2.28c0.81,1.93,1.48,3.99,2.01,6.19s0.87,4.5,1.03,6.88
			c0.15,1.67-0.16,3.02-0.95,4.03c-0.79,1.01-1.89,1.52-3.31,1.52c-1.21,0-2.27-0.33-3.15-0.99c-0.89-0.66-1.84-1.87-2.85-3.65
			c-1.01-1.72-1.75-2.91-2.2-3.57c-0.46-0.66-0.91-1.24-1.37-1.75c-0.46-0.51-1.01-0.86-1.67-1.06c-0.66-0.2-1.57-0.3-2.74-0.3
			c-2.94,0-5.03,0-6.27,0c-1.24,0-2.09,0.03-2.54,0.08c-0.81,0.05-1.42,0.3-1.82,0.76c-0.41,0.46-0.63,1.09-0.69,1.9
			c-0.05,0.61-0.09,1.72-0.11,3.34c-0.03,1.62-0.04,4-0.04,7.14c0,0.76,0.08,1.39,0.23,1.9c0.15,0.51,0.38,0.86,0.69,1.06
			c0.35,0.15,1.09,0.29,2.2,0.42c1.11,0.13,2.13,0.19,3.04,0.19c0.56,0,1-0.09,1.33-0.27c0.33-0.18,0.54-0.44,0.65-0.8
			c0.1-0.25,0.2-0.58,0.3-0.99c0.1-0.4,0.2-1.29,0.3-2.66c0.1-1.42,0.49-2.48,1.18-3.19c0.68-0.71,1.63-1.06,2.85-1.06
			c1.32,0,2.3,0.33,2.96,0.99c0.66,0.66,1.12,1.75,1.37,3.27c0.15,1.27,0.27,2.99,0.34,5.17c0.08,2.18,0.11,4.86,0.11,8.06
			c0,2.69-0.33,4.64-0.99,5.85c-0.66,1.22-1.7,1.82-3.12,1.82c-1.32,0-2.33-0.34-3.04-1.03c-0.71-0.68-1.17-1.79-1.37-3.31
			c-0.15-1.11-0.28-1.99-0.38-2.62c-0.1-0.63-0.2-1.03-0.3-1.18c-0.15-0.41-0.37-0.67-0.65-0.8c-0.28-0.13-0.67-0.19-1.18-0.19
			c-1.12,0-2.17,0.04-3.15,0.11c-0.99,0.08-1.69,0.17-2.09,0.27c-0.46,0.2-0.77,0.57-0.95,1.1c-0.18,0.53-0.27,1.33-0.27,2.39
			c0,1.17,0,2.34,0,3.53c0,1.19,0,2.37,0,3.53c0,0.96,0.12,1.72,0.38,2.28c0.25,0.56,0.63,0.91,1.14,1.06
			c0.3,0.1,0.62,0.19,0.95,0.27c0.33,0.08,0.82,0.17,1.48,0.27c0.4,0.1,0.72,0.17,0.95,0.19c0.23,0.03,0.42,0.06,0.57,0.11
			c0.91,0.25,1.58,0.68,2.01,1.29s0.65,1.42,0.65,2.43c0,1.17-0.37,2.1-1.1,2.81c-0.73,0.71-1.76,1.14-3.08,1.29
			c-1.32,0.1-2.88,0.18-4.67,0.23C146.82,155.56,144.33,155.58,141.14,155.58z"/>
		<path class="st0" d="M184.38,155.58c-1.98,0-3.57-0.03-4.79-0.08c-1.22-0.05-2.28-0.13-3.19-0.23c-1.21-0.15-2.13-0.53-2.74-1.14
			c-0.61-0.61-0.91-1.44-0.91-2.51c0-0.91,0.25-1.71,0.76-2.39c0.51-0.68,1.24-1.23,2.2-1.63c0.46-0.2,0.89-0.42,1.29-0.65
			c0.4-0.23,0.73-0.44,0.99-0.65c0.41-0.4,0.79-0.89,1.14-1.44c0.35-0.56,0.71-1.29,1.06-2.2c0.35-0.96,0.76-2,1.21-3.12
			c0.46-1.11,1.12-2.79,1.98-5.02c0.91-2.33,1.61-4.1,2.09-5.32c0.48-1.22,0.92-2.36,1.33-3.42c1.17-2.84,2.29-5.62,3.38-8.36
			c1.09-2.74,2.17-5.42,3.23-8.06c1.82-4.46,3.48-7.28,4.98-8.47c1.49-1.19,3.51-1.79,6.04-1.79c2.58,0,4.51,0.48,5.78,1.44
			c1.27,0.96,2.69,3.22,4.26,6.76c0.71,1.72,1.98,4.9,3.8,9.54c1.82,4.64,2.81,7.16,2.96,7.56c0.41,1.01,0.85,2.13,1.33,3.34
			c0.48,1.22,1.18,2.99,2.09,5.32c1.37,3.45,2.33,5.9,2.89,7.37c0.56,1.47,1.04,2.71,1.44,3.72c0.25,0.61,0.51,1.08,0.76,1.41
			c0.25,0.33,0.58,0.6,0.99,0.8c0.3,0.15,0.62,0.32,0.95,0.49c0.33,0.18,0.77,0.37,1.33,0.57c1.01,0.41,1.71,0.89,2.09,1.44
			c0.38,0.56,0.57,1.32,0.57,2.28c0,1.17-0.36,2.09-1.06,2.77c-0.71,0.68-1.75,1.1-3.12,1.25c-1.93,0.15-3.79,0.25-5.59,0.3
			c-1.8,0.05-3.71,0.08-5.74,0.08c-2.74,0-4.98-0.03-6.73-0.08c-1.75-0.05-3.21-0.15-4.37-0.3c-1.01-0.15-1.8-0.54-2.36-1.18
			c-0.56-0.63-0.84-1.43-0.84-2.39c0-0.96,0.25-1.77,0.76-2.43c0.51-0.66,1.22-1.09,2.13-1.29c0.25-0.05,0.51-0.1,0.76-0.15
			c0.25-0.05,0.63-0.1,1.14-0.15c0.25-0.05,0.46-0.09,0.61-0.11c0.15-0.02,0.28-0.04,0.38-0.04c0.61-0.2,1.04-0.51,1.29-0.91
			c0.25-0.4,0.3-0.89,0.15-1.44c-0.1-0.61-0.27-1.23-0.49-1.86c-0.23-0.63-0.7-1.84-1.41-3.61c-0.25-0.51-0.58-0.86-0.99-1.06
			c-0.41-0.2-0.99-0.3-1.75-0.3c-1.17,0-2.33,0-3.5,0s-2.33,0-3.5,0c-1.12,0-2.24,0-3.38,0c-1.14,0-2.29,0-3.46,0
			c-0.66,0-1.17,0.11-1.52,0.34c-0.36,0.23-0.63,0.62-0.84,1.18c-0.46,1.06-0.82,2-1.1,2.81c-0.28,0.81-0.52,1.65-0.72,2.51
			c-0.1,0.46-0.05,0.85,0.15,1.18c0.2,0.33,0.51,0.54,0.91,0.65c0.2,0.05,0.42,0.09,0.64,0.11c0.23,0.03,0.54,0.09,0.95,0.19
			c0.56,0.05,0.96,0.1,1.21,0.15c0.25,0.05,0.48,0.1,0.69,0.15c0.96,0.2,1.71,0.63,2.24,1.29c0.53,0.66,0.8,1.47,0.8,2.43
			c0,1.06-0.3,1.94-0.91,2.62s-1.44,1.1-2.51,1.25c-1.01,0.15-2.38,0.27-4.1,0.34C188.81,155.55,186.76,155.58,184.38,155.58z
			 M195.93,127.92c-0.3,0.86-0.32,1.48-0.04,1.86c0.28,0.38,0.85,0.57,1.71,0.57c0.66,0,1.32,0,1.97,0s1.32,0,1.98,0
			c0.71,0,1.43,0,2.17,0s1.46,0,2.17,0c0.76,0,1.24-0.21,1.44-0.65c0.2-0.43,0.15-1.05-0.15-1.86c-0.56-1.57-1.19-3.25-1.9-5.05
			c-0.71-1.8-1.45-3.71-2.21-5.74c-0.15-0.4-0.35-0.72-0.61-0.95s-0.56-0.34-0.91-0.34c-0.36,0-0.65,0.11-0.87,0.34
			c-0.23,0.23-0.45,0.57-0.65,1.03c-0.66,1.57-1.33,3.28-2.01,5.13C197.34,124.11,196.64,125.99,195.93,127.92z"/>
	</g>
	<g>
		<path class="st0" d="M171.72,206.73c0,5.37-2.08,9.69-6.23,12.96c-4.16,3.27-9.85,4.9-17.1,4.9c-6.84,0-12.22-1.33-16.15-3.99
			c-3.93-2.66-5.89-6.07-5.89-10.22c0-2.33,0.66-4.19,1.98-5.59c1.32-1.39,3.12-2.09,5.4-2.09c1.98,0,3.6,0.52,4.86,1.56
			c1.27,1.04,2.33,2.72,3.19,5.05c0.86,2.43,1.95,4.19,3.27,5.28c1.32,1.09,3.04,1.63,5.17,1.63c1.98,0,3.58-0.58,4.83-1.75
			c1.24-1.17,1.86-2.74,1.86-4.71s-0.68-3.63-2.05-4.98s-3.8-2.72-7.3-4.14c-1.93-0.76-3.27-1.33-4.03-1.71s-1.39-0.77-1.9-1.18
			c-0.46-0.35-0.75-0.76-0.87-1.22c-0.13-0.46-0.04-0.91,0.27-1.37c0.81-1.22,1.98-2.63,3.5-4.26c1.52-1.62,3.57-3.57,6.16-5.85
			c1.93-1.72,3.01-2.74,3.27-3.04c0.25-0.3,0.38-0.58,0.38-0.84c0-0.25-0.46-0.42-1.37-0.49c-0.91-0.08-2.71-0.11-5.4-0.11
			c-1.17,0-2.13,0.06-2.89,0.19c-0.76,0.13-1.44,0.34-2.05,0.65c-0.86,0.41-1.68,0.92-2.47,1.56c-0.79,0.63-1.74,1.53-2.85,2.7
			c-1.27,1.37-2.32,2.24-3.15,2.62s-1.79,0.57-2.85,0.57c-1.62,0-2.83-0.47-3.61-1.41c-0.79-0.94-1.08-2.24-0.87-3.91
			c0.25-1.62,0.65-3.37,1.18-5.24c0.53-1.87,1.18-3.65,1.94-5.32c0.86-1.92,1.82-3.39,2.89-4.41c1.06-1.01,2.2-1.52,3.42-1.52
			c0.46,0,0.91,0.03,1.37,0.08c0.46,0.05,1.17,0.2,2.13,0.46c1.17,0.25,2.1,0.42,2.81,0.49c0.71,0.08,1.42,0.11,2.13,0.11
			c1.42,0,2.76-0.01,4.03-0.04c1.27-0.02,2.94-0.06,5.02-0.11c2.03,0,3.67-0.01,4.94-0.04c1.27-0.03,2.58-0.04,3.95-0.04
			c3.55,0,6.05,0.37,7.52,1.1c1.47,0.74,2.2,1.94,2.2,3.61c0,1.27-0.3,2.43-0.91,3.5c-0.61,1.06-1.82,2.48-3.65,4.26
			c-0.56,0.61-1.69,1.7-3.38,3.27c-1.7,1.57-3.94,3.62-6.73,6.16c-0.51,0.51-0.72,0.9-0.65,1.18c0.08,0.28,0.49,0.52,1.25,0.72
			c4.56,1.37,7.94,3.27,10.15,5.7C170.62,199.89,171.72,202.98,171.72,206.73z"/>
	</g>
</g>
<g id="Layer_2_copy" class="st23">
	<g class="st24">
		<g>
			<path class="st20" d="M74.84,230.19c-1.54,0.06-2.68,0.11-3.41,0.14c-0.74,0.03-1.42,0.05-2.03,0.05c-2.77,0-4.91-0.43-6.41-1.29
				c-1.51-0.86-2.26-2.12-2.26-3.78c0-0.98,0.21-1.8,0.65-2.44c0.43-0.65,1.11-1.15,2.03-1.52c0.37-0.12,0.75-0.26,1.15-0.42
				c0.4-0.15,0.94-0.32,1.61-0.51c0.74-0.31,1.28-0.75,1.61-1.34c0.34-0.58,0.54-1.34,0.6-2.26c0.06-1.85,0.11-4.74,0.14-8.67
				c0.03-3.94,0.05-7.81,0.05-11.63c0-3.44,0-6.89,0-10.33c0-3.44,0-6.89,0-10.33c-0.06-0.92-0.25-1.66-0.55-2.21
				c-0.31-0.55-0.8-0.95-1.48-1.2c-0.12-0.06-0.26-0.11-0.42-0.14c-0.15-0.03-0.38-0.08-0.69-0.14c-0.49-0.12-0.85-0.22-1.06-0.28
				c-0.22-0.06-0.42-0.12-0.6-0.18c-1.05-0.31-1.8-0.81-2.26-1.52c-0.46-0.71-0.69-1.62-0.69-2.72c0-1.72,0.77-3.01,2.31-3.88
				c1.54-0.86,3.81-1.29,6.83-1.29c1.17,0,2.34,0.02,3.51,0.05c1.17,0.03,2.77,0.11,4.8,0.23c1.6,0.06,2.77,0.11,3.51,0.14
				c0.74,0.03,1.44,0.05,2.12,0.05c0.43,0,0.97-0.01,1.62-0.05c0.65-0.03,1.8-0.08,3.46-0.14c3.14-0.12,5.63-0.2,7.47-0.23
				c1.85-0.03,3.6-0.05,5.26-0.05c7.38,0,13,1.29,16.84,3.88c3.84,2.58,5.77,6.4,5.77,11.44c0,3.51-1.05,6.58-3.14,9.23
				c-2.09,2.65-4.95,4.55-8.58,5.72c-0.31,0.12-0.54,0.26-0.69,0.42c-0.15,0.15-0.23,0.35-0.23,0.6c0,0.25,0.08,0.46,0.23,0.65
				s0.42,0.31,0.79,0.37c4.98,1.11,8.72,3.06,11.21,5.86c2.49,2.8,3.74,6.45,3.74,10.93c0,6.27-2.44,11.03-7.34,14.26
				c-4.89,3.23-12.07,4.84-21.54,4.84c-2.64,0-5.07-0.03-7.29-0.09c-2.21-0.06-4.61-0.15-7.2-0.28c-0.99-0.06-1.69-0.09-2.12-0.09
				c-0.43,0-0.8,0-1.11,0c-0.74,0-1.54,0.01-2.4,0.05C77.76,230.08,76.5,230.12,74.84,230.19z M90.07,190.88c0.49,0,0.98,0,1.48,0
				c0.49,0,0.98,0,1.48,0c3.75,0,6.6-0.77,8.53-2.31c1.94-1.54,2.91-3.81,2.91-6.83c0-3.07-0.94-5.38-2.81-6.92
				c-1.88-1.54-4.72-2.31-8.54-2.31c-0.43,0-0.88,0-1.34,0c-0.46,0-0.91,0-1.34,0c-1.17,0-2.05,0.26-2.63,0.78
				c-0.59,0.52-0.91,1.37-0.97,2.54c-0.06,0.8-0.11,1.72-0.14,2.77c-0.03,1.05-0.05,2.21-0.05,3.51c0,0.8,0,1.61,0,2.44
				c0,0.83,0,1.68,0,2.54c0,1.54,0.24,2.55,0.74,3.04C87.88,190.63,88.78,190.88,90.07,190.88z M90.62,219.48c0.43,0,0.88,0,1.34,0
				c0.46,0,0.91,0,1.34,0c4.68,0,8.09-0.8,10.24-2.4c2.15-1.6,3.23-4.12,3.23-7.57c0-3.26-1.15-5.69-3.46-7.29
				c-2.31-1.6-5.8-2.4-10.47-2.4c-0.37,0-0.75,0-1.15,0c-0.4,0-0.78,0-1.15,0c-1.42,0-2.4,0.28-2.95,0.83
				c-0.55,0.55-0.83,1.6-0.83,3.14c0,1.05,0,2.11,0,3.18c0,1.08,0,2.17,0,3.28c0,1.72,0,2.92,0,3.6c0,0.68,0.03,1.26,0.09,1.75
				c0.06,1.35,0.4,2.34,1.02,2.95C88.47,219.18,89.39,219.48,90.62,219.48z"/>
			<path class="st20" d="M144.39,232.03c-2.83,0-5.44-0.09-7.84-0.28s-4.09-0.4-5.07-0.65c-1.05-0.31-1.83-0.8-2.35-1.48
				c-0.52-0.68-0.78-1.57-0.78-2.68c0-0.98,0.23-1.81,0.69-2.49c0.46-0.68,1.12-1.17,1.98-1.48c0.12-0.06,0.51-0.2,1.15-0.42
				c0.65-0.21,1.18-0.38,1.61-0.51c0.74-0.31,1.28-0.75,1.61-1.34c0.34-0.58,0.54-1.34,0.6-2.26c0.06-1.85,0.11-4.74,0.14-8.67
				c0.03-3.94,0.05-7.81,0.05-11.63c0-3.44,0-6.89,0-10.33c0-3.44,0-6.89,0-10.33c-0.06-0.98-0.25-1.74-0.55-2.26
				c-0.31-0.52-0.8-0.91-1.48-1.15c-0.31-0.12-0.63-0.23-0.97-0.32s-0.94-0.23-1.8-0.42c-0.98-0.24-1.72-0.72-2.21-1.43
				c-0.49-0.71-0.74-1.64-0.74-2.81c0-1.72,0.77-3.01,2.31-3.88c1.54-0.86,3.81-1.29,6.83-1.29c1.29,0,2.71,0.02,4.24,0.05
				c1.54,0.03,3.81,0.11,6.83,0.23c2.83,0.06,4.92,0.11,6.27,0.14c1.35,0.03,2.58,0.05,3.69,0.05c2.34,0,4.69,0,7.06,0
				c2.37,0,4.72,0,7.06,0c0.68,0,1.32-0.08,1.94-0.23c0.61-0.15,1.41-0.45,2.4-0.88c0.92-0.43,1.66-0.71,2.22-0.83
				c0.55-0.12,1.14-0.18,1.75-0.18c1.29,0,2.41,0.31,3.37,0.92c0.95,0.62,1.71,1.54,2.26,2.77c0.98,2.34,1.8,4.84,2.44,7.52
				c0.65,2.68,1.06,5.46,1.25,8.35c0.18,2.03-0.2,3.66-1.15,4.89c-0.96,1.23-2.29,1.84-4.01,1.84c-1.48,0-2.75-0.4-3.83-1.2
				c-1.08-0.8-2.23-2.28-3.46-4.43c-1.23-2.09-2.12-3.54-2.68-4.34c-0.55-0.8-1.11-1.51-1.66-2.12c-0.55-0.61-1.23-1.05-2.03-1.29
				c-0.8-0.25-1.91-0.37-3.32-0.37c-3.57,0-6.11,0-7.61,0c-1.51,0-2.54,0.03-3.09,0.09c-0.99,0.06-1.72,0.37-2.22,0.92
				c-0.49,0.55-0.77,1.32-0.83,2.31c-0.06,0.74-0.11,2.09-0.14,4.06c-0.03,1.97-0.05,4.86-0.05,8.67c0,0.92,0.09,1.69,0.28,2.31
				c0.18,0.62,0.46,1.05,0.83,1.29c0.43,0.18,1.32,0.35,2.68,0.51c1.35,0.15,2.58,0.23,3.69,0.23c0.68,0,1.21-0.11,1.61-0.32
				c0.4-0.21,0.66-0.54,0.79-0.97c0.12-0.31,0.24-0.71,0.37-1.2c0.12-0.49,0.25-1.57,0.37-3.23c0.12-1.72,0.6-3.01,1.43-3.88
				c0.83-0.86,1.98-1.29,3.46-1.29c1.6,0,2.8,0.4,3.6,1.2c0.8,0.8,1.35,2.12,1.66,3.97c0.18,1.54,0.32,3.63,0.41,6.27
				c0.09,2.65,0.14,5.91,0.14,9.78c0,3.26-0.4,5.63-1.2,7.11c-0.8,1.48-2.06,2.21-3.78,2.21c-1.6,0-2.83-0.42-3.69-1.25
				c-0.86-0.83-1.42-2.17-1.66-4.01c-0.18-1.35-0.34-2.41-0.46-3.18c-0.12-0.77-0.25-1.25-0.37-1.43c-0.18-0.49-0.45-0.81-0.78-0.97
				c-0.34-0.15-0.82-0.23-1.43-0.23c-1.35,0-2.63,0.05-3.83,0.14c-1.2,0.09-2.05,0.2-2.54,0.32c-0.55,0.25-0.94,0.69-1.15,1.34
				c-0.22,0.65-0.32,1.61-0.32,2.91c0,1.42,0,2.85,0,4.29c0,1.45,0,2.88,0,4.29c0,1.17,0.15,2.09,0.46,2.77
				c0.31,0.68,0.77,1.11,1.38,1.29c0.37,0.12,0.75,0.23,1.15,0.32c0.4,0.09,1,0.2,1.8,0.32c0.49,0.12,0.88,0.2,1.15,0.23
				c0.28,0.03,0.51,0.08,0.69,0.14c1.11,0.31,1.92,0.83,2.44,1.57c0.52,0.74,0.78,1.72,0.78,2.95c0,1.42-0.45,2.55-1.34,3.41
				c-0.89,0.86-2.14,1.38-3.74,1.57c-1.6,0.12-3.49,0.21-5.68,0.28C151.3,232,148.27,232.03,144.39,232.03z"/>
			<path class="st20" d="M187.8,230.83c-2.4,0-4.34-0.03-5.81-0.09c-1.48-0.06-2.77-0.15-3.87-0.28c-1.48-0.18-2.58-0.65-3.32-1.38
				c-0.74-0.74-1.11-1.75-1.11-3.04c0-1.11,0.31-2.08,0.92-2.91c0.61-0.83,1.51-1.49,2.68-1.98c0.55-0.24,1.08-0.51,1.57-0.78
				c0.49-0.28,0.89-0.54,1.2-0.78c0.49-0.49,0.95-1.08,1.38-1.75c0.43-0.68,0.86-1.57,1.29-2.68c0.43-1.17,0.92-2.43,1.48-3.78
				c0.55-1.35,1.35-3.38,2.4-6.09c1.11-2.83,1.95-4.98,2.54-6.46c0.58-1.48,1.12-2.86,1.61-4.15c1.41-3.44,2.78-6.83,4.11-10.15
				c1.32-3.32,2.63-6.58,3.92-9.78c2.22-5.41,4.23-8.84,6.04-10.29c1.81-1.44,4.26-2.17,7.33-2.17c3.14,0,5.47,0.58,7.01,1.75
				c1.54,1.17,3.26,3.91,5.17,8.21c0.86,2.09,2.4,5.95,4.61,11.58c2.22,5.63,3.41,8.69,3.6,9.18c0.49,1.23,1.03,2.58,1.62,4.06
				c0.58,1.48,1.43,3.63,2.54,6.46c1.66,4.18,2.83,7.17,3.51,8.95c0.68,1.78,1.26,3.29,1.75,4.52c0.31,0.74,0.61,1.31,0.92,1.71
				c0.31,0.4,0.71,0.72,1.2,0.97c0.37,0.18,0.75,0.39,1.15,0.6c0.4,0.22,0.94,0.45,1.62,0.69c1.23,0.49,2.08,1.08,2.54,1.75
				c0.46,0.68,0.69,1.6,0.69,2.77c0,1.42-0.43,2.54-1.29,3.37c-0.86,0.83-2.12,1.34-3.78,1.52c-2.34,0.18-4.6,0.31-6.78,0.37
				c-2.19,0.06-4.51,0.09-6.97,0.09c-3.32,0-6.04-0.03-8.17-0.09c-2.12-0.06-3.89-0.18-5.31-0.37c-1.23-0.18-2.18-0.66-2.86-1.43
				c-0.68-0.77-1.02-1.74-1.02-2.91c0-1.17,0.31-2.15,0.92-2.95c0.61-0.8,1.48-1.32,2.58-1.57c0.31-0.06,0.61-0.12,0.92-0.18
				c0.31-0.06,0.77-0.12,1.38-0.18c0.31-0.06,0.55-0.11,0.74-0.14c0.18-0.03,0.34-0.05,0.46-0.05c0.74-0.25,1.26-0.61,1.57-1.11
				c0.31-0.49,0.37-1.08,0.18-1.75c-0.12-0.74-0.32-1.49-0.6-2.26c-0.28-0.77-0.85-2.23-1.71-4.38c-0.31-0.61-0.71-1.05-1.2-1.29
				c-0.49-0.25-1.2-0.37-2.12-0.37c-1.41,0-2.83,0-4.24,0c-1.42,0-2.83,0-4.24,0c-1.35,0-2.72,0-4.11,0c-1.38,0-2.78,0-4.2,0
				c-0.8,0-1.41,0.14-1.84,0.42c-0.43,0.28-0.77,0.75-1.02,1.43c-0.55,1.29-1,2.43-1.34,3.41c-0.34,0.99-0.63,2-0.88,3.05
				c-0.12,0.55-0.06,1.03,0.18,1.43c0.24,0.4,0.61,0.66,1.11,0.78c0.24,0.06,0.51,0.11,0.79,0.14c0.28,0.03,0.66,0.11,1.15,0.23
				c0.68,0.06,1.17,0.12,1.48,0.18c0.31,0.06,0.58,0.12,0.83,0.18c1.17,0.25,2.08,0.77,2.72,1.57c0.65,0.8,0.97,1.79,0.97,2.95
				c0,1.29-0.37,2.35-1.11,3.18c-0.74,0.83-1.75,1.34-3.05,1.52c-1.23,0.18-2.89,0.32-4.98,0.41
				C193.18,230.79,190.69,230.83,187.8,230.83z M201.83,197.24c-0.37,1.05-0.39,1.8-0.05,2.26c0.34,0.46,1.03,0.69,2.08,0.69
				c0.8,0,1.6,0,2.4,0c0.8,0,1.6,0,2.4,0c0.86,0,1.74,0,2.63,0s1.77,0,2.63,0c0.92,0,1.51-0.26,1.75-0.78
				c0.24-0.52,0.18-1.28-0.18-2.26c-0.68-1.91-1.45-3.95-2.31-6.14c-0.86-2.18-1.75-4.51-2.68-6.97c-0.18-0.49-0.43-0.88-0.74-1.15
				c-0.31-0.28-0.68-0.42-1.11-0.42c-0.43,0-0.78,0.14-1.06,0.42c-0.28,0.28-0.54,0.69-0.78,1.25c-0.8,1.91-1.62,3.98-2.45,6.23
				C203.53,192.62,202.69,194.91,201.83,197.24z"/>
		</g>
		<g>
			<g>
				<path class="st20" d="M185.49,135.82c0,6.66-2.58,12.01-7.73,16.07c-5.15,4.05-12.22,6.08-21.2,6.08
					c-8.48,0-15.16-1.65-20.03-4.95c-4.87-3.3-7.3-7.52-7.3-12.67c0-2.89,0.81-5.2,2.45-6.93c1.63-1.73,3.86-2.59,6.69-2.59
					c2.45,0,4.46,0.65,6.03,1.93c1.57,1.29,2.89,3.38,3.96,6.27c1.07,3.02,2.42,5.2,4.05,6.55c1.63,1.35,3.77,2.03,6.41,2.03
					c2.45,0,4.44-0.72,5.98-2.17c1.54-1.44,2.31-3.39,2.31-5.84c0-2.45-0.85-4.51-2.54-6.17c-1.7-1.66-4.71-3.38-9.05-5.14
					c-2.39-0.94-4.05-1.65-5-2.12c-0.94-0.47-1.73-0.96-2.36-1.46c-0.57-0.44-0.93-0.94-1.08-1.51c-0.16-0.57-0.05-1.13,0.33-1.7
					c1-1.51,2.45-3.27,4.34-5.28c1.88-2.01,4.43-4.43,7.63-7.26c2.39-2.13,3.74-3.39,4.05-3.77c0.31-0.38,0.47-0.72,0.47-1.04
					c0-0.31-0.57-0.52-1.7-0.61c-1.13-0.09-3.36-0.14-6.69-0.14c-1.45,0-2.64,0.08-3.58,0.24c-0.94,0.16-1.79,0.42-2.54,0.8
					c-1.07,0.5-2.09,1.15-3.06,1.93c-0.97,0.79-2.15,1.9-3.53,3.34c-1.57,1.7-2.87,2.78-3.91,3.25c-1.04,0.47-2.21,0.71-3.53,0.71
					c-2.01,0-3.5-0.58-4.48-1.74c-0.97-1.16-1.34-2.78-1.08-4.85c0.31-2.01,0.8-4.18,1.46-6.5c0.66-2.32,1.46-4.52,2.4-6.6
					c1.07-2.39,2.26-4.21,3.58-5.47c1.32-1.26,2.73-1.89,4.24-1.89c0.57,0,1.13,0.03,1.7,0.09c0.57,0.06,1.44,0.25,2.64,0.57
					c1.44,0.31,2.61,0.52,3.49,0.61c0.88,0.09,1.76,0.14,2.64,0.14c1.76,0,3.42-0.01,5-0.05c1.57-0.03,3.64-0.08,6.22-0.14
					c2.51,0,4.56-0.01,6.13-0.05c1.57-0.03,3.2-0.05,4.9-0.05c4.4,0,7.51,0.46,9.33,1.37c1.82,0.91,2.73,2.4,2.73,4.48
					c0,1.57-0.38,3.02-1.13,4.34c-0.75,1.32-2.26,3.08-4.52,5.28c-0.69,0.75-2.09,2.11-4.19,4.05c-2.11,1.95-4.89,4.49-8.34,7.63
					c-0.63,0.63-0.89,1.12-0.8,1.46c0.09,0.35,0.61,0.65,1.55,0.89c5.65,1.7,9.85,4.05,12.58,7.07S185.49,131.18,185.49,135.82z"/>
			</g>
		</g>
	</g>
</g>
</svg>
