<svg id="图层_1" data-name="图层 1" xmlns="http://www.w3.org/2000/svg" viewBox="0 0 300 300"><defs><style>.cls-1{fill:#fff7e3;}.cls-1,.cls-2,.cls-3,.cls-4,.cls-5,.cls-6,.cls-7{stroke:#00685c;stroke-miterlimit:10;stroke-width:0.5px;}.cls-2{fill:#fff;}.cls-3{fill:#eb3772;}.cls-4{fill:#ffe41b;}.cls-5{fill:#5eb34b;}.cls-6{fill:none;}.cls-7{fill:#0198bd;}</style></defs><path class="cls-1" d="M84.45,106.09V94.77c0-3.49,3.24-6.32,7.24-6.32H215.34c4,0,7.25,2.83,7.25,6.32v11.32"/><polyline class="cls-2" points="93.31 106.09 93.31 69.97 213.83 69.97 213.83 106.09"/><path class="cls-1" d="M93.3,205.52h-31A13.48,13.48,0,0,1,48.86,192V119.57a13.48,13.48,0,0,1,13.48-13.48H244.79a13.48,13.48,0,0,1,13.48,13.48V192a13.48,13.48,0,0,1-13.48,13.48h-31"/><circle class="cls-3" cx="64.49" cy="132.27" r="5.08"/><circle class="cls-4" cx="83.7" cy="132.27" r="5.08"/><circle class="cls-5" cx="74.28" cy="118.12" r="5.08"/><path class="cls-4" d="M86.21,205.64V171.57a7.13,7.13,0,0,1,7-7.23H213.06a7.12,7.12,0,0,1,7,7.23v34.07"/><path class="cls-2" d="M93.3,236.08v-65H213.83v75.93a14.06,14.06,0,0,1-14.06,14.05H107.36"/><path class="cls-2" d="M192.38,261.11H84.58a8.22,8.22,0,0,1-8.22-8.22V236.08H196.88v16.06"/><path class="cls-6" d="M204.72,260.22a8,8,0,0,1-7.84-8.08v-7.36"/><line class="cls-6" x1="109.88" y1="195.73" x2="158.09" y2="195.73"/><line class="cls-6" x1="109.88" y1="205.52" x2="158.09" y2="205.52"/><line class="cls-6" x1="109.88" y1="215.31" x2="158.09" y2="215.31"/><path class="cls-7" d="M50.62,187.14c-2,0-3.77-.06-5.2-.16a17.92,17.92,0,0,1-3.48-.52,5.61,5.61,0,0,1-2.39-1.16,2.46,2.46,0,0,1-.79-1.9,4,4,0,0,1,.24-1.46,3.45,3.45,0,0,1,.8-1.17l.3-.27.55-.46.37-.27.24-.22A4.62,4.62,0,0,0,42.4,178a5.75,5.75,0,0,0,.39-1.89c0-.9.08-2.57.12-5s.07-4.77.07-7q0-.85,0-6.21t0-6.09a7.28,7.28,0,0,0-.34-2,2.76,2.76,0,0,0-.89-1.29,4.12,4.12,0,0,1-.39-.3,4.54,4.54,0,0,0-.65-.43l-.27-.18-.16-.13a3.17,3.17,0,0,1-1.16-1.31,4.69,4.69,0,0,1-.24-1.62c0-1.35.78-2.34,2.35-3a20.94,20.94,0,0,1,7.31-.95c.9,0,1.81,0,2.72.1s2.07.17,3.46.33c.73.12,1.25.2,1.56.22l.82,0,.8,0c.33,0,.88-.1,1.65-.22,1.55-.16,2.77-.27,3.67-.33s1.73-.1,2.51-.1q8.19,0,12.57,3.92t4.37,11.19q0,7.71-5.2,11.87t-14.86,4.16H58.94a1.27,1.27,0,0,0-1,.33,1.59,1.59,0,0,0-.31,1.07v2.39a9.5,9.5,0,0,0,.07,1.16,3.44,3.44,0,0,0,.18.95,1.73,1.73,0,0,0,.37.52,3,3,0,0,0,.55.43,3.83,3.83,0,0,0,.61.3,6.87,6.87,0,0,1,2.66,1.44,2.77,2.77,0,0,1,.82,2.05A3.46,3.46,0,0,1,62,185a5.21,5.21,0,0,1-2.66,1.38,23.49,23.49,0,0,1-3.79.61C54.15,187.07,52.5,187.14,50.62,187.14Zm10-22h.61a4.87,4.87,0,0,0,4.22-2.2A10.61,10.61,0,0,0,67,156.8a9.74,9.74,0,0,0-1.59-5.93,5,5,0,0,0-4.22-2.14h-.61a3.58,3.58,0,0,0-1.86.39,1.87,1.87,0,0,0-.83,1.26,15,15,0,0,0-.18,2c0,.92-.07,2-.07,3.28v5c0,1.92.19,3.14.56,3.67S59.39,165.12,60.65,165.12Z"/><path class="cls-7" d="M133.74,182.67q0,2.27-3,3.55a22,22,0,0,1-8.41,1.28q-4.83,0-7.09-2.29t-2.87-8.11a28.61,28.61,0,0,0-.74-4.34,6.84,6.84,0,0,0-1.22-2.51,3.68,3.68,0,0,0-1.38-1,4.41,4.41,0,0,0-1.86-.4h-1.35a1.27,1.27,0,0,0-1.13.58,2.81,2.81,0,0,0-.4,1.62c0,1.75,0,3.08,0,4s0,1.48,0,1.77a3,3,0,0,0,.19.95,1.88,1.88,0,0,0,.36.52,3.87,3.87,0,0,0,.55.43,4.4,4.4,0,0,0,.62.3,6.87,6.87,0,0,1,2.66,1.44,2.77,2.77,0,0,1,.82,2.05,3.46,3.46,0,0,1-.88,2.47,5.24,5.24,0,0,1-2.67,1.38,23.31,23.31,0,0,1-3.79.61c-1.43.12-3.08.19-4.95.19-2,0-3.77-.06-5.2-.16a18.16,18.16,0,0,1-3.49-.52,5.57,5.57,0,0,1-2.38-1.16,2.47,2.47,0,0,1-.8-1.9,3.75,3.75,0,0,1,.25-1.46,3.56,3.56,0,0,1,.79-1.17c.08-.08.19-.17.31-.27l.55-.46.37-.27.24-.22A4.45,4.45,0,0,0,89.06,178a5.5,5.5,0,0,0,.4-1.89c0-.9.08-2.57.12-5s.06-4.77.06-7q0-.85,0-6.21t0-6.09a7.31,7.31,0,0,0-.33-2,2.83,2.83,0,0,0-.89-1.29,4.16,4.16,0,0,1-.4-.3,3.86,3.86,0,0,0-.64-.43l-.27-.18a.75.75,0,0,1-.16-.13,3.1,3.1,0,0,1-1.16-1.31,4.69,4.69,0,0,1-.24-1.62c0-1.35.78-2.34,2.35-3a20.94,20.94,0,0,1,7.31-.95c.9,0,1.8,0,2.72.1s2.07.17,3.46.33c.73.12,1.25.2,1.56.22l.82,0,.74,0,1.65-.16c1.71-.2,3.1-.33,4.16-.39s2.1-.1,3.12-.1q7.95,0,12.14,2.91a9.61,9.61,0,0,1,4.19,8.41,10.88,10.88,0,0,1-2.36,6.91,15.49,15.49,0,0,1-6.64,4.71,2,2,0,0,0-.61.37.6.6,0,0,0,.06.91,1.6,1.6,0,0,0,.8.25,10.91,10.91,0,0,1,2.94.95,7.93,7.93,0,0,1,2.26,1.68,11.26,11.26,0,0,1,2,3.3,23.71,23.71,0,0,1,1.31,5,3.31,3.31,0,0,0,.22.82c.1.27.23.58.39,1a3.31,3.31,0,0,0,.37.55,3.78,3.78,0,0,0,.73.67l.83.61a11.89,11.89,0,0,1,.95.8,3,3,0,0,1,.55.95A3.59,3.59,0,0,1,133.74,182.67Zm-29.42-24.59a7.59,7.59,0,0,0,.49,3.43,2.06,2.06,0,0,0,1.9.79h.61a6.14,6.14,0,0,0,4.68-1.77,7,7,0,0,0,1.68-5,6.62,6.62,0,0,0-1.8-4.83,6.23,6.23,0,0,0-4.62-1.83h-.49a2.29,2.29,0,0,0-1.5.43,2.68,2.68,0,0,0-.76,1.59,16.36,16.36,0,0,0-.13,1.83q-.06,1.47-.06,1.71v3.67Z"/><path class="cls-7" d="M157.59,186.65a20.6,20.6,0,0,1-2.93.36c-1.23.08-3.08.13-5.57.13-2.12,0-3.84,0-5.17-.13a25.41,25.41,0,0,1-3.21-.36,5.93,5.93,0,0,1-2.81-1.14,2.67,2.67,0,0,1-.86-2.11,3.92,3.92,0,0,1,.4-1.8,4.43,4.43,0,0,1,1.5-1.5,4.92,4.92,0,0,0,.86-.67,7.46,7.46,0,0,0,.67-.8,3.58,3.58,0,0,0,.43-1,8.67,8.67,0,0,0,.18-1.25c0-.9.08-2.6.12-5.11s.06-4.88.06-7.12q0-6.3,0-8.9c0-1.73,0-3-.09-3.76a8.15,8.15,0,0,0-.18-1.23,3.44,3.44,0,0,0-.43-1,7.46,7.46,0,0,0-.67-.8,4.92,4.92,0,0,0-.86-.67,4.7,4.7,0,0,1-1.5-1.44,3.54,3.54,0,0,1-.33-1.62,2.81,2.81,0,0,1,1-2.2,6.3,6.3,0,0,1,3-1.29,21.61,21.61,0,0,1,3.31-.42c1.3-.09,2.83-.13,4.58-.13s3.36,0,4.68.13a21.72,21.72,0,0,1,3.34.42,6.47,6.47,0,0,1,3,1.2,2.64,2.64,0,0,1,1,2.11,3.79,3.79,0,0,1-.34,1.68,4.67,4.67,0,0,1-1.49,1.56,4.57,4.57,0,0,0-.86.67,6.45,6.45,0,0,0-.67.8,3.18,3.18,0,0,0-.43,1,8.15,8.15,0,0,0-.18,1.23c0,.77-.08,2-.1,3.76s0,4.7,0,8.9c0,2.24,0,4.61.06,7.09s.09,4.18.13,5.08a8.67,8.67,0,0,0,.18,1.25,3.08,3.08,0,0,0,.43,1,4,4,0,0,0,.61.71,8.08,8.08,0,0,0,.92.7,4.45,4.45,0,0,1,1.56,1.47,3.73,3.73,0,0,1,.33,1.65,3,3,0,0,1-.91,2.23A5.88,5.88,0,0,1,157.59,186.65Z"/><path class="cls-7" d="M183,186.46a15,15,0,0,1-3.12.52c-1.27.1-2.82.16-4.65.16-1.63,0-2.92,0-3.85-.1s-1.8-.15-2.57-.27a4.91,4.91,0,0,1-2.6-1.1,3,3,0,0,1-.83-2.27,3.79,3.79,0,0,1,.4-1.8,4.25,4.25,0,0,1,1.5-1.5,6.16,6.16,0,0,0,.92-.73,5.68,5.68,0,0,0,.61-.74,3.58,3.58,0,0,0,.43-1,8.67,8.67,0,0,0,.18-1.25c0-.9.08-2.6.12-5.11s.06-4.88.06-7.12v-9q0-2.33-.06-2.94a6.17,6.17,0,0,0-.3-1.56,4.5,4.5,0,0,0-.74-1.31,6.1,6.1,0,0,0-.49-.43,9.6,9.6,0,0,0-1-.73,6.25,6.25,0,0,1-1.65-1.44,2.5,2.5,0,0,1-.3-1.26,3.45,3.45,0,0,1,1-2.56,6.26,6.26,0,0,1,3.06-1.47,25.93,25.93,0,0,1,3-.4c1.16-.1,2.48-.15,3.94-.15a32,32,0,0,1,4.22.24,14.5,14.5,0,0,1,3.24.8A10.13,10.13,0,0,1,187,144.2a33.7,33.7,0,0,1,4.07,5q3.54,5.08,5.47,8c1.29,1.93,2.5,3.82,3.64,5.65a2,2,0,0,0,.52.62,1.07,1.07,0,0,0,.58.18.54.54,0,0,0,.49-.31,1.58,1.58,0,0,0,.19-.85v-6.24c0-.94,0-1.77-.09-2.51s-.18-1.53-.34-2.38a3.36,3.36,0,0,0-.34-.89,1.85,1.85,0,0,0-.52-.64,5.72,5.72,0,0,0-.7-.52,3,3,0,0,0-.7-.34,6.74,6.74,0,0,1-2.73-1.62,3.21,3.21,0,0,1-.76-2.17,4,4,0,0,1,.73-2.6,4.47,4.47,0,0,1,2.33-1.32,13.9,13.9,0,0,1,2.81-.42c1.18-.09,2.65-.13,4.41-.13,2,0,3.5,0,4.64.16a7.92,7.92,0,0,1,2.51.52,3.57,3.57,0,0,1,1.68,1.25,3.33,3.33,0,0,1,.52,1.93,4.25,4.25,0,0,1-.39,1.89,5.37,5.37,0,0,1-1.69,1.72l-.58.45a2.29,2.29,0,0,0-.46.52,2.77,2.77,0,0,0-.52,1,5.32,5.32,0,0,0-.15,1.32V153q0,1-.06,3.54c0,2.33-.06,4-.06,5.08v5.78c0,1.28,0,3.15.06,5.6v3c0,4-.57,6.82-1.71,8.6s-3,2.66-5.69,2.66a11.14,11.14,0,0,1-4.92-.95,13.75,13.75,0,0,1-4.13-3.52q-2-2.32-4.68-6.27t-8.84-13.36a5.18,5.18,0,0,0-.83-1.1,1,1,0,0,0-.7-.31.64.64,0,0,0-.61.43,3.72,3.72,0,0,0-.18,1.35v3.05q0,4.11,0,6.49c0,1.59,0,2.59.09,3a3,3,0,0,0,.37,1.23,3.6,3.6,0,0,0,.91,1,6.76,6.76,0,0,0,.86.58,14.57,14.57,0,0,0,1.53.7,4.78,4.78,0,0,1,2,1.44,3.43,3.43,0,0,1,.67,2.11,3.3,3.3,0,0,1-.7,2.14A3.89,3.89,0,0,1,183,186.46Z"/><path class="cls-7" d="M241.2,187.14c-3,0-5.2,0-6.66-.13a24,24,0,0,1-3.61-.42,5.54,5.54,0,0,1-2.82-1.32,3.51,3.51,0,0,1-.85-2.54,3.58,3.58,0,0,1,.67-2.23,4.69,4.69,0,0,1,2.14-1.44,8.52,8.52,0,0,0,1.38-.58,9.15,9.15,0,0,0,1.13-.7,3.14,3.14,0,0,0,.85-1,4.22,4.22,0,0,0,.43-1.38,32.13,32.13,0,0,0,.28-4q.09-3,.09-7.28,0-4.09-.06-7.28c0-2.12-.08-3.51-.12-4.16a3.9,3.9,0,0,0-.25-1,2.82,2.82,0,0,0-.61-.85,2,2,0,0,0-.67-.46,3.36,3.36,0,0,0-.8-.22,2.76,2.76,0,0,0-.52-.06h-.58a2,2,0,0,0-1.77,1,3.48,3.48,0,0,0-.46.77c-.14.3-.36.8-.64,1.49s-.5,1.15-.65,1.47a5.73,5.73,0,0,1-.45.86,6.53,6.53,0,0,1-2,2.26,4.42,4.42,0,0,1-2.51.73,4.15,4.15,0,0,1-3.33-1.37,5.93,5.93,0,0,1-1.2-4,21.84,21.84,0,0,1,.86-6.24,13.91,13.91,0,0,1,2.45-4.83,6.33,6.33,0,0,1,1.77-1.53,4.15,4.15,0,0,1,2-.55,5.37,5.37,0,0,1,1.28.13,4.47,4.47,0,0,1,1.29.55,3.63,3.63,0,0,0,1.1.55,4.87,4.87,0,0,0,1.16.12h4.16c1.63,0,3.07-.06,4.31-.06h4.13c1.63,0,3.09,0,4.37,0s2.68,0,4.19,0c.82,0,1.42.06,1.81.06h1.19a3.42,3.42,0,0,0,.76-.09,4.52,4.52,0,0,0,1.07-.46,9.75,9.75,0,0,1,1.78-.67,6.45,6.45,0,0,1,1.65-.19,4.27,4.27,0,0,1,1.65.34,5.27,5.27,0,0,1,1.53,1,10,10,0,0,1,2.57,4.46,22.63,22.63,0,0,1,.92,6.73,6.71,6.71,0,0,1-1.29,4.31,4.08,4.08,0,0,1-3.36,1.62,4.49,4.49,0,0,1-2.66-.79,7.62,7.62,0,0,1-2.17-2.81,18.66,18.66,0,0,0-2.27-4,3.17,3.17,0,0,0-.39-.34,4.81,4.81,0,0,0-.59-.33,1.86,1.86,0,0,0-.55-.16,4.44,4.44,0,0,0-.55,0,7.78,7.78,0,0,0-1,.06,3.22,3.22,0,0,0-.73.19,1.09,1.09,0,0,0-.61.58,4.54,4.54,0,0,0-.31,1.13,22.77,22.77,0,0,0-.15,2.66q0,1.86,0,9.39,0,4.77.06,7.67a33.74,33.74,0,0,0,.18,3.58,5.07,5.07,0,0,0,.4,1.23,4.93,4.93,0,0,0,.89,1.16,4.56,4.56,0,0,0,.79.52,17.34,17.34,0,0,0,1.65.76,4.66,4.66,0,0,1,2.18,1.47,3.79,3.79,0,0,1,.52,2.08,3.28,3.28,0,0,1-.95,2.45,6,6,0,0,1-3,1.34,30.55,30.55,0,0,1-4.28.55C245.67,187.07,243.61,187.14,241.2,187.14Z"/></svg>