<?xml version="1.0" encoding="utf-8"?>
<!-- Generator: Adobe Illustrator 24.1.2, SVG Export Plug-In . SVG Version: 6.00 Build 0)  -->
<svg version="1.1" xmlns="http://www.w3.org/2000/svg" xmlns:xlink="http://www.w3.org/1999/xlink" x="0px" y="0px"
	 viewBox="0 0 300 300" style="enable-background:new 0 0 300 300;" xml:space="preserve">
<style type="text/css">
	.st0{fill:#EB3772;stroke:#00685C;stroke-width:0.5;stroke-miterlimit:10;}
	.st1{fill:#FFE41B;stroke:#00685C;stroke-width:0.5;stroke-miterlimit:10;}
	.st2{fill:#5EB34B;stroke:#00685C;stroke-width:0.5;stroke-miterlimit:10;}
	.st3{fill:#0198BD;stroke:#00685C;stroke-width:0.5;stroke-miterlimit:10;}
	.st4{fill:#FFF7E3;stroke:#00685C;stroke-width:0.5;stroke-miterlimit:10;}
	.st5{fill:#5EB34B;stroke:#00685C;stroke-width:1.1271;stroke-miterlimit:10;}
	.st6{fill:#FFF7E3;stroke:#00685C;stroke-width:1.1271;stroke-miterlimit:10;}
	.st7{fill:#FFE41B;stroke:#00685C;stroke-width:1.175;stroke-miterlimit:10;}
	.st8{fill:none;stroke:#00685C;stroke-width:1.1271;stroke-miterlimit:10;}
	.st9{fill:#00685C;}
	.st10{fill:#FFFFFF;stroke:#00685C;stroke-width:1.1271;stroke-miterlimit:10;}
	.st11{fill:#FFFFFF;stroke:#00685C;stroke-width:0.8333;stroke-miterlimit:10;}
	.st12{fill:#5EB34B;stroke:#00685C;stroke-width:1.1454;stroke-miterlimit:10;}
	.st13{fill:#FFE41B;stroke:#00685C;stroke-width:1.1271;stroke-miterlimit:10;}
	.st14{fill:#FFF7E3;stroke:#00685C;stroke-width:1.1271;stroke-linejoin:round;stroke-miterlimit:10;}
	.st15{fill:#00685C;stroke:#00685C;stroke-width:1.1271;stroke-miterlimit:10;}
	.st16{fill:#EB3772;stroke:#00685C;stroke-width:1.1271;stroke-miterlimit:10;}
	.st17{fill:#EB3772;}
	.st18{fill:none;stroke:#00685C;stroke-width:0.5;stroke-miterlimit:10;}
	.st19{fill:#FFFFFF;stroke:#00685C;stroke-width:0.3697;stroke-miterlimit:10;}
	.st20{fill:#00685C;stroke:#00685C;stroke-width:0.5;stroke-miterlimit:10;}
	.st21{fill:#FFFFFF;stroke:#00685C;stroke-width:0.5;stroke-miterlimit:10;}
	.st22{fill:#0198BD;}
	.st23{display:none;}
	.st24{display:inline;}
</style>
<g id="Layer_1">
	<g>
		<g>
			
				<rect x="27.1" y="28.3" transform="matrix(-1.836970e-16 1 -1 -1.836970e-16 300.691 0.6652)" class="st1" width="245.82" height="244.76"/>
			<line class="st18" x1="272.39" y1="110.3" x2="27.63" y2="110.3"/>
			<line class="st18" x1="272.39" y1="191.3" x2="27.63" y2="191.3"/>
			<line class="st18" x1="190.45" y1="29.3" x2="190.45" y2="272.3"/>
			<line class="st18" x1="109.22" y1="29.3" x2="109.22" y2="272.3"/>
		</g>
		
			<rect x="13.61" y="150.73" transform="matrix(-1.836970e-16 1 -1 -1.836970e-16 182.3326 123.0966)" class="st19" width="32.02" height="3.97"/>
		
			<rect x="254.4" y="150.73" transform="matrix(-1.836970e-16 1 -1 -1.836970e-16 423.1223 -117.6932)" class="st19" width="32.02" height="3.97"/>
		
			<rect x="134" y="27.81" transform="matrix(-1 -1.224647e-16 1.224647e-16 -1 300.0257 59.5868)" class="st19" width="32.02" height="3.97"/>
		
			<rect x="134" y="269.53" transform="matrix(-1 -1.224647e-16 1.224647e-16 -1 300.0257 543.0251)" class="st19" width="32.02" height="3.97"/>
		<polygon class="st19" points="32.16,45.45 32.16,32.34 45.27,32.34 45.27,27.81 27.63,27.81 27.63,32.34 27.63,32.34 27.63,45.45 
					"/>
		<polygon class="st19" points="254.75,32.34 267.86,32.34 267.86,45.45 272.39,45.45 272.39,27.81 267.86,27.81 267.86,27.81 
			254.75,27.81 		"/>
		<polygon class="st19" points="32.16,255.86 32.16,268.97 45.27,268.97 45.27,273.5 27.63,273.5 27.63,268.97 27.63,268.97 
			27.63,255.86 		"/>
		<polygon class="st19" points="254.75,268.97 267.86,268.97 267.86,255.86 272.39,255.86 272.39,273.5 267.86,273.5 267.86,273.5 
			254.75,273.5 		"/>
	</g>
	<g>
		
			<rect x="194.55" y="160.83" transform="matrix(0.7071 -0.7071 0.7071 0.7071 -82.3981 202.9948)" class="st1" width="18.58" height="80.27"/>
		<g>
			<path class="st1" d="M79.28,79.16c-26.5,26.5-26.5,69.47,0,95.98c26.5,26.5,69.47,26.5,95.98,0
				c26.51-26.51,26.51-69.48,0.01-95.98C148.76,52.65,105.79,52.65,79.28,79.16z M163.53,163.41c-20.2,20.2-52.95,20.2-73.16,0
				s-20.2-52.95,0-73.16c20.21-20.21,52.96-20.21,73.16-0.01S183.74,143.2,163.53,163.41z"/>
		</g>
	</g>
</g>
<g id="Layer_2">
	<g>
		<path class="st2" d="M68.16,145.41c-2.23,0-4-0.03-5.32-0.08c-1.32-0.05-2.23-0.15-2.74-0.3c-1.01-0.2-1.77-0.62-2.28-1.25
			c-0.51-0.63-0.76-1.46-0.76-2.47c0-0.96,0.32-1.81,0.95-2.55c0.63-0.73,1.48-1.28,2.55-1.63c0.51-0.15,0.94-0.29,1.29-0.42
			c0.35-0.13,0.61-0.21,0.76-0.27c0.46-0.2,0.77-0.47,0.95-0.8c0.18-0.33,0.27-0.77,0.27-1.33c0.05-1.72,0.09-4.22,0.11-7.49
			c0.03-3.27,0.04-6.27,0.04-9.01c0-6.08,0-10.27,0-12.58s-0.03-3.81-0.08-4.52c0-0.71-0.09-1.24-0.27-1.6
			c-0.18-0.35-0.47-0.61-0.87-0.76c-0.25-0.1-0.51-0.2-0.76-0.3c-0.25-0.1-0.58-0.2-0.99-0.3c-0.96-0.41-1.66-0.91-2.09-1.52
			c-0.43-0.61-0.65-1.37-0.65-2.28c0-0.96,0.24-1.77,0.72-2.43c0.48-0.66,1.15-1.09,2.01-1.29c1.11-0.3,2.41-0.52,3.88-0.65
			c1.47-0.13,3.12-0.19,4.94-0.19c3.19,0,5.32,0.03,6.38,0.08c1.06,0.05,2.05,0.15,2.96,0.3c1.62,0.2,2.88,0.75,3.76,1.63
			c0.89,0.89,1.86,2.57,2.93,5.05c0.51,1.27,1.91,4.78,4.22,10.53c2.3,5.75,4.09,10.15,5.36,13.19c0.1,0.3,0.29,0.51,0.57,0.61
			c0.28,0.1,0.52,0.05,0.72-0.15c0.66-1.42,1.36-3.01,2.09-4.79c0.73-1.77,1.99-4.84,3.76-9.2c1.62-4.1,2.65-6.67,3.08-7.71
			c0.43-1.04,0.8-1.91,1.1-2.62c1.06-2.38,2.1-3.99,3.12-4.83c1.01-0.84,2.3-1.41,3.88-1.71c1.01-0.15,2.15-0.27,3.42-0.34
			c1.27-0.08,2.86-0.11,4.79-0.11c1.52,0,2.94,0.03,4.26,0.08c1.32,0.05,2.43,0.1,3.34,0.15c1.11,0.1,1.95,0.48,2.51,1.14
			c0.56,0.66,0.84,1.55,0.84,2.66c0,0.91-0.23,1.7-0.68,2.36s-1.09,1.14-1.9,1.44c-0.3,0.1-0.6,0.22-0.87,0.34
			c-0.28,0.13-0.57,0.27-0.87,0.42c-0.46,0.25-0.77,0.57-0.95,0.95c-0.18,0.38-0.27,0.87-0.27,1.48c-0.05,1.42-0.09,3.89-0.11,7.41
			c-0.03,3.52-0.04,6.78-0.04,9.77c0,5.88,0,9.97,0,12.27s0.02,3.76,0.08,4.37c0,0.66,0.1,1.19,0.3,1.6
			c0.2,0.41,0.53,0.71,0.99,0.91c0.4,0.15,0.78,0.29,1.14,0.42c0.35,0.13,0.68,0.22,0.99,0.27c0.86,0.2,1.51,0.61,1.94,1.22
			c0.43,0.61,0.65,1.42,0.65,2.43c0,1.17-0.34,2.1-1.03,2.81c-0.68,0.71-1.63,1.14-2.85,1.29c-0.71,0.1-1.93,0.18-3.65,0.23
			c-1.72,0.05-3.83,0.08-6.31,0.08c-2.43,0-4.48-0.03-6.16-0.08c-1.67-0.05-2.86-0.13-3.57-0.23c-1.27-0.15-2.22-0.56-2.85-1.22
			c-0.63-0.66-0.95-1.54-0.95-2.66c0-0.96,0.23-1.77,0.68-2.43c0.46-0.66,1.14-1.14,2.05-1.44c0.56-0.15,1.03-0.29,1.41-0.42
			c0.38-0.13,0.65-0.24,0.8-0.34c0.46-0.2,0.8-0.48,1.03-0.84c0.23-0.35,0.34-0.81,0.34-1.37c0-2.43,0-4.86,0-7.3s0-4.86,0-7.3
			c0-1.57,0-3.15,0-4.75c0-1.6,0-3.18,0-4.75c-0.05-0.41-0.14-0.71-0.27-0.91c-0.13-0.2-0.32-0.3-0.57-0.3c-0.2,0-0.42,0.1-0.65,0.3
			c-0.23,0.2-0.39,0.48-0.49,0.84c-1.98,5.02-4.05,10.24-6.23,15.66c-2.18,5.42-4.26,10.51-6.23,15.28
			c-0.56,1.42-1.17,2.41-1.82,2.96c-0.66,0.56-1.52,0.84-2.58,0.84c-1.01,0-1.81-0.22-2.39-0.65c-0.58-0.43-1.1-1.18-1.56-2.24
			c-1.42-3.14-2.86-6.46-4.33-9.96c-1.47-3.5-4.36-10.56-8.66-21.2c-0.15-0.4-0.34-0.71-0.57-0.91c-0.23-0.2-0.47-0.3-0.72-0.3
			c-0.25,0-0.46,0.11-0.61,0.34c-0.15,0.23-0.25,0.57-0.3,1.03c-0.05,0.56-0.08,1.36-0.08,2.39c0,1.04,0,3.21,0,6.5
			c0,2.13,0,4.14,0,6.04c0,1.9,0.02,3.94,0.08,6.12c0,0.61,0,1.03,0,1.25c0,0.23,0,0.42,0,0.57c0.05,0.56,0.19,1.01,0.42,1.37
			c0.23,0.35,0.59,0.61,1.1,0.76c0.41,0.15,0.81,0.29,1.22,0.42c0.41,0.13,0.86,0.27,1.37,0.42c1.17,0.25,2.06,0.72,2.7,1.41
			c0.63,0.68,0.95,1.53,0.95,2.55c0,1.17-0.36,2.12-1.06,2.85c-0.71,0.74-1.7,1.2-2.96,1.41c-0.81,0.1-2.04,0.18-3.69,0.23
			C72.63,145.38,70.59,145.41,68.16,145.41z"/>
		<path class="st2" d="M150.62,145.41c-2.33,0-4.48-0.08-6.46-0.23c-1.98-0.15-3.37-0.33-4.18-0.53c-0.86-0.25-1.51-0.66-1.94-1.22
			c-0.43-0.56-0.65-1.29-0.65-2.2c0-0.81,0.19-1.49,0.57-2.05c0.38-0.56,0.92-0.96,1.63-1.22c0.1-0.05,0.42-0.16,0.95-0.34
			s0.97-0.32,1.33-0.42c0.61-0.25,1.05-0.62,1.33-1.1c0.28-0.48,0.44-1.1,0.49-1.86c0.05-1.52,0.09-3.9,0.11-7.14
			c0.03-3.24,0.04-6.43,0.04-9.58c0-2.84,0-5.67,0-8.51c0-2.84,0-5.67,0-8.51c-0.05-0.81-0.2-1.43-0.46-1.86
			c-0.25-0.43-0.66-0.75-1.22-0.95c-0.25-0.1-0.52-0.19-0.8-0.27c-0.28-0.08-0.77-0.19-1.48-0.34c-0.81-0.2-1.42-0.59-1.82-1.18
			c-0.41-0.58-0.61-1.35-0.61-2.32c0-1.42,0.63-2.48,1.9-3.19c1.27-0.71,3.14-1.06,5.62-1.06c1.06,0,2.23,0.01,3.5,0.04
			c1.27,0.03,3.14,0.09,5.62,0.19c2.33,0.05,4.05,0.09,5.17,0.11c1.11,0.03,2.13,0.04,3.04,0.04c1.92,0,3.86,0,5.81,0
			c1.95,0,3.89,0,5.81,0c0.56,0,1.09-0.06,1.6-0.19c0.51-0.13,1.17-0.37,1.98-0.72c0.76-0.35,1.37-0.58,1.82-0.68
			c0.46-0.1,0.94-0.15,1.44-0.15c1.06,0,1.99,0.25,2.77,0.76c0.79,0.51,1.41,1.27,1.86,2.28c0.81,1.93,1.48,3.99,2.01,6.19
			c0.53,2.2,0.87,4.5,1.03,6.88c0.15,1.67-0.17,3.02-0.95,4.03c-0.79,1.01-1.89,1.52-3.31,1.52c-1.22,0-2.27-0.33-3.15-0.99
			c-0.89-0.66-1.84-1.87-2.85-3.65c-1.01-1.72-1.75-2.91-2.2-3.57c-0.46-0.66-0.91-1.24-1.37-1.75c-0.46-0.51-1.01-0.86-1.67-1.06
			c-0.66-0.2-1.57-0.3-2.74-0.3c-2.94,0-5.03,0-6.27,0c-1.24,0-2.09,0.03-2.55,0.08c-0.81,0.05-1.42,0.3-1.82,0.76
			c-0.41,0.46-0.63,1.09-0.68,1.9c-0.05,0.61-0.09,1.72-0.11,3.34c-0.03,1.62-0.04,4-0.04,7.14c0,0.76,0.08,1.39,0.23,1.9
			c0.15,0.51,0.38,0.86,0.68,1.06c0.35,0.15,1.09,0.29,2.2,0.42c1.11,0.13,2.13,0.19,3.04,0.19c0.56,0,1-0.09,1.33-0.27
			c0.33-0.18,0.54-0.44,0.65-0.8c0.1-0.25,0.2-0.58,0.3-0.99c0.1-0.4,0.2-1.29,0.3-2.66c0.1-1.42,0.49-2.48,1.18-3.19
			c0.68-0.71,1.63-1.06,2.85-1.06c1.32,0,2.3,0.33,2.96,0.99c0.66,0.66,1.11,1.75,1.37,3.27c0.15,1.27,0.27,2.99,0.34,5.17
			c0.08,2.18,0.11,4.86,0.11,8.06c0,2.69-0.33,4.64-0.99,5.85c-0.66,1.22-1.7,1.82-3.12,1.82c-1.32,0-2.33-0.34-3.04-1.03
			c-0.71-0.68-1.17-1.79-1.37-3.31c-0.15-1.11-0.28-1.99-0.38-2.62c-0.1-0.63-0.2-1.03-0.3-1.18c-0.15-0.41-0.37-0.67-0.65-0.8
			c-0.28-0.13-0.67-0.19-1.18-0.19c-1.12,0-2.17,0.04-3.15,0.11s-1.69,0.17-2.09,0.27c-0.46,0.2-0.77,0.57-0.95,1.1
			c-0.18,0.53-0.27,1.33-0.27,2.39c0,1.17,0,2.34,0,3.53c0,1.19,0,2.37,0,3.53c0,0.96,0.13,1.72,0.38,2.28
			c0.25,0.56,0.63,0.91,1.14,1.06c0.3,0.1,0.62,0.19,0.95,0.27c0.33,0.08,0.82,0.17,1.48,0.27c0.41,0.1,0.72,0.17,0.95,0.19
			c0.23,0.03,0.42,0.06,0.57,0.11c0.91,0.25,1.58,0.68,2.01,1.29c0.43,0.61,0.65,1.42,0.65,2.43c0,1.17-0.37,2.1-1.1,2.81
			c-0.73,0.71-1.76,1.14-3.08,1.29c-1.32,0.1-2.88,0.18-4.67,0.23C156.3,145.38,153.81,145.41,150.62,145.41z"/>
		<path class="st2" d="M193.86,145.41c-1.98,0-3.57-0.03-4.79-0.08c-1.22-0.05-2.28-0.13-3.19-0.23c-1.22-0.15-2.13-0.53-2.74-1.14
			c-0.61-0.61-0.91-1.44-0.91-2.51c0-0.91,0.25-1.71,0.76-2.39c0.51-0.68,1.24-1.23,2.2-1.63c0.46-0.2,0.89-0.42,1.29-0.65
			c0.4-0.23,0.73-0.44,0.99-0.65c0.41-0.41,0.79-0.89,1.14-1.44c0.35-0.56,0.71-1.29,1.06-2.2c0.35-0.96,0.76-2,1.22-3.12
			s1.11-2.79,1.98-5.02c0.91-2.33,1.61-4.1,2.09-5.32c0.48-1.22,0.92-2.36,1.33-3.42c1.17-2.84,2.29-5.62,3.38-8.36
			c1.09-2.74,2.17-5.42,3.23-8.06c1.82-4.46,3.48-7.28,4.98-8.47c1.49-1.19,3.51-1.79,6.04-1.79c2.58,0,4.51,0.48,5.78,1.44
			c1.27,0.96,2.68,3.22,4.26,6.76c0.71,1.72,1.98,4.9,3.8,9.54s2.81,7.16,2.96,7.56c0.41,1.01,0.85,2.13,1.33,3.34
			c0.48,1.22,1.18,2.99,2.09,5.32c1.37,3.45,2.33,5.9,2.89,7.37s1.04,2.71,1.44,3.72c0.25,0.61,0.51,1.08,0.76,1.41
			c0.25,0.33,0.58,0.6,0.99,0.8c0.3,0.15,0.62,0.32,0.95,0.49c0.33,0.18,0.77,0.37,1.33,0.57c1.01,0.41,1.71,0.89,2.09,1.44
			c0.38,0.56,0.57,1.32,0.57,2.28c0,1.17-0.36,2.09-1.06,2.77c-0.71,0.68-1.75,1.1-3.12,1.25c-1.93,0.15-3.79,0.25-5.59,0.3
			c-1.8,0.05-3.71,0.08-5.74,0.08c-2.74,0-4.98-0.03-6.73-0.08c-1.75-0.05-3.21-0.15-4.37-0.3c-1.01-0.15-1.8-0.54-2.36-1.18
			c-0.56-0.63-0.84-1.43-0.84-2.39c0-0.96,0.25-1.77,0.76-2.43c0.51-0.66,1.22-1.09,2.13-1.29c0.25-0.05,0.51-0.1,0.76-0.15
			c0.25-0.05,0.63-0.1,1.14-0.15c0.25-0.05,0.46-0.09,0.61-0.11c0.15-0.02,0.28-0.04,0.38-0.04c0.61-0.2,1.04-0.51,1.29-0.91
			c0.25-0.4,0.3-0.89,0.15-1.44c-0.1-0.61-0.27-1.23-0.49-1.86c-0.23-0.63-0.7-1.84-1.41-3.61c-0.25-0.51-0.58-0.86-0.99-1.06
			c-0.41-0.2-0.99-0.3-1.75-0.3c-1.17,0-2.33,0-3.5,0c-1.17,0-2.33,0-3.5,0c-1.12,0-2.24,0-3.38,0c-1.14,0-2.29,0-3.46,0
			c-0.66,0-1.17,0.11-1.52,0.34c-0.35,0.23-0.63,0.62-0.84,1.18c-0.46,1.06-0.82,2-1.1,2.81c-0.28,0.81-0.52,1.65-0.72,2.51
			c-0.1,0.46-0.05,0.85,0.15,1.18c0.2,0.33,0.51,0.54,0.91,0.65c0.2,0.05,0.42,0.09,0.65,0.11c0.23,0.03,0.54,0.09,0.95,0.19
			c0.56,0.05,0.96,0.1,1.22,0.15c0.25,0.05,0.48,0.1,0.68,0.15c0.96,0.2,1.71,0.63,2.24,1.29c0.53,0.66,0.8,1.47,0.8,2.43
			c0,1.06-0.3,1.94-0.91,2.62c-0.61,0.68-1.44,1.1-2.51,1.25c-1.01,0.15-2.38,0.27-4.1,0.34
			C198.29,145.37,196.24,145.41,193.86,145.41z M205.41,117.75c-0.3,0.86-0.32,1.48-0.04,1.86c0.28,0.38,0.85,0.57,1.71,0.57
			c0.66,0,1.32,0,1.98,0c0.66,0,1.32,0,1.98,0c0.71,0,1.43,0,2.17,0c0.73,0,1.46,0,2.17,0c0.76,0,1.24-0.21,1.44-0.65
			c0.2-0.43,0.15-1.05-0.15-1.86c-0.56-1.57-1.19-3.25-1.9-5.05c-0.71-1.8-1.44-3.71-2.2-5.74c-0.15-0.41-0.35-0.72-0.61-0.95
			c-0.25-0.23-0.56-0.34-0.91-0.34c-0.36,0-0.65,0.11-0.87,0.34c-0.23,0.23-0.44,0.57-0.65,1.03c-0.66,1.57-1.33,3.28-2.01,5.13
			C206.82,113.93,206.12,115.82,205.41,117.75z"/>
	</g>
	<g>
		<path class="st2" d="M163.02,220.63c-1.13,0.17-2.92,0.3-5.35,0.38c-2.44,0.08-5.13,0.13-8.08,0.13c-2.61,0-5.04-0.04-7.31-0.13
			c-2.27-0.08-3.88-0.18-4.85-0.3c-1.42-0.17-2.49-0.61-3.23-1.32c-0.74-0.71-1.11-1.63-1.11-2.76c0-1.13,0.33-2.07,0.98-2.81
			c0.65-0.74,1.69-1.33,3.1-1.79c0.17-0.06,0.35-0.11,0.55-0.17c0.2-0.06,0.55-0.11,1.06-0.17c0.51-0.17,0.91-0.28,1.19-0.34
			c0.28-0.06,0.54-0.11,0.76-0.17c0.45-0.23,0.79-0.54,1.02-0.93s0.37-0.88,0.43-1.45c0.06-1.13,0.08-3,0.08-5.61
			c0-2.61,0-7.08,0-13.43c0-2.15,0-4.29,0-6.42s0-4.24,0-6.33c-0.06-0.62-0.2-1.12-0.42-1.49c-0.23-0.37-0.57-0.64-1.02-0.81
			c-0.34-0.11-0.74-0.23-1.19-0.34c-0.45-0.11-1.22-0.23-2.29-0.34c-1.7-0.28-2.89-0.75-3.57-1.4c-0.68-0.65-1.02-1.51-1.02-2.59
			c0-0.96,0.24-1.81,0.72-2.55c0.48-0.74,1.26-1.42,2.34-2.04c0.51-0.34,1.1-0.68,1.79-1.02c0.68-0.34,2.61-1.25,5.78-2.72
			c2.21-1.08,4.11-1.87,5.7-2.38c1.59-0.51,3.03-0.85,4.33-1.02c2.27-0.45,4.04-0.21,5.31,0.72s1.91,2.34,1.91,4.21
			c0,0.45-0.04,0.95-0.13,1.49c-0.08,0.54-0.21,1.37-0.38,2.51c-0.23,1.19-0.37,2.07-0.42,2.64c-0.06,0.57-0.08,1.1-0.08,1.61
			c0,0.51,0,1.19,0,2.04c0,0.85,0,2.38,0,4.59c-0.06,3.23-0.08,5.67-0.08,7.31c0,1.64,0,3.09,0,4.33c0,3.06,0,6.13,0,9.22
			c0,3.09,0,6.16,0,9.22c0.06,0.68,0.2,1.23,0.42,1.66c0.23,0.42,0.59,0.72,1.11,0.89c0.57,0.17,1.12,0.33,1.66,0.47
			c0.54,0.14,1.15,0.3,1.83,0.47c1.3,0.34,2.25,0.85,2.85,1.53s0.89,1.56,0.89,2.63c0,1.25-0.47,2.29-1.4,3.15
			C165.96,219.87,164.67,220.41,163.02,220.63z"/>
	</g>
</g>
<g id="Layer_2_copy" class="st23">
</g>
</svg>
