<svg id="Layer_1" data-name="Layer 1" xmlns="http://www.w3.org/2000/svg" width="4.17in" height="4.17in" viewBox="0 0 300 300"><g id="Layer_1-2" data-name="Layer 1"><path d="M112.45,183.72c0-.1,0-.2,0-.3v.3Z" fill="#fff7e3" stroke="#00685c" stroke-miterlimit="10" stroke-width="0.5"/><path d="M129.89,136q1.8-2.33,3.81-4.51C132.38,132.93,131.11,134.44,129.89,136Z" fill="#fff7e3" stroke="#00685c" stroke-miterlimit="10" stroke-width="0.5"/><path d="M133.7,131.48c.43-.49.87-1,1.35-1.44C134.59,130.51,134.15,131,133.7,131.48Z" fill="#fff7e3" stroke="#00685c" stroke-miterlimit="10" stroke-width="0.5"/><path d="M136.42,128.63q2.09-2.11,4.32-4Q138.51,126.55,136.42,128.63Z" fill="#fff7e3" stroke="#00685c" stroke-miterlimit="10" stroke-width="0.5"/><path d="M146.93,119.74c1.07-.77,2.17-1.51,3.28-2.21C149.1,118.24,148,119,146.93,119.74Z" fill="#fff7e3" stroke="#00685c" stroke-miterlimit="10" stroke-width="0.5"/><path d="M189.15,175.89q.34,2.56.51,5.19C189.54,179.33,189.37,177.61,189.15,175.89Z" fill="#fff7e3" stroke="#00685c" stroke-miterlimit="10" stroke-width="0.5"/><path d="M233.12,111.4c0,1,0,1.93-.06,2.89A82,82,0,0,0,151.13,117a0,0,0,0,0,0,0,0,0,0,0,0,0,0,82,82,0,0,0-81.93-2.66c0-1-.06-1.92-.06-2.89a82,82,0,0,1,164,0Z" fill="#eb3772" stroke="#00685c" stroke-miterlimit="10" stroke-width="0.5"/><path d="M151.13,117c-.31.19-.62.38-.92.58.3-.2.6-.4.9-.58a0,0,0,0,1,0,0A0,0,0,0,1,151.11,117Z" fill="#fff7e3" stroke="#00685c" stroke-miterlimit="10" stroke-width="0.5"/><path d="M151.11,117c-.3.18-.6.38-.9.58-1.11.7-2.21,1.44-3.28,2.21-.53.37-1.06.76-1.59,1.16s-1.05.78-1.56,1.2-1,.81-1.54,1.24-1,.83-1.5,1.27q-2.24,1.9-4.32,4c-.47.45-.93.93-1.37,1.41s-.92,1-1.35,1.44q-2,2.19-3.81,4.51-.63.76-1.2,1.56c-.4.52-.79,1-1.16,1.59l-.82,1.17c-.54.78-1.06,1.58-1.57,2.38-.26.41-.5.81-.75,1.22a2.09,2.09,0,0,0-.21.34,76.92,76.92,0,0,0-3.69,6.81q-.87,1.8-1.65,3.63c-.2.46-.39.92-.57,1.39-.37.92-.73,1.86-1.07,2.8-.17.48-.33,1-.49,1.43q-.12.31-.21.63c-.35,1.05-.67,2.11-1,3.18a.25.25,0,0,1,0,.07c-.15.54-.3,1.08-.44,1.62-.2.75-.38,1.51-.56,2.28s-.3,1.33-.43,2-.24,1.18-.34,1.78-.21,1.14-.3,1.71c-.05.29-.09.58-.14.87a.88.88,0,0,1,0,.16l-.21,1.56c0,.39-.1.78-.14,1.17l-.12,1.14c-.06.63-.12,1.26-.16,1.9s-.09,1.26-.12,1.89a1.93,1.93,0,0,0,0,.24c0,.3,0,.61-.05.91,0,.1,0,.2,0,.3a81.94,81.94,0,0,1-43.27-69.43A82,82,0,0,1,151.11,117Z" fill="#fff7e3" stroke="#00685c" stroke-miterlimit="10" stroke-width="0.5"/><path d="M133.7,131.48c-1.32,1.45-2.59,3-3.81,4.51Q131.69,133.67,133.7,131.48Z" fill="#fff7e3" stroke="#00685c" stroke-miterlimit="10" stroke-width="0.5"/><path d="M135.05,130c-.46.47-.9,1-1.35,1.44C134.13,131,134.57,130.51,135.05,130Z" fill="#fff7e3" stroke="#00685c" stroke-miterlimit="10" stroke-width="0.5"/><path d="M140.74,124.61q-2.24,1.94-4.32,4Q138.51,126.52,140.74,124.61Z" fill="#fff7e3" stroke="#00685c" stroke-miterlimit="10" stroke-width="0.5"/><path d="M150.21,117.53c-1.11.71-2.2,1.45-3.28,2.21C148,119,149.1,118.23,150.21,117.53Z" fill="#fff7e3" stroke="#00685c" stroke-miterlimit="10" stroke-width="0.5"/><path d="M151.13,117c-.31.19-.62.38-.92.58.3-.2.6-.4.9-.58Z" fill="#fff7e3" stroke="#00685c" stroke-miterlimit="10" stroke-width="0.5"/><path d="M189.66,181.08c-.12-1.75-.29-3.47-.51-5.19Q189.5,178.46,189.66,181.08Z" fill="#fff7e3" stroke="#00685c" stroke-miterlimit="10" stroke-width="0.5"/><path d="M151.13,256.27a82,82,0,1,1-81.95-142,81.94,81.94,0,0,0,43.27,69.43h0q-.06,1.44-.06,2.88A81.92,81.92,0,0,0,151.13,256.27Z" fill="#5eb34b" stroke="#00685c" stroke-miterlimit="10" stroke-width="0.5"/><path d="M112.46,183.42v.31h0C112.45,183.62,112.46,183.52,112.46,183.42Z" fill="#fff7e3" stroke="#00685c" stroke-miterlimit="10" stroke-width="0.5"/><path d="M189.79,183.72h0c-.15.09-.31.17-.47.25Z" fill="#fff7e3" stroke="#00685c" stroke-miterlimit="10" stroke-width="0.5"/><path d="M233.06,114.29a81.94,81.94,0,0,1-43.27,69.43c0-.87-.07-1.73-.13-2.59v0q-.16-2.62-.51-5.19c-.06-.44-.12-.89-.19-1.33s-.12-.82-.19-1.23c-.12-.78-.26-1.56-.41-2.34,0-.13-.05-.25-.08-.37-.07-.36-.14-.72-.22-1.08l-.27-1.25-.3-1.25c-.1-.41-.2-.82-.31-1.23l-.33-1.23c-.11-.4-.23-.8-.34-1.19-.25-.82-.5-1.64-.77-2.45-.12-.37-.24-.73-.37-1.1s-.33-1-.5-1.42-.42-1.13-.64-1.69-.55-1.36-.83-2c-.22-.52-.45-1.05-.68-1.57a83.48,83.48,0,0,0-4.4-8.45c-.25-.43-.5-.85-.77-1.26s-.4-.65-.6-1l-.1-.14c-.59-.94-1.21-1.86-1.85-2.77-.11-.17-.23-.33-.34-.49l-.72-1-.6-.81c-.28-.37-.57-.75-.86-1.11a2.88,2.88,0,0,0-.27-.34c-.35-.46-.72-.91-1.09-1.36q-1-1.17-2-2.31c-.63-.72-1.28-1.42-2-2.12-.41-.43-.82-.86-1.24-1.28-.09-.1-.19-.19-.28-.28-.41-.4-.82-.81-1.24-1.2-1-.93-1.94-1.82-2.95-2.68-.4-.36-.81-.7-1.22-1-.12-.11-.25-.21-.38-.31-.45-.37-.9-.74-1.36-1.1l-.13-.1L157,120.94c-1.07-.81-2.16-1.58-3.27-2.32-.54-.37-1.09-.73-1.65-1.09l-.91-.58a82,82,0,0,1,81.93-2.66Z" fill="#fff7e3" stroke="#00685c" stroke-miterlimit="10" stroke-width="0.5"/><path d="M189.66,181.08c-.12-1.75-.29-3.47-.51-5.19Q189.5,178.46,189.66,181.08Z" fill="#fff7e3" stroke="#00685c" stroke-miterlimit="10" stroke-width="0.5"/><path d="M189.85,186.61a82,82,0,0,1-38.72,69.66,81.92,81.92,0,0,1-38.73-69.66q0-1.44.06-2.88.78.42,1.56.81l1.48.74.22.1c.48.24,1,.46,1.46.69l.85.37q.59.27,1.17.51c.61.27,1.23.52,1.86.76l1.55.59a4.24,4.24,0,0,0,.5.18c.44.17.88.32,1.32.47.23.09.47.17.71.24.53.18,1.06.36,1.6.52,2,.62,4,1.17,6.06,1.63q1.89.43,3.81.78c.67.12,1.35.23,2,.33s1.36.2,2.05.29l.13,0,1.76.2.33,0,1.74.16h.17c.7.05,1.39.1,2.09.13s1.4.07,2.1.08,1.41,0,2.12,0,1.41,0,2.12,0,1.4,0,2.1-.08,1.39-.08,2.09-.13h.17l1.74-.16.33,0,1.76-.2.13,0c.69-.09,1.37-.18,2.05-.29s1.35-.21,2-.33q1.92-.35,3.81-.78,3.08-.69,6.06-1.63c.54-.16,1.07-.34,1.6-.52.24-.07.47-.15.71-.24.47-.15.93-.32,1.39-.49a.93.93,0,0,0,.26-.1c.58-.2,1.15-.42,1.72-.65s1.24-.49,1.86-.76q.59-.24,1.17-.51c.29-.11.57-.24.85-.37.49-.23,1-.45,1.46-.69l.22-.1,1.48-.74c.22-.1.43-.21.64-.33l.46-.24.47-.24Q189.85,185.17,189.85,186.61Z" fill="#fff7e3" stroke="#00685c" stroke-miterlimit="10" stroke-width="0.5"/><path d="M276.4,186.61a82,82,0,0,1-125.27,69.66,82,82,0,0,0,38.72-69.66q0-1.44-.06-2.88h0a81.94,81.94,0,0,0,43.27-69.43A82,82,0,0,1,276.4,186.61Z" fill="#ffe41b" stroke="#00685c" stroke-miterlimit="10" stroke-width="0.5"/><path d="M189.79,183.72h0c-.15.09-.31.17-.47.25Z" fill="#fff7e3" stroke="#00685c" stroke-miterlimit="10" stroke-width="0.5"/><path d="M189.79,183.72l-.47.25-.46.24c-.21.12-.42.23-.64.33l-1.48.74-.22.1c-.48.24-1,.46-1.46.69-.28.13-.56.26-.85.37s-.78.35-1.17.51c-.62.27-1.24.52-1.86.76s-1.14.45-1.72.65a.93.93,0,0,1-.26.1c-.46.17-.92.34-1.39.49-.24.09-.47.17-.71.24-.53.18-1.06.36-1.6.52q-3,.94-6.06,1.63-1.89.43-3.81.78c-.67.12-1.35.23-2,.33s-1.36.2-2.05.29l-.13,0-1.76.2-.33,0-1.74.16h-.17c-.7.05-1.39.1-2.09.13s-1.4.07-2.1.08-1.41,0-2.12,0-1.41,0-2.12,0-1.4,0-2.1-.08-1.39-.08-2.09-.13h-.17L142.9,193l-.33,0-1.76-.2-.13,0c-.69-.09-1.37-.18-2.05-.29s-1.35-.21-2-.33q-1.92-.35-3.81-.78c-2.05-.46-4.07-1-6.06-1.63-.54-.16-1.07-.34-1.6-.52-.24-.07-.48-.15-.71-.24-.44-.15-.88-.3-1.32-.47a4.24,4.24,0,0,1-.5-.18l-1.55-.59c-.63-.24-1.25-.49-1.86-.76q-.58-.24-1.17-.51l-.85-.37c-.49-.23-1-.45-1.46-.69l-.22-.1-1.48-.74q-.78-.39-1.56-.81v-.31c0-.3,0-.61.05-.91a1.93,1.93,0,0,1,0-.24q0-.95.12-1.89c0-.64.1-1.27.16-1.9l.12-1.14c0-.39.09-.78.14-1.17l.21-1.56a.88.88,0,0,0,0-.16c0-.29.09-.58.14-.87q.13-.86.3-1.71c.1-.6.22-1.19.34-1.78s.28-1.34.43-2,.36-1.53.56-2.28c.14-.54.29-1.08.44-1.62a.25.25,0,0,0,0-.07c.31-1.07.63-2.13,1-3.18q.09-.31.21-.63c.16-.48.32-.95.49-1.43.35-.94.7-1.88,1.07-2.8.18-.47.37-.93.57-1.39q.78-1.83,1.65-3.63a76.92,76.92,0,0,1,3.69-6.81,2.09,2.09,0,0,1,.21-.34c.25-.41.49-.81.75-1.22.51-.8,1-1.6,1.57-2.38l.82-1.17,1.16-1.59,1.2-1.56c1.22-1.55,2.49-3.06,3.81-4.51.45-.49.89-1,1.35-1.44s.91-.95,1.37-1.41q2.09-2.09,4.32-4c.5-.43,1-.86,1.5-1.27l1.54-1.24,1.56-1.2c.53-.4,1.06-.79,1.59-1.16,1.08-.76,2.17-1.5,3.28-2.21.3-.2.61-.39.92-.58l.91.58c.56.36,1.11.72,1.65,1.09,1.11.74,2.2,1.51,3.27,2.32l1.42,1.09.13.1c.46.36.91.73,1.36,1.1.13.1.26.2.38.31.41.34.82.68,1.22,1,1,.86,2,1.75,2.95,2.68.42.39.83.8,1.24,1.2.09.09.19.18.28.28.42.42.83.85,1.24,1.28.68.7,1.33,1.4,2,2.12s1.33,1.53,2,2.31c.37.45.74.9,1.09,1.36a2.88,2.88,0,0,1,.27.34c.29.36.58.74.86,1.11l.6.81.72,1c.11.16.23.32.34.49.64.91,1.26,1.83,1.85,2.77l.1.14c.2.31.41.64.6,1s.52.83.77,1.26a83.48,83.48,0,0,1,4.4,8.45c.23.52.46,1,.68,1.57.28.68.56,1.36.83,2s.44,1.12.64,1.69.34,1,.5,1.42.25.73.37,1.1c.27.81.52,1.63.77,2.45.11.39.23.79.34,1.19l.33,1.23c.11.41.21.82.31,1.23l.3,1.25.27,1.25c.08.36.15.72.22,1.08,0,.12.05.24.08.37.14.77.28,1.56.41,2.34.07.41.13.82.19,1.23s.13.89.19,1.33c.22,1.72.39,3.44.51,5.19v0C189.72,182,189.76,182.85,189.79,183.72Z" fill="#fff" stroke="#00685c" stroke-miterlimit="10" stroke-width="0.37"/><path d="M112.46,183.42v.31h0C112.45,183.62,112.46,183.52,112.46,183.42Z" fill="#fff7e3" stroke="#00685c" stroke-miterlimit="10" stroke-width="0.5"/><path d="M129.89,136q1.8-2.33,3.81-4.51C132.38,132.93,131.11,134.44,129.89,136Z" fill="#fff7e3" stroke="#00685c" stroke-miterlimit="10" stroke-width="0.5"/><path d="M133.7,131.48c.43-.49.87-1,1.35-1.44C134.59,130.51,134.15,131,133.7,131.48Z" fill="#fff7e3" stroke="#00685c" stroke-miterlimit="10" stroke-width="0.5"/><path d="M136.42,128.63q2.09-2.11,4.32-4Q138.51,126.55,136.42,128.63Z" fill="#fff7e3" stroke="#00685c" stroke-miterlimit="10" stroke-width="0.5"/><path d="M146.93,119.74c1.07-.77,2.17-1.51,3.28-2.21C149.1,118.24,148,119,146.93,119.74Z" fill="#fff7e3" stroke="#00685c" stroke-miterlimit="10" stroke-width="0.5"/><path d="M151.13,117c-.31.19-.62.38-.92.58.3-.2.6-.4.9-.58a0,0,0,0,1,0,0A0,0,0,0,1,151.11,117Z" fill="#fff7e3" stroke="#00685c" stroke-miterlimit="10" stroke-width="0.5"/><path d="M189.79,183.72h0c-.15.09-.31.17-.47.25Z" fill="#fff7e3" stroke="#00685c" stroke-miterlimit="10" stroke-width="0.5"/></g><g id="Layer_2" data-name="Layer 2"><path d="M67.36,216.46c-2.23,0-4,0-5.32-.08a12.91,12.91,0,0,1-2.74-.3A3.75,3.75,0,0,1,57,214.83a4.12,4.12,0,0,1,.19-5,5.58,5.58,0,0,1,2.55-1.63q.77-.23,1.29-.42l.76-.27a1.88,1.88,0,0,0,.95-.8,2.78,2.78,0,0,0,.27-1.33q.07-2.58.11-7.49c0-3.27,0-6.27,0-9V176.28c0-2.3,0-3.81-.08-4.52a3.69,3.69,0,0,0-.27-1.6,1.56,1.56,0,0,0-.87-.76l-.76-.3a7.6,7.6,0,0,0-1-.3,4.68,4.68,0,0,1-2.09-1.52,3.86,3.86,0,0,1-.65-2.28,4,4,0,0,1,.72-2.43,3.32,3.32,0,0,1,2-1.29,22.67,22.67,0,0,1,3.88-.65c1.47-.13,3.12-.19,4.94-.19q4.78,0,6.38.08a25.73,25.73,0,0,1,3,.3,6.24,6.24,0,0,1,3.76,1.63,17.19,17.19,0,0,1,2.93,5.05q.77,1.91,4.22,10.53t5.36,13.19a.92.92,0,0,0,.57.61.64.64,0,0,0,.72-.15c.66-1.42,1.36-3,2.09-4.79s2-4.84,3.76-9.2q2.43-6.15,3.08-7.71c.43-1,.8-1.91,1.1-2.62a13.5,13.5,0,0,1,3.12-4.83,8.39,8.39,0,0,1,3.88-1.71c1-.15,2.15-.27,3.42-.34s2.86-.11,4.79-.11c1.52,0,2.94,0,4.26.08l3.34.15a3.56,3.56,0,0,1,2.51,1.14,4,4,0,0,1,.84,2.66,4.1,4.1,0,0,1-.68,2.36,3.89,3.89,0,0,1-1.9,1.44c-.3.1-.6.22-.87.34l-.87.42a2.12,2.12,0,0,0-1,.95,3.46,3.46,0,0,0-.27,1.48q-.07,2.13-.11,7.41t0,9.77v12.27c0,2.31,0,3.76.08,4.37a3.65,3.65,0,0,0,.3,1.6,1.88,1.88,0,0,0,1,.91l1.14.42a5.27,5.27,0,0,0,1,.27,3.14,3.14,0,0,1,1.94,1.22,4.14,4.14,0,0,1,.65,2.43,3.85,3.85,0,0,1-1,2.81,4.57,4.57,0,0,1-2.85,1.29c-.71.1-1.93.18-3.65.23s-3.83.08-6.31.08-4.48,0-6.16-.08-2.86-.13-3.57-.23a4.54,4.54,0,0,1-2.85-1.22,3.7,3.7,0,0,1-1-2.66,4.21,4.21,0,0,1,.68-2.43,3.88,3.88,0,0,1,2.05-1.44q.84-.22,1.41-.42a3.9,3.9,0,0,0,.8-.34,2.23,2.23,0,0,0,1-.84,2.46,2.46,0,0,0,.34-1.37v-24.1a2.23,2.23,0,0,0-.27-.91.64.64,0,0,0-.57-.3,1,1,0,0,0-.65.3,1.67,1.67,0,0,0-.49.84q-3,7.53-6.23,15.66T97,212.21a7.49,7.49,0,0,1-1.82,3,3.85,3.85,0,0,1-2.58.84,3.94,3.94,0,0,1-2.39-.65,5.42,5.42,0,0,1-1.56-2.24q-2.13-4.71-4.33-10T75.67,182a2.16,2.16,0,0,0-.57-.91,1.09,1.09,0,0,0-.72-.3.7.7,0,0,0-.61.34,2.38,2.38,0,0,0-.3,1c0,.56-.08,1.36-.08,2.39v12.54c0,1.9,0,3.94.08,6.12V205a3,3,0,0,0,.42,1.37,1.85,1.85,0,0,0,1.1.76c.41.15.81.29,1.22.42l1.37.42a5,5,0,0,1,2.7,1.41,3.61,3.61,0,0,1,1,2.55,4,4,0,0,1-1.06,2.85,5.13,5.13,0,0,1-3,1.41c-.81.1-2,.18-3.69.23S69.79,216.46,67.36,216.46Z" fill="#0198bd" stroke="#00685c" stroke-miterlimit="10" stroke-width="0.5"/><path d="M149.82,216.46q-3.49,0-6.46-.23a28.84,28.84,0,0,1-4.18-.53,3.64,3.64,0,0,1-1.94-1.22,3.51,3.51,0,0,1-.65-2.2,3.56,3.56,0,0,1,.57-2.05,3.23,3.23,0,0,1,1.63-1.22c.1,0,.42-.16,1-.34s1-.32,1.33-.42a2.63,2.63,0,0,0,1.33-1.1,4.23,4.23,0,0,0,.49-1.86q.08-2.28.11-7.14t0-9.58v-17a4.14,4.14,0,0,0-.46-1.86,2.21,2.21,0,0,0-1.22-.95,8.33,8.33,0,0,0-.8-.27c-.28-.08-.77-.19-1.48-.34a3,3,0,0,1-1.82-1.18,4,4,0,0,1-.61-2.32,3.43,3.43,0,0,1,1.9-3.19,11.78,11.78,0,0,1,5.62-1.06c1.06,0,2.23,0,3.5,0s3.14.09,5.62.19l5.17.11c1.11,0,2.13,0,3,0h11.62a6.43,6.43,0,0,0,1.6-.19,12.83,12.83,0,0,0,2-.72,9.82,9.82,0,0,1,1.82-.68A6.69,6.69,0,0,1,180,159a5,5,0,0,1,2.77.76,5.08,5.08,0,0,1,1.86,2.28,40.42,40.42,0,0,1,2,6.19,41.16,41.16,0,0,1,1,6.88,5.59,5.59,0,0,1-.95,4,4,4,0,0,1-3.31,1.52,5.1,5.1,0,0,1-3.15-1,11.85,11.85,0,0,1-2.85-3.65c-1-1.72-1.75-2.91-2.2-3.57a17.8,17.8,0,0,0-1.37-1.75,3.6,3.6,0,0,0-1.67-1.06,9.83,9.83,0,0,0-2.74-.3h-6.27c-1.24,0-2.09,0-2.55.08a2.5,2.5,0,0,0-1.82.76,3,3,0,0,0-.68,1.9c0,.61-.09,1.72-.11,3.34s0,4,0,7.14a6.8,6.8,0,0,0,.23,1.9,1.84,1.84,0,0,0,.68,1.06,9.71,9.71,0,0,0,2.2.42,26.32,26.32,0,0,0,3,.19,2.78,2.78,0,0,0,1.33-.27,1.3,1.3,0,0,0,.65-.8,7.6,7.6,0,0,0,.3-1,20.64,20.64,0,0,0,.3-2.66,4.93,4.93,0,0,1,1.18-3.19,3.76,3.76,0,0,1,2.85-1.06,4,4,0,0,1,3,1,6,6,0,0,1,1.37,3.27c.15,1.27.27,3,.34,5.17s.11,4.86.11,8.06a12.87,12.87,0,0,1-1,5.85,3.31,3.31,0,0,1-3.12,1.82,4.18,4.18,0,0,1-3-1,5.47,5.47,0,0,1-1.37-3.31c-.15-1.11-.28-2-.38-2.62a3.86,3.86,0,0,0-.3-1.18,1.32,1.32,0,0,0-.65-.8,3,3,0,0,0-1.18-.19c-1.12,0-2.17,0-3.15.11a14.87,14.87,0,0,0-2.09.27,1.73,1.73,0,0,0-.95,1.1,7.94,7.94,0,0,0-.27,2.39v7.06a5.69,5.69,0,0,0,.38,2.28,1.78,1.78,0,0,0,1.14,1.06c.3.1.62.19.95.27s.82.17,1.48.27a7.1,7.1,0,0,0,1,.19,3.2,3.2,0,0,1,.57.11,3.47,3.47,0,0,1,2,1.29,4.14,4.14,0,0,1,.65,2.43,3.74,3.74,0,0,1-1.1,2.81,5.11,5.11,0,0,1-3.08,1.29c-1.32.1-2.88.18-4.67.23S153,216.46,149.82,216.46Z" fill="#0198bd" stroke="#00685c" stroke-miterlimit="10" stroke-width="0.5"/><path d="M193.06,216.46c-2,0-3.57,0-4.79-.08s-2.28-.13-3.19-.23a4.54,4.54,0,0,1-2.74-1.14,3.38,3.38,0,0,1-.91-2.51,3.88,3.88,0,0,1,.76-2.39,5.15,5.15,0,0,1,2.2-1.63,12.94,12.94,0,0,0,1.29-.65,7.74,7.74,0,0,0,1-.65,8,8,0,0,0,1.14-1.44,13,13,0,0,0,1.06-2.2c.35-1,.76-2,1.22-3.12s1.11-2.79,2-5,1.61-4.1,2.09-5.32.92-2.36,1.33-3.42c1.17-2.84,2.29-5.62,3.38-8.36s2.17-5.42,3.23-8.06q2.73-6.69,5-8.47a9.43,9.43,0,0,1,6-1.79q3.87,0,5.78,1.44c1.27,1,2.68,3.22,4.26,6.76q1.07,2.58,3.8,9.54t3,7.56c.41,1,.85,2.13,1.33,3.34s1.18,3,2.09,5.32c1.37,3.45,2.33,5.9,2.89,7.37s1,2.71,1.44,3.72a6.38,6.38,0,0,0,.76,1.41,2.71,2.71,0,0,0,1,.8l1,.49a9.55,9.55,0,0,0,1.33.57,4.56,4.56,0,0,1,2.09,1.44,4,4,0,0,1,.57,2.28,3.68,3.68,0,0,1-1.06,2.77,5.2,5.2,0,0,1-3.12,1.25c-1.93.15-3.79.25-5.59.3s-3.71.08-5.74.08q-4.11,0-6.73-.08c-1.75-.05-3.21-.15-4.37-.3a3.74,3.74,0,0,1-2.36-1.18,3.47,3.47,0,0,1-.84-2.39,3.85,3.85,0,0,1,.76-2.43,3.55,3.55,0,0,1,2.13-1.29l.76-.15q.38-.07,1.14-.15l.61-.11a3.29,3.29,0,0,1,.38,0,2.29,2.29,0,0,0,1.29-.91,1.77,1.77,0,0,0,.15-1.44,11.13,11.13,0,0,0-.49-1.86c-.23-.63-.7-1.84-1.41-3.61a2.19,2.19,0,0,0-1-1.06,4.08,4.08,0,0,0-1.75-.3H203.29a2.78,2.78,0,0,0-1.52.34,2.33,2.33,0,0,0-.84,1.18c-.46,1.06-.82,2-1.1,2.81a25.08,25.08,0,0,0-.72,2.51,1.56,1.56,0,0,0,.15,1.18,1.47,1.47,0,0,0,.91.65,4.19,4.19,0,0,0,.65.11,9.19,9.19,0,0,1,1,.19c.56,0,1,.1,1.22.15l.68.15a3.6,3.6,0,0,1,3,3.72,3.78,3.78,0,0,1-.91,2.62,4,4,0,0,1-2.51,1.25,40.13,40.13,0,0,1-4.1.34C197.5,216.42,195.44,216.46,193.06,216.46Zm11.56-27.66c-.3.86-.32,1.48,0,1.86a2,2,0,0,0,1.71.57h8.3c.76,0,1.24-.21,1.44-.65a2.5,2.5,0,0,0-.15-1.86q-.84-2.35-1.9-5.05t-2.2-5.74a2.33,2.33,0,0,0-.61-1,1.3,1.3,0,0,0-.91-.34,1.15,1.15,0,0,0-.87.34,3.52,3.52,0,0,0-.65,1q-1,2.36-2,5.13C206,185,205.32,186.87,204.62,188.8Z" fill="#0198bd" stroke="#00685c" stroke-miterlimit="10" stroke-width="0.5"/><path d="M136.71,150.7q-4.85,0-7.78-.08a28.79,28.79,0,0,1-4.21-.34,5.06,5.06,0,0,1-2.89-1.44,4,4,0,0,1-1-2.81,4.16,4.16,0,0,1,.64-2.34,3.12,3.12,0,0,1,1.83-1.32l.51-.17c.17-.06.45-.14.85-.25l.76-.26a3,3,0,0,0,.42-.17,2.93,2.93,0,0,0,1.49-1.23,4.7,4.7,0,0,0,.55-2.08q.09-2.55.13-8t0-10.71v-19a4.66,4.66,0,0,0-.51-2,3,3,0,0,0-1.36-1.15,5.46,5.46,0,0,0-.81-.26l-1.74-.42a3.09,3.09,0,0,1-2-1.27,4.48,4.48,0,0,1-.72-2.64A3.86,3.86,0,0,1,123,89.16,13.22,13.22,0,0,1,129.3,88c.68,0,1.43,0,2.25,0s2.11.1,3.87.21l3.66.13c.79,0,1.5,0,2.12,0,.45,0,1,0,1.61,0l3.15-.13c2.32-.11,4.15-.18,5.48-.21s2.59,0,3.78,0Q167,88,173.11,93t6.16,14.75q0,10.62-7.18,16t-21.46,5.4h-3.4a3,3,0,0,0-1.91.47,2.2,2.2,0,0,0-.55,1.74v7.22a2.4,2.4,0,0,0,.3,1.36,1.67,1.67,0,0,0,1.06.59,11.12,11.12,0,0,0,2.08.38c.82.08,1.32.13,1.49.13a5,5,0,0,1,3.06,1.4,4,4,0,0,1,1.11,2.93,4.71,4.71,0,0,1-1.06,3.19,5,5,0,0,1-3.1,1.57,47.52,47.52,0,0,1-5.23.38Q140.88,150.7,136.71,150.7ZM148.53,121h1.79q5.7,0,8.46-3t2.76-9.09q0-5.7-2.85-8.71c-1.9-2-4.6-3-8.12-3h-2.21a3.7,3.7,0,0,0-2.42.68,3.14,3.14,0,0,0-1,2.12c-.06.74-.1,1.88-.13,3.44s0,3.07,0,4.55v7.65c0,2.21.24,3.66.72,4.33S147,121,148.53,121Z" fill="#0198bd" stroke="#00685c" stroke-miterlimit="10" stroke-width="0.5"/></g></svg>