<?xml version="1.0" encoding="utf-8"?>
<!-- Generator: Adobe Illustrator 24.1.2, SVG Export Plug-In . SVG Version: 6.00 Build 0)  -->
<svg version="1.1" xmlns="http://www.w3.org/2000/svg" xmlns:xlink="http://www.w3.org/1999/xlink" x="0px" y="0px"
	 viewBox="0 0 300 300" style="enable-background:new 0 0 300 300;" xml:space="preserve">
<style type="text/css">
	.st0{fill:#EB3772;stroke:#00685C;stroke-width:0.5;stroke-miterlimit:10;}
	.st1{fill:#FFE41B;stroke:#00685C;stroke-width:0.5;stroke-miterlimit:10;}
	.st2{fill:#5EB34B;stroke:#00685C;stroke-width:0.5;stroke-miterlimit:10;}
	.st3{fill:#0198BD;stroke:#00685C;stroke-width:0.5;stroke-miterlimit:10;}
	.st4{fill:#FFF7E3;stroke:#00685C;stroke-width:0.5;stroke-miterlimit:10;}
	.st5{fill:#5EB34B;stroke:#00685C;stroke-width:1.1271;stroke-miterlimit:10;}
	.st6{fill:#FFF7E3;stroke:#00685C;stroke-width:1.1271;stroke-miterlimit:10;}
	.st7{fill:#FFE41B;stroke:#00685C;stroke-width:1.175;stroke-miterlimit:10;}
	.st8{fill:none;stroke:#00685C;stroke-width:1.1271;stroke-miterlimit:10;}
	.st9{fill:#00685C;}
	.st10{fill:#FFFFFF;stroke:#00685C;stroke-width:1.1271;stroke-miterlimit:10;}
	.st11{fill:#FFFFFF;stroke:#00685C;stroke-width:0.8333;stroke-miterlimit:10;}
	.st12{fill:#5EB34B;stroke:#00685C;stroke-width:1.1454;stroke-miterlimit:10;}
	.st13{fill:#FFE41B;stroke:#00685C;stroke-width:1.1271;stroke-miterlimit:10;}
	.st14{fill:#FFF7E3;stroke:#00685C;stroke-width:1.1271;stroke-linejoin:round;stroke-miterlimit:10;}
	.st15{fill:#00685C;stroke:#00685C;stroke-width:1.1271;stroke-miterlimit:10;}
	.st16{fill:#EB3772;stroke:#00685C;stroke-width:1.1271;stroke-miterlimit:10;}
	.st17{fill:#EB3772;}
	.st18{fill:none;stroke:#00685C;stroke-width:0.5;stroke-miterlimit:10;}
	.st19{fill:#FFFFFF;stroke:#00685C;stroke-width:0.3697;stroke-miterlimit:10;}
	.st20{fill:#00685C;stroke:#00685C;stroke-width:0.5;stroke-miterlimit:10;}
	.st21{fill:#FFFFFF;stroke:#00685C;stroke-width:0.5;stroke-miterlimit:10;}
	.st22{fill:#0198BD;}
	.st23{display:none;}
	.st24{display:inline;}
</style>
<g id="Layer_1">
	<g>
		<g>
			<polygon class="st4" points="274.48,104.88 274.48,250.3 54.85,250.3 54.85,71.65 241.19,71.65 			"/>
		</g>
		<polygon class="st0" points="240.98,71.65 240.98,105.15 274.48,105.15 		"/>
	</g>
	<g>
		
			<rect x="25.77" y="70.69" transform="matrix(6.123234e-17 -1 1 6.123234e-17 -44.9211 126.4209)" class="st1" width="29.96" height="29.96"/>
		
			<rect x="25.77" y="130.56" transform="matrix(6.123234e-17 -1 1 6.123234e-17 -104.7843 186.2841)" class="st2" width="29.96" height="29.96"/>
		
			<rect x="25.77" y="100.62" transform="matrix(6.123234e-17 -1 1 6.123234e-17 -74.8527 156.3525)" class="st0" width="29.96" height="29.96"/>
		
			<rect x="25.77" y="220.35" transform="matrix(6.123234e-17 -1 1 6.123234e-17 -194.5792 276.0789)" class="st4" width="29.96" height="29.96"/>
		
			<rect x="25.77" y="190.42" transform="matrix(6.123234e-17 -1 1 6.123234e-17 -164.6476 246.1474)" class="st20" width="29.96" height="29.96"/>
		
			<rect x="25.77" y="160.49" transform="matrix(6.123234e-17 -1 1 6.123234e-17 -134.716 216.2157)" class="st3" width="29.96" height="29.96"/>
	</g>
</g>
<g id="Layer_2">
	<g>
		<path class="st3" d="M81.53,155.43c-1.27,0.05-2.21,0.09-2.81,0.11c-0.61,0.02-1.17,0.04-1.67,0.04c-2.28,0-4.04-0.35-5.28-1.06
			c-1.24-0.71-1.86-1.75-1.86-3.12c0-0.81,0.18-1.48,0.53-2.01c0.35-0.53,0.91-0.95,1.67-1.25c0.3-0.1,0.62-0.21,0.95-0.34
			c0.33-0.13,0.77-0.27,1.33-0.42c0.61-0.25,1.05-0.62,1.33-1.1c0.28-0.48,0.44-1.1,0.49-1.86c0.05-1.52,0.09-3.9,0.11-7.14
			c0.03-3.24,0.04-6.43,0.04-9.58c0-2.84,0-5.67,0-8.51c0-2.84,0-5.67,0-8.51c-0.05-0.76-0.2-1.37-0.46-1.82s-0.66-0.79-1.21-0.99
			c-0.1-0.05-0.22-0.09-0.34-0.11c-0.13-0.02-0.32-0.06-0.57-0.11c-0.41-0.1-0.7-0.18-0.88-0.23c-0.18-0.05-0.34-0.1-0.49-0.15
			c-0.86-0.25-1.48-0.67-1.86-1.25c-0.38-0.58-0.57-1.33-0.57-2.24c0-1.42,0.63-2.48,1.9-3.19c1.27-0.71,3.14-1.06,5.62-1.06
			c0.96,0,1.92,0.01,2.89,0.04c0.96,0.03,2.28,0.09,3.95,0.19c1.32,0.05,2.28,0.09,2.89,0.11c0.61,0.03,1.19,0.04,1.75,0.04
			c0.35,0,0.8-0.01,1.33-0.04c0.53-0.02,1.48-0.06,2.85-0.11c2.58-0.1,4.64-0.16,6.16-0.19c1.52-0.02,2.96-0.04,4.33-0.04
			c6.08,0,10.7,1.06,13.87,3.19c3.17,2.13,4.75,5.27,4.75,9.42c0,2.89-0.86,5.42-2.58,7.6c-1.72,2.18-4.08,3.75-7.07,4.71
			c-0.25,0.1-0.44,0.22-0.57,0.34c-0.13,0.13-0.19,0.29-0.19,0.49c0,0.2,0.06,0.38,0.19,0.53c0.13,0.15,0.34,0.25,0.65,0.3
			c4.1,0.91,7.18,2.52,9.23,4.83c2.05,2.31,3.08,5.31,3.08,9.01c0,5.17-2.02,9.08-6.04,11.74c-4.03,2.66-9.94,3.99-17.75,3.99
			c-2.18,0-4.18-0.03-6-0.08s-3.8-0.13-5.93-0.23c-0.81-0.05-1.39-0.08-1.75-0.08c-0.36,0-0.66,0-0.91,0
			c-0.61,0-1.27,0.01-1.98,0.04C83.94,155.34,82.9,155.38,81.53,155.43z M94.07,123.06c0.41,0,0.81,0,1.22,0c0.4,0,0.81,0,1.22,0
			c3.09,0,5.43-0.63,7.03-1.9c1.6-1.27,2.39-3.14,2.39-5.62c0-2.53-0.77-4.43-2.32-5.7c-1.55-1.27-3.89-1.9-7.03-1.9
			c-0.35,0-0.72,0-1.1,0c-0.38,0-0.75,0-1.1,0c-0.96,0-1.69,0.22-2.17,0.65c-0.48,0.43-0.75,1.13-0.8,2.09
			c-0.05,0.66-0.09,1.42-0.11,2.28c-0.03,0.86-0.04,1.82-0.04,2.89c0,0.66,0,1.33,0,2.01s0,1.38,0,2.09c0,1.27,0.2,2.1,0.61,2.51
			C92.27,122.85,93.01,123.06,94.07,123.06z M94.53,146.62c0.35,0,0.72,0,1.1,0c0.38,0,0.75,0,1.1,0c3.85,0,6.66-0.66,8.44-1.98
			c1.77-1.32,2.66-3.39,2.66-6.23c0-2.69-0.95-4.69-2.85-6c-1.9-1.32-4.78-1.98-8.62-1.98c-0.3,0-0.62,0-0.95,0s-0.64,0-0.95,0
			c-1.17,0-1.98,0.23-2.43,0.68c-0.46,0.46-0.68,1.32-0.68,2.58c0,0.86,0,1.74,0,2.62c0,0.89,0,1.79,0,2.7c0,1.42,0,2.41,0,2.96
			c0,0.56,0.02,1.04,0.07,1.44c0.05,1.11,0.33,1.93,0.84,2.43C92.75,146.36,93.51,146.62,94.53,146.62z"/>
		<path class="st3" d="M141.72,155.58c-2.33,0-4.48-0.08-6.46-0.23c-1.98-0.15-3.37-0.33-4.18-0.53c-0.86-0.25-1.51-0.66-1.94-1.22
			c-0.43-0.56-0.65-1.29-0.65-2.2c0-0.81,0.19-1.49,0.57-2.05c0.38-0.56,0.92-0.96,1.63-1.22c0.1-0.05,0.42-0.16,0.95-0.34
			c0.53-0.18,0.97-0.32,1.33-0.42c0.61-0.25,1.05-0.62,1.33-1.1c0.28-0.48,0.44-1.1,0.49-1.86c0.05-1.52,0.09-3.9,0.11-7.14
			c0.03-3.24,0.04-6.43,0.04-9.58c0-2.84,0-5.67,0-8.51c0-2.84,0-5.67,0-8.51c-0.05-0.81-0.2-1.43-0.46-1.86
			c-0.25-0.43-0.66-0.75-1.21-0.95c-0.25-0.1-0.52-0.19-0.8-0.27c-0.28-0.08-0.77-0.19-1.48-0.34c-0.81-0.2-1.42-0.59-1.82-1.18
			c-0.41-0.58-0.61-1.35-0.61-2.32c0-1.42,0.63-2.48,1.9-3.19c1.27-0.71,3.14-1.06,5.62-1.06c1.06,0,2.23,0.01,3.5,0.04
			c1.27,0.03,3.14,0.09,5.62,0.19c2.33,0.05,4.05,0.09,5.17,0.11c1.11,0.03,2.13,0.04,3.04,0.04c1.92,0,3.86,0,5.81,0s3.89,0,5.81,0
			c0.56,0,1.09-0.06,1.6-0.19c0.51-0.13,1.17-0.37,1.98-0.72c0.76-0.35,1.37-0.58,1.82-0.68c0.46-0.1,0.94-0.15,1.44-0.15
			c1.06,0,1.99,0.25,2.77,0.76c0.79,0.51,1.41,1.27,1.86,2.28c0.81,1.93,1.48,3.99,2.01,6.19s0.87,4.5,1.03,6.88
			c0.15,1.67-0.16,3.02-0.95,4.03c-0.79,1.01-1.89,1.52-3.31,1.52c-1.21,0-2.27-0.33-3.15-0.99c-0.89-0.66-1.84-1.87-2.85-3.65
			c-1.01-1.72-1.75-2.91-2.2-3.57c-0.46-0.66-0.91-1.24-1.37-1.75c-0.46-0.51-1.01-0.86-1.67-1.06c-0.66-0.2-1.57-0.3-2.74-0.3
			c-2.94,0-5.03,0-6.27,0c-1.24,0-2.09,0.03-2.54,0.08c-0.81,0.05-1.42,0.3-1.82,0.76c-0.41,0.46-0.63,1.09-0.69,1.9
			c-0.05,0.61-0.09,1.72-0.11,3.34c-0.03,1.62-0.04,4-0.04,7.14c0,0.76,0.08,1.39,0.23,1.9c0.15,0.51,0.38,0.86,0.69,1.06
			c0.35,0.15,1.09,0.29,2.2,0.42c1.11,0.13,2.13,0.19,3.04,0.19c0.56,0,1-0.09,1.33-0.27c0.33-0.18,0.54-0.44,0.65-0.8
			c0.1-0.25,0.2-0.58,0.3-0.99c0.1-0.4,0.2-1.29,0.3-2.66c0.1-1.42,0.49-2.48,1.18-3.19c0.68-0.71,1.63-1.06,2.85-1.06
			c1.32,0,2.3,0.33,2.96,0.99c0.66,0.66,1.12,1.75,1.37,3.27c0.15,1.27,0.27,2.99,0.34,5.17c0.08,2.18,0.11,4.86,0.11,8.06
			c0,2.69-0.33,4.64-0.99,5.85c-0.66,1.22-1.7,1.82-3.12,1.82c-1.32,0-2.33-0.34-3.04-1.03c-0.71-0.68-1.17-1.79-1.37-3.31
			c-0.15-1.11-0.28-1.99-0.38-2.62c-0.1-0.63-0.2-1.03-0.3-1.18c-0.15-0.41-0.37-0.67-0.65-0.8c-0.28-0.13-0.67-0.19-1.18-0.19
			c-1.12,0-2.17,0.04-3.15,0.11c-0.99,0.08-1.69,0.17-2.09,0.27c-0.46,0.2-0.77,0.57-0.95,1.1c-0.18,0.53-0.27,1.33-0.27,2.39
			c0,1.17,0,2.34,0,3.53c0,1.19,0,2.37,0,3.53c0,0.96,0.12,1.72,0.38,2.28c0.25,0.56,0.63,0.91,1.14,1.06
			c0.3,0.1,0.62,0.19,0.95,0.27c0.33,0.08,0.82,0.17,1.48,0.27c0.4,0.1,0.72,0.17,0.95,0.19c0.23,0.03,0.42,0.06,0.57,0.11
			c0.91,0.25,1.58,0.68,2.01,1.29s0.65,1.42,0.65,2.43c0,1.17-0.37,2.1-1.1,2.81c-0.73,0.71-1.76,1.14-3.08,1.29
			c-1.32,0.1-2.88,0.18-4.67,0.23C147.41,155.56,144.92,155.58,141.72,155.58z"/>
		<path class="st3" d="M184.97,155.58c-1.98,0-3.57-0.03-4.79-0.08c-1.22-0.05-2.28-0.13-3.19-0.23c-1.21-0.15-2.13-0.53-2.74-1.14
			c-0.61-0.61-0.91-1.44-0.91-2.51c0-0.91,0.25-1.71,0.76-2.39c0.51-0.68,1.24-1.23,2.2-1.63c0.46-0.2,0.89-0.42,1.29-0.65
			c0.4-0.23,0.73-0.44,0.99-0.65c0.41-0.4,0.79-0.89,1.14-1.44c0.35-0.56,0.71-1.29,1.06-2.2c0.35-0.96,0.76-2,1.21-3.12
			c0.46-1.11,1.12-2.79,1.98-5.02c0.91-2.33,1.61-4.1,2.09-5.32c0.48-1.22,0.92-2.36,1.33-3.42c1.17-2.84,2.29-5.62,3.38-8.36
			c1.09-2.74,2.17-5.42,3.23-8.06c1.82-4.46,3.48-7.28,4.98-8.47c1.49-1.19,3.51-1.79,6.04-1.79c2.58,0,4.51,0.48,5.78,1.44
			c1.27,0.96,2.69,3.22,4.26,6.76c0.71,1.72,1.98,4.9,3.8,9.54c1.82,4.64,2.81,7.16,2.96,7.56c0.41,1.01,0.85,2.13,1.33,3.34
			c0.48,1.22,1.18,2.99,2.09,5.32c1.37,3.45,2.33,5.9,2.89,7.37c0.56,1.47,1.04,2.71,1.44,3.72c0.25,0.61,0.51,1.08,0.76,1.41
			c0.25,0.33,0.58,0.6,0.99,0.8c0.3,0.15,0.62,0.32,0.95,0.49c0.33,0.18,0.77,0.37,1.33,0.57c1.01,0.41,1.71,0.89,2.09,1.44
			c0.38,0.56,0.57,1.32,0.57,2.28c0,1.17-0.36,2.09-1.06,2.77c-0.71,0.68-1.75,1.1-3.12,1.25c-1.93,0.15-3.79,0.25-5.59,0.3
			c-1.8,0.05-3.71,0.08-5.74,0.08c-2.74,0-4.98-0.03-6.73-0.08c-1.75-0.05-3.21-0.15-4.37-0.3c-1.01-0.15-1.8-0.54-2.36-1.18
			c-0.56-0.63-0.84-1.43-0.84-2.39c0-0.96,0.25-1.77,0.76-2.43c0.51-0.66,1.22-1.09,2.13-1.29c0.25-0.05,0.51-0.1,0.76-0.15
			c0.25-0.05,0.63-0.1,1.14-0.15c0.25-0.05,0.46-0.09,0.61-0.11c0.15-0.02,0.28-0.04,0.38-0.04c0.61-0.2,1.04-0.51,1.29-0.91
			c0.25-0.4,0.3-0.89,0.15-1.44c-0.1-0.61-0.27-1.23-0.49-1.86c-0.23-0.63-0.7-1.84-1.41-3.61c-0.25-0.51-0.58-0.86-0.99-1.06
			c-0.41-0.2-0.99-0.3-1.75-0.3c-1.17,0-2.33,0-3.5,0s-2.33,0-3.5,0c-1.12,0-2.24,0-3.38,0c-1.14,0-2.29,0-3.46,0
			c-0.66,0-1.17,0.11-1.52,0.34c-0.36,0.23-0.63,0.62-0.84,1.18c-0.46,1.06-0.82,2-1.1,2.81c-0.28,0.81-0.52,1.65-0.72,2.51
			c-0.1,0.46-0.05,0.85,0.15,1.18c0.2,0.33,0.51,0.54,0.91,0.65c0.2,0.05,0.42,0.09,0.64,0.11c0.23,0.03,0.54,0.09,0.95,0.19
			c0.56,0.05,0.96,0.1,1.21,0.15c0.25,0.05,0.48,0.1,0.69,0.15c0.96,0.2,1.71,0.63,2.24,1.29c0.53,0.66,0.8,1.47,0.8,2.43
			c0,1.06-0.3,1.94-0.91,2.62c-0.61,0.68-1.44,1.1-2.51,1.25c-1.01,0.15-2.38,0.27-4.1,0.34
			C189.4,155.55,187.35,155.58,184.97,155.58z M196.52,127.92c-0.3,0.86-0.32,1.48-0.04,1.86c0.28,0.38,0.85,0.57,1.71,0.57
			c0.66,0,1.32,0,1.97,0s1.32,0,1.98,0c0.71,0,1.43,0,2.17,0s1.46,0,2.17,0c0.76,0,1.24-0.21,1.44-0.65
			c0.2-0.43,0.15-1.05-0.15-1.86c-0.56-1.57-1.19-3.25-1.9-5.05c-0.71-1.8-1.45-3.71-2.21-5.74c-0.15-0.4-0.35-0.72-0.61-0.95
			s-0.56-0.34-0.91-0.34c-0.36,0-0.65,0.11-0.87,0.34c-0.23,0.23-0.45,0.57-0.65,1.03c-0.66,1.57-1.33,3.28-2.01,5.13
			C197.93,124.11,197.23,125.99,196.52,127.92z"/>
	</g>
	<g>
		<path class="st3" d="M158.66,231.32c-3,0-5.47-0.03-7.39-0.08c-1.93-0.06-3.31-0.14-4.17-0.25c-1.42-0.17-2.49-0.62-3.23-1.36
			c-0.74-0.74-1.11-1.67-1.11-2.8c0-0.91,0.23-1.66,0.68-2.25c0.45-0.6,1.11-1.03,1.96-1.32c0.51-0.17,1.32-0.34,2.42-0.51
			c1.11-0.17,1.74-0.25,1.91-0.25c0.56-0.11,1.02-0.3,1.36-0.55s0.6-0.61,0.77-1.06c0.22-0.62,0.39-1.29,0.51-2
			c0.11-0.71,0.17-1.49,0.17-2.34c0-0.74-0.13-1.27-0.38-1.61c-0.26-0.34-0.7-0.51-1.32-0.51c-3.51,0-7.04,0-10.58,0
			s-7.07,0-10.58,0c-1.64,0-2.97-0.48-4-1.44c-1.02-0.96-1.53-2.24-1.53-3.83c0-0.91,0.17-1.8,0.51-2.68
			c0.34-0.88,0.88-1.86,1.62-2.93c1.47-1.98,3.33-4.25,5.57-6.8c2.24-2.55,5.37-5.89,9.39-10.03c3.4-3.57,6.12-6.38,8.16-8.42
			c2.04-2.04,3.88-3.77,5.53-5.18c2.1-2.04,3.9-3.5,5.4-4.38c1.5-0.88,3.02-1.32,4.55-1.32c1.59,0,2.85,0.38,3.78,1.15
			c0.93,0.77,1.4,1.77,1.4,3.02c0,0.68-0.04,1.35-0.13,2c-0.09,0.65-0.24,1.54-0.47,2.68c-0.28,1.19-0.47,2.12-0.55,2.81
			c-0.08,0.68-0.13,1.36-0.13,2.04c0,3.4,0,6.81,0,10.24c0,3.43,0,6.87,0,10.33c0,0.85,0.13,1.43,0.38,1.74
			c0.25,0.31,0.72,0.47,1.4,0.47c1.08,0,2.14,0,3.19,0c1.05,0,2.11,0,3.19,0c1.36,0,2.25,0.38,2.68,1.15
			c0.42,0.77,0.47,2.03,0.13,3.78c-0.4,2.1-0.96,3.53-1.7,4.29c-0.74,0.77-1.84,1.15-3.32,1.15c-0.68,0-1.37,0-2.08,0s-1.4,0-2.08,0
			c-0.62,0-1.08,0.16-1.36,0.47c-0.29,0.31-0.43,0.78-0.43,1.4c0,0.68,0.03,1.36,0.09,2.04c0.05,0.68,0.17,1.39,0.34,2.12
			c0.05,0.45,0.18,0.78,0.38,0.98c0.2,0.2,0.61,0.41,1.23,0.64c0.22,0.06,0.45,0.11,0.68,0.17c0.22,0.06,0.56,0.14,1.02,0.25
			c0.34,0.06,0.6,0.1,0.77,0.13c0.17,0.03,0.31,0.07,0.42,0.13c0.96,0.23,1.69,0.65,2.17,1.28c0.48,0.62,0.72,1.42,0.72,2.38
			c0,1.3-0.37,2.32-1.11,3.06c-0.74,0.74-1.9,1.25-3.48,1.53c-0.96,0.17-2.48,0.3-4.55,0.38S162.46,231.32,158.66,231.32z
			 M139.2,202.5c-0.23,0.4-0.23,0.75,0,1.06s0.65,0.47,1.28,0.47c1.7,0,3.41,0,5.14,0c1.73,0,3.44,0,5.14,0
			c0.62,0,1.09-0.16,1.4-0.47c0.31-0.31,0.47-0.81,0.47-1.49c0-1.87,0-3.73,0-5.57c0-1.84,0-3.67,0-5.48c0-0.91-0.18-1.53-0.55-1.87
			c-0.37-0.34-0.81-0.31-1.32,0.08c-1.13,1.02-2.22,2.07-3.27,3.15c-1.05,1.08-2.08,2.24-3.1,3.49c-1.3,1.42-2.35,2.65-3.14,3.7
			C140.44,200.62,139.76,201.6,139.2,202.5z"/>
	</g>
</g>
<g id="Layer_2_copy" class="st23">
</g>
</svg>
