<?xml version="1.0" encoding="utf-8"?>
<!-- Generator: Adobe Illustrator 24.1.2, SVG Export Plug-In . SVG Version: 6.00 Build 0)  -->
<svg version="1.1" id="Layer_1" xmlns="http://www.w3.org/2000/svg" xmlns:xlink="http://www.w3.org/1999/xlink" x="0px" y="0px"
	 viewBox="0 0 300 300" style="enable-background:new 0 0 300 300;" xml:space="preserve">
<style type="text/css">
	.st0{fill:#FFF7E3;stroke:#00685C;stroke-width:0.5;stroke-miterlimit:10;}
	.st1{fill:#EB3772;stroke:#00685C;stroke-width:0.5;stroke-miterlimit:10;}
	.st2{fill:#5EB34B;stroke:#00685C;stroke-width:0.5;stroke-miterlimit:10;}
	.st3{fill:#FFE41B;stroke:#00685C;stroke-width:0.5;stroke-miterlimit:10;}
	.st4{fill:#FFFFFF;stroke:#00685C;stroke-width:0.3697;stroke-miterlimit:10;}
	.st5{fill:#0198BD;stroke:#00685C;stroke-width:0.5;stroke-miterlimit:10;}
	.st6{display:none;}
</style>
<g id="Layer_1_1_">
	<g>
		<path class="st0" d="M112.4,183.7c0-0.1,0-0.2,0-0.3L112.4,183.7L112.4,183.7z"/>
		<path class="st0" d="M129.9,136c1.2-1.6,2.5-3.1,3.8-4.5C132.4,132.9,131.1,134.4,129.9,136z"/>
		<path class="st0" d="M133.7,131.5c0.4-0.5,0.9-1,1.4-1.4C134.6,130.5,134.1,131,133.7,131.5z"/>
		<path class="st0" d="M136.4,128.6c1.4-1.4,2.8-2.8,4.3-4C139.2,125.9,137.8,127.2,136.4,128.6z"/>
		<path class="st0" d="M146.9,119.7c1.1-0.8,2.2-1.5,3.3-2.2C149.1,118.2,148,119,146.9,119.7z"/>
		<path class="st0" d="M189.1,175.9c0.2,1.7,0.4,3.4,0.5,5.2C189.5,179.3,189.4,177.6,189.1,175.9z"/>
		<path class="st1" d="M233.1,111.4c0,1,0,1.9-0.1,2.9c-11.5-6.2-24.7-9.7-38.7-9.7c-15.9,0-30.7,4.5-43.3,12.3c0,0,0,0,0,0s0,0,0,0
			c-12.6-7.8-27.4-12.3-43.3-12.3c-14,0-27.2,3.5-38.7,9.7c0-1-0.1-1.9-0.1-2.9c0-45.3,36.7-82,82-82
			C196.4,29.4,233.1,66.1,233.1,111.4z"/>
		<path class="st0" d="M151.1,116.9c-0.3,0.2-0.6,0.4-0.9,0.6C150.5,117.3,150.8,117.1,151.1,116.9
			C151.1,116.9,151.1,116.9,151.1,116.9C151.1,116.9,151.1,116.9,151.1,116.9z"/>
		<path class="st0" d="M151.1,116.9c-0.3,0.2-0.6,0.4-0.9,0.6c-1.1,0.7-2.2,1.4-3.3,2.2c-0.5,0.4-1.1,0.8-1.6,1.2
			c-0.5,0.4-1.1,0.8-1.6,1.2c-0.5,0.4-1,0.8-1.5,1.2c-0.5,0.4-1,0.8-1.5,1.3c-1.5,1.3-2.9,2.6-4.3,4c-0.5,0.4-0.9,0.9-1.4,1.4
			c-0.5,0.5-0.9,0.9-1.4,1.4c-1.3,1.5-2.6,3-3.8,4.5c-0.4,0.5-0.8,1-1.2,1.6c-0.4,0.5-0.8,1.1-1.2,1.6c-0.3,0.4-0.6,0.8-0.8,1.2
			c-0.5,0.8-1.1,1.6-1.6,2.4c-0.3,0.4-0.5,0.8-0.8,1.2c-0.1,0.1-0.2,0.2-0.2,0.3c-1.3,2.2-2.6,4.5-3.7,6.8c-0.6,1.2-1.1,2.4-1.7,3.6
			c-0.2,0.5-0.4,0.9-0.6,1.4c-0.4,0.9-0.7,1.9-1.1,2.8c-0.2,0.5-0.3,0.9-0.5,1.4c-0.1,0.2-0.2,0.4-0.2,0.6c-0.3,1.1-0.7,2.1-1,3.2
			c0,0,0,0,0,0.1c-0.2,0.5-0.3,1.1-0.4,1.6c-0.2,0.8-0.4,1.5-0.6,2.3c-0.2,0.7-0.3,1.3-0.4,2c-0.1,0.6-0.2,1.2-0.3,1.8
			c-0.1,0.6-0.2,1.1-0.3,1.7c-0.1,0.3-0.1,0.6-0.1,0.9c0,0.1,0,0.1,0,0.2c-0.1,0.5-0.1,1-0.2,1.6c-0.1,0.4-0.1,0.8-0.1,1.2
			c0,0.4-0.1,0.8-0.1,1.1c-0.1,0.6-0.1,1.3-0.2,1.9c-0.1,0.6-0.1,1.3-0.1,1.9c0,0.1,0,0.2,0,0.2c0,0.3,0,0.6-0.1,0.9
			c0,0.1,0,0.2,0,0.3c-25-13.4-42.2-39.3-43.3-69.4c11.5-6.2,24.7-9.7,38.7-9.7C123.7,104.6,138.6,109.1,151.1,116.9z"/>
		<path class="st0" d="M133.7,131.5c-1.3,1.4-2.6,3-3.8,4.5C131.1,134.4,132.4,132.9,133.7,131.5z"/>
		<path class="st0" d="M135.1,130c-0.5,0.5-0.9,0.9-1.4,1.4C134.1,131,134.6,130.5,135.1,130z"/>
		<path class="st0" d="M140.7,124.6c-1.5,1.3-2.9,2.6-4.3,4C137.8,127.2,139.2,125.9,140.7,124.6z"/>
		<path class="st0" d="M150.2,117.5c-1.1,0.7-2.2,1.4-3.3,2.2C148,119,149.1,118.2,150.2,117.5z"/>
		<path class="st0" d="M151.1,116.9c-0.3,0.2-0.6,0.4-0.9,0.6C150.5,117.3,150.8,117.1,151.1,116.9
			C151.1,116.9,151.1,116.9,151.1,116.9z"/>
		<path class="st0" d="M189.7,181.1c-0.1-1.8-0.3-3.5-0.5-5.2C189.4,177.6,189.6,179.3,189.7,181.1z"/>
		<path class="st2" d="M151.1,256.3c-12.6,7.8-27.4,12.3-43.3,12.3c-45.3,0-82-36.7-82-82c0-31.3,17.5-58.5,43.3-72.3
			c1,30.1,18.3,56,43.3,69.4v0h0c0,1-0.1,1.9-0.1,2.9C112.4,216,127.9,241.8,151.1,256.3z"/>
		<path class="st0" d="M112.5,183.4v0.3h0v0C112.4,183.6,112.5,183.5,112.5,183.4z"/>
		<path class="st0" d="M189.8,183.7L189.8,183.7c-0.1,0.1-0.3,0.2-0.5,0.2C189.5,183.9,189.6,183.8,189.8,183.7z"/>
		<path class="st0" d="M233.1,114.3c-1,30.1-18.3,56-43.3,69.4c0-0.9-0.1-1.7-0.1-2.6v-0.1c-0.1-1.8-0.3-3.5-0.5-5.2
			c-0.1-0.4-0.1-0.9-0.2-1.3c-0.1-0.4-0.1-0.8-0.2-1.2c-0.1-0.8-0.3-1.6-0.4-2.3c0-0.1-0.1-0.2-0.1-0.4c-0.1-0.4-0.1-0.7-0.2-1.1
			c-0.1-0.4-0.2-0.8-0.3-1.2c-0.1-0.4-0.2-0.8-0.3-1.2c-0.1-0.4-0.2-0.8-0.3-1.2c-0.1-0.4-0.2-0.8-0.3-1.2c-0.1-0.4-0.2-0.8-0.3-1.2
			c-0.2-0.8-0.5-1.6-0.8-2.4c-0.1-0.4-0.2-0.7-0.4-1.1c-0.2-0.5-0.3-0.9-0.5-1.4c-0.2-0.6-0.4-1.1-0.6-1.7c-0.3-0.7-0.6-1.4-0.8-2
			c-0.2-0.5-0.4-1.1-0.7-1.6c-1.3-2.9-2.8-5.7-4.4-8.4c-0.2-0.4-0.5-0.9-0.8-1.3c-0.2-0.3-0.4-0.6-0.6-1c0-0.1-0.1-0.1-0.1-0.1
			c-0.6-0.9-1.2-1.9-1.9-2.8c-0.1-0.2-0.2-0.3-0.3-0.5c-0.2-0.3-0.5-0.6-0.7-1c-0.2-0.3-0.4-0.5-0.6-0.8c-0.3-0.4-0.6-0.8-0.9-1.1
			c-0.1-0.1-0.2-0.2-0.3-0.3c-0.4-0.5-0.7-0.9-1.1-1.4c-0.6-0.8-1.3-1.6-2-2.3c-0.6-0.7-1.3-1.4-2-2.1c-0.4-0.4-0.8-0.9-1.2-1.3
			c-0.1-0.1-0.2-0.2-0.3-0.3c-0.4-0.4-0.8-0.8-1.2-1.2c-1-0.9-1.9-1.8-2.9-2.7c-0.4-0.4-0.8-0.7-1.2-1c-0.1-0.1-0.2-0.2-0.4-0.3
			c-0.4-0.4-0.9-0.7-1.4-1.1c0,0-0.1-0.1-0.1-0.1c-0.5-0.4-0.9-0.7-1.4-1.1c-1.1-0.8-2.2-1.6-3.3-2.3c-0.5-0.4-1.1-0.7-1.6-1.1
			c-0.3-0.2-0.6-0.4-0.9-0.6c12.6-7.8,27.4-12.3,43.3-12.3C208.4,104.6,221.5,108.1,233.1,114.3z"/>
		<path class="st0" d="M189.7,181.1c-0.1-1.8-0.3-3.5-0.5-5.2C189.4,177.6,189.6,179.3,189.7,181.1z"/>
		<path class="st0" d="M189.9,186.6c0,29.4-15.5,55.2-38.7,69.7c-23.3-14.5-38.7-40.3-38.7-69.7c0-1,0-1.9,0.1-2.9
			c0.5,0.3,1,0.6,1.6,0.8c0.5,0.2,1,0.5,1.5,0.7c0.1,0,0.1,0.1,0.2,0.1c0.5,0.2,1,0.5,1.5,0.7c0.3,0.1,0.6,0.2,0.8,0.4
			c0.4,0.2,0.8,0.4,1.2,0.5c0.6,0.3,1.2,0.5,1.9,0.8c0.5,0.2,1,0.4,1.6,0.6c0.2,0.1,0.3,0.1,0.5,0.2c0.4,0.2,0.9,0.3,1.3,0.5
			c0.2,0.1,0.5,0.2,0.7,0.2c0.5,0.2,1.1,0.4,1.6,0.5c2,0.6,4,1.2,6.1,1.6c1.3,0.3,2.5,0.6,3.8,0.8c0.7,0.1,1.4,0.2,2,0.3
			c0.7,0.1,1.4,0.2,2.1,0.3c0,0,0.1,0,0.1,0c0.6,0.1,1.2,0.1,1.8,0.2c0.1,0,0.2,0,0.3,0c0.6,0.1,1.2,0.1,1.7,0.2c0.1,0,0.1,0,0.2,0
			c0.7,0.1,1.4,0.1,2.1,0.1c0.7,0,1.4,0.1,2.1,0.1c0.7,0,1.4,0,2.1,0c0.7,0,1.4,0,2.1,0c0.7,0,1.4,0,2.1-0.1c0.7,0,1.4-0.1,2.1-0.1
			c0.1,0,0.1,0,0.2,0c0.6-0.1,1.2-0.1,1.7-0.2c0.1,0,0.2,0,0.3,0c0.6-0.1,1.2-0.1,1.8-0.2c0.1,0,0.1,0,0.1,0
			c0.7-0.1,1.4-0.2,2.1-0.3c0.7-0.1,1.4-0.2,2-0.3c1.3-0.2,2.6-0.5,3.8-0.8c2.1-0.5,4.1-1,6.1-1.6c0.5-0.2,1.1-0.3,1.6-0.5
			c0.2-0.1,0.5-0.1,0.7-0.2c0.5-0.1,0.9-0.3,1.4-0.5c0.1,0,0.2-0.1,0.3-0.1c0.6-0.2,1.1-0.4,1.7-0.6c0.6-0.2,1.2-0.5,1.9-0.8
			c0.4-0.2,0.8-0.3,1.2-0.5c0.3-0.1,0.6-0.2,0.9-0.4c0.5-0.2,1-0.4,1.5-0.7c0.1,0,0.1-0.1,0.2-0.1c0.5-0.2,1-0.5,1.5-0.7
			c0.2-0.1,0.4-0.2,0.6-0.3c0.2-0.1,0.3-0.2,0.5-0.2c0.2-0.1,0.3-0.2,0.5-0.2C189.8,184.7,189.9,185.6,189.9,186.6z"/>
		<path class="st3" d="M276.4,186.6c0,45.3-36.7,82-82,82c-15.9,0-30.7-4.5-43.3-12.3c23.2-14.5,38.7-40.3,38.7-69.7
			c0-1,0-1.9-0.1-2.9v0c25-13.4,42.2-39.3,43.3-69.4C258.9,128.1,276.4,155.3,276.4,186.6z"/>
		<path class="st0" d="M189.8,183.7L189.8,183.7c-0.1,0.1-0.3,0.2-0.5,0.2C189.5,183.9,189.6,183.8,189.8,183.7z"/>
		<path class="st4" d="M189.8,183.7c-0.2,0.1-0.3,0.2-0.5,0.2c-0.1,0.1-0.3,0.2-0.5,0.2c-0.2,0.1-0.4,0.2-0.6,0.3
			c-0.5,0.2-1,0.5-1.5,0.7c-0.1,0-0.1,0.1-0.2,0.1c-0.5,0.2-1,0.5-1.5,0.7c-0.3,0.1-0.6,0.3-0.9,0.4c-0.4,0.2-0.8,0.4-1.2,0.5
			c-0.6,0.3-1.2,0.5-1.9,0.8c-0.6,0.2-1.1,0.4-1.7,0.6c-0.1,0.1-0.2,0.1-0.3,0.1c-0.5,0.2-0.9,0.3-1.4,0.5c-0.2,0.1-0.5,0.2-0.7,0.2
			c-0.5,0.2-1.1,0.4-1.6,0.5c-2,0.6-4,1.2-6.1,1.6c-1.3,0.3-2.5,0.6-3.8,0.8c-0.7,0.1-1.4,0.2-2,0.3c-0.7,0.1-1.4,0.2-2.1,0.3
			c0,0-0.1,0-0.1,0c-0.6,0.1-1.2,0.1-1.8,0.2c-0.1,0-0.2,0-0.3,0c-0.6,0.1-1.2,0.1-1.7,0.2c-0.1,0-0.1,0-0.2,0
			c-0.7,0.1-1.4,0.1-2.1,0.1c-0.7,0-1.4,0.1-2.1,0.1c-0.7,0-1.4,0-2.1,0c-0.7,0-1.4,0-2.1,0c-0.7,0-1.4,0-2.1-0.1
			c-0.7,0-1.4-0.1-2.1-0.1c-0.1,0-0.1,0-0.2,0c-0.6-0.1-1.2-0.1-1.7-0.2c-0.1,0-0.2,0-0.3,0c-0.6-0.1-1.2-0.1-1.8-0.2
			c-0.1,0-0.1,0-0.1,0c-0.7-0.1-1.4-0.2-2.1-0.3c-0.7-0.1-1.4-0.2-2-0.3c-1.3-0.2-2.6-0.5-3.8-0.8c-2.1-0.5-4.1-1-6.1-1.6
			c-0.5-0.2-1.1-0.3-1.6-0.5c-0.2-0.1-0.5-0.1-0.7-0.2c-0.4-0.1-0.9-0.3-1.3-0.5c-0.2-0.1-0.3-0.1-0.5-0.2c-0.5-0.2-1-0.4-1.6-0.6
			c-0.6-0.2-1.2-0.5-1.9-0.8c-0.4-0.2-0.8-0.3-1.2-0.5c-0.3-0.1-0.6-0.2-0.8-0.4c-0.5-0.2-1-0.4-1.5-0.7c-0.1,0-0.2-0.1-0.2-0.1
			c-0.5-0.2-1-0.5-1.5-0.7c-0.5-0.3-1-0.5-1.6-0.8v-0.3c0-0.3,0-0.6,0.1-0.9c0-0.1,0-0.2,0-0.2c0-0.6,0.1-1.3,0.1-1.9
			c0-0.6,0.1-1.3,0.2-1.9c0-0.4,0.1-0.8,0.1-1.1c0-0.4,0.1-0.8,0.1-1.2c0.1-0.5,0.1-1,0.2-1.6c0-0.1,0-0.1,0-0.2
			c0.1-0.3,0.1-0.6,0.1-0.9c0.1-0.6,0.2-1.1,0.3-1.7c0.1-0.6,0.2-1.2,0.3-1.8c0.1-0.7,0.3-1.3,0.4-2c0.2-0.8,0.4-1.5,0.6-2.3
			c0.1-0.5,0.3-1.1,0.4-1.6c0,0,0-0.1,0-0.1c0.3-1.1,0.6-2.1,1-3.2c0.1-0.2,0.1-0.4,0.2-0.6c0.2-0.5,0.3-0.9,0.5-1.4
			c0.3-0.9,0.7-1.9,1.1-2.8c0.2-0.5,0.4-0.9,0.6-1.4c0.5-1.2,1.1-2.4,1.7-3.6c1.1-2.3,2.3-4.6,3.7-6.8c0.1-0.1,0.1-0.2,0.2-0.3
			c0.2-0.4,0.5-0.8,0.8-1.2c0.5-0.8,1-1.6,1.6-2.4c0.3-0.4,0.5-0.8,0.8-1.2c0.4-0.5,0.8-1.1,1.2-1.6c0.4-0.5,0.8-1.1,1.2-1.6
			c1.2-1.6,2.5-3.1,3.8-4.5c0.4-0.5,0.9-1,1.4-1.4c0.4-0.5,0.9-0.9,1.4-1.4c1.4-1.4,2.8-2.7,4.3-4c0.5-0.4,1-0.9,1.5-1.3
			c0.5-0.4,1-0.8,1.5-1.2c0.5-0.4,1-0.8,1.6-1.2c0.5-0.4,1.1-0.8,1.6-1.2c1.1-0.8,2.2-1.5,3.3-2.2c0.3-0.2,0.6-0.4,0.9-0.6
			c0.3,0.2,0.6,0.4,0.9,0.6c0.6,0.4,1.1,0.7,1.6,1.1c1.1,0.7,2.2,1.5,3.3,2.3c0.5,0.4,0.9,0.7,1.4,1.1c0.1,0,0.1,0.1,0.1,0.1
			c0.5,0.4,0.9,0.7,1.4,1.1c0.1,0.1,0.3,0.2,0.4,0.3c0.4,0.3,0.8,0.7,1.2,1c1,0.9,2,1.8,2.9,2.7c0.4,0.4,0.8,0.8,1.2,1.2
			c0.1,0.1,0.2,0.2,0.3,0.3c0.4,0.4,0.8,0.9,1.2,1.3c0.7,0.7,1.3,1.4,2,2.1c0.7,0.8,1.3,1.5,2,2.3c0.4,0.4,0.7,0.9,1.1,1.4
			c0.1,0.1,0.2,0.2,0.3,0.3c0.3,0.4,0.6,0.7,0.9,1.1c0.2,0.3,0.4,0.5,0.6,0.8c0.2,0.3,0.5,0.6,0.7,1c0.1,0.2,0.2,0.3,0.3,0.5
			c0.6,0.9,1.3,1.8,1.9,2.8c0,0.1,0.1,0.1,0.1,0.1c0.2,0.3,0.4,0.6,0.6,1c0.3,0.4,0.5,0.8,0.8,1.3c1.6,2.7,3.1,5.5,4.4,8.4
			c0.2,0.5,0.5,1.1,0.7,1.6c0.3,0.7,0.6,1.4,0.8,2c0.2,0.6,0.4,1.1,0.6,1.7c0.2,0.5,0.3,0.9,0.5,1.4c0.1,0.4,0.2,0.7,0.4,1.1
			c0.3,0.8,0.5,1.6,0.8,2.4c0.1,0.4,0.2,0.8,0.3,1.2c0.1,0.4,0.2,0.8,0.3,1.2c0.1,0.4,0.2,0.8,0.3,1.2c0.1,0.4,0.2,0.8,0.3,1.2
			c0.1,0.4,0.2,0.8,0.3,1.2c0.1,0.4,0.1,0.7,0.2,1.1c0,0.1,0.1,0.2,0.1,0.4c0.1,0.8,0.3,1.6,0.4,2.3c0.1,0.4,0.1,0.8,0.2,1.2
			c0.1,0.4,0.1,0.9,0.2,1.3c0.2,1.7,0.4,3.4,0.5,5.2v0.1C189.7,182,189.8,182.9,189.8,183.7z"/>
		<path class="st0" d="M112.5,183.4v0.3h0v0C112.4,183.6,112.5,183.5,112.5,183.4z"/>
		<path class="st0" d="M129.9,136c1.2-1.6,2.5-3.1,3.8-4.5C132.4,132.9,131.1,134.4,129.9,136z"/>
		<path class="st0" d="M133.7,131.5c0.4-0.5,0.9-1,1.4-1.4C134.6,130.5,134.1,131,133.7,131.5z"/>
		<path class="st0" d="M136.4,128.6c1.4-1.4,2.8-2.8,4.3-4C139.2,125.9,137.8,127.2,136.4,128.6z"/>
		<path class="st0" d="M146.9,119.7c1.1-0.8,2.2-1.5,3.3-2.2C149.1,118.2,148,119,146.9,119.7z"/>
		<path class="st0" d="M151.1,116.9c-0.3,0.2-0.6,0.4-0.9,0.6C150.5,117.3,150.8,117.1,151.1,116.9
			C151.1,116.9,151.1,116.9,151.1,116.9C151.1,116.9,151.1,116.9,151.1,116.9z"/>
		<path class="st0" d="M189.8,183.7L189.8,183.7c-0.1,0.1-0.3,0.2-0.5,0.2C189.5,183.9,189.6,183.8,189.8,183.7z"/>
	</g>
</g>
<g id="Layer_2_1_">
	<g>
		<g>
			<path class="st5" d="M67.4,216.5c-2.2,0-4,0-5.3-0.1s-2.2-0.1-2.7-0.3c-1-0.2-1.8-0.6-2.3-1.2s-0.8-1.5-0.8-2.5
				c0-1,0.3-1.8,1-2.6c0.6-0.7,1.5-1.3,2.5-1.6c0.5-0.1,0.9-0.3,1.3-0.4c0.3-0.1,0.6-0.2,0.8-0.3c0.5-0.2,0.8-0.5,1-0.8
				s0.3-0.8,0.3-1.3c0-1.7,0.1-4.2,0.1-7.5s0-6.3,0-9c0-6.1,0-10.3,0-12.6c0-2.3,0-3.8-0.1-4.5c0-0.7-0.1-1.2-0.3-1.6
				c-0.2-0.4-0.5-0.6-0.9-0.8c-0.2-0.1-0.5-0.2-0.8-0.3s-0.6-0.2-1-0.3c-1-0.4-1.7-0.9-2.1-1.5s-0.7-1.4-0.7-2.3
				c0-1,0.2-1.8,0.7-2.4c0.5-0.7,1.2-1.1,2-1.3c1.1-0.3,2.4-0.5,3.9-0.6c1.5-0.1,3.1-0.2,4.9-0.2c3.2,0,5.3,0,6.4,0.1s2.1,0.1,3,0.3
				c1.6,0.2,2.9,0.8,3.8,1.6c0.9,0.9,1.9,2.6,2.9,5.1c0.5,1.3,1.9,4.8,4.2,10.5c2.3,5.8,4.1,10.1,5.4,13.2c0.1,0.3,0.3,0.5,0.6,0.6
				s0.5,0.1,0.7-0.1c0.7-1.4,1.4-3,2.1-4.8c0.7-1.8,2-4.8,3.8-9.2c1.6-4.1,2.7-6.7,3.1-7.7c0.4-1,0.8-1.9,1.1-2.6
				c1.1-2.4,2.1-4,3.1-4.8c1-0.8,2.3-1.4,3.9-1.7c1-0.1,2.2-0.3,3.4-0.3c1.3-0.1,2.9-0.1,4.8-0.1c1.5,0,2.9,0,4.3,0.1
				s2.4,0.1,3.3,0.1c1.1,0.1,1.9,0.5,2.5,1.1s0.8,1.6,0.8,2.7c0,0.9-0.2,1.7-0.7,2.4c-0.5,0.7-1.1,1.1-1.9,1.4
				c-0.3,0.1-0.6,0.2-0.9,0.3c-0.3,0.1-0.6,0.3-0.9,0.4c-0.5,0.2-0.8,0.6-0.9,0.9c-0.2,0.4-0.3,0.9-0.3,1.5
				c-0.1,1.4-0.1,3.9-0.1,7.4c0,3.5,0,6.8,0,9.8c0,5.9,0,10,0,12.3c0,2.3,0,3.8,0.1,4.4c0,0.7,0.1,1.2,0.3,1.6
				c0.2,0.4,0.5,0.7,1,0.9c0.4,0.1,0.8,0.3,1.1,0.4c0.4,0.1,0.7,0.2,1,0.3c0.9,0.2,1.5,0.6,1.9,1.2c0.4,0.6,0.6,1.4,0.6,2.4
				c0,1.2-0.3,2.1-1,2.8c-0.7,0.7-1.6,1.1-2.9,1.3c-0.7,0.1-1.9,0.2-3.7,0.2s-3.8,0.1-6.3,0.1c-2.4,0-4.5,0-6.2-0.1
				c-1.7-0.1-2.9-0.1-3.6-0.2c-1.3-0.1-2.2-0.6-2.8-1.2s-0.9-1.6-0.9-2.7c0-1,0.2-1.8,0.7-2.4c0.5-0.7,1.1-1.1,2.1-1.4
				c0.6-0.1,1-0.3,1.4-0.4c0.4-0.1,0.7-0.2,0.8-0.3c0.5-0.2,0.8-0.5,1-0.8c0.2-0.4,0.3-0.8,0.3-1.4c0-2.4,0-4.9,0-7.3
				c0-2.4,0-4.9,0-7.3c0-1.6,0-3.1,0-4.8s0-3.2,0-4.8c-0.1-0.4-0.1-0.7-0.3-0.9s-0.3-0.3-0.6-0.3c-0.2,0-0.4,0.1-0.7,0.3
				s-0.4,0.5-0.5,0.8c-2,5-4.1,10.2-6.2,15.7S99,207.4,97,212.2c-0.6,1.4-1.2,2.4-1.8,3c-0.7,0.6-1.5,0.8-2.6,0.8
				c-1,0-1.8-0.2-2.4-0.6s-1.1-1.2-1.6-2.2c-1.4-3.1-2.9-6.5-4.3-10S80,192.6,75.7,182c-0.2-0.4-0.3-0.7-0.6-0.9s-0.5-0.3-0.7-0.3
				s-0.5,0.1-0.6,0.3s-0.2,0.6-0.3,1c-0.1,0.6-0.1,1.4-0.1,2.4c0,1,0,3.2,0,6.5c0,2.1,0,4.1,0,6s0,3.9,0.1,6.1c0,0.6,0,1,0,1.2
				c0,0.2,0,0.4,0,0.6c0.1,0.6,0.2,1,0.4,1.4c0.2,0.4,0.6,0.6,1.1,0.8c0.4,0.1,0.8,0.3,1.2,0.4s0.9,0.3,1.4,0.4
				c1.2,0.2,2.1,0.7,2.7,1.4c0.6,0.7,0.9,1.5,0.9,2.6c0,1.2-0.4,2.1-1.1,2.9c-0.7,0.7-1.7,1.2-3,1.4c-0.8,0.1-2,0.2-3.7,0.2
				C71.8,216.4,69.8,216.5,67.4,216.5z"/>
			<path class="st5" d="M149.8,216.5c-2.3,0-4.5-0.1-6.5-0.2c-2-0.1-3.4-0.3-4.2-0.5c-0.9-0.2-1.5-0.7-1.9-1.2
				c-0.4-0.6-0.6-1.3-0.6-2.2c0-0.8,0.2-1.5,0.6-2.1s0.9-1,1.6-1.2c0.1-0.1,0.4-0.2,0.9-0.3s1-0.3,1.3-0.4c0.6-0.2,1.1-0.6,1.3-1.1
				c0.3-0.5,0.4-1.1,0.5-1.9c0.1-1.5,0.1-3.9,0.1-7.1c0-3.2,0-6.4,0-9.6c0-2.8,0-5.7,0-8.5s0-5.7,0-8.5c-0.1-0.8-0.2-1.4-0.5-1.9
				c-0.2-0.4-0.7-0.8-1.2-0.9c-0.2-0.1-0.5-0.2-0.8-0.3s-0.8-0.2-1.5-0.3c-0.8-0.2-1.4-0.6-1.8-1.2c-0.4-0.6-0.6-1.4-0.6-2.3
				c0-1.4,0.6-2.5,1.9-3.2c1.3-0.7,3.1-1.1,5.6-1.1c1.1,0,2.2,0,3.5,0s3.1,0.1,5.6,0.2c2.3,0.1,4.1,0.1,5.2,0.1c1.1,0,2.1,0,3,0
				c1.9,0,3.9,0,5.8,0s3.9,0,5.8,0c0.6,0,1.1-0.1,1.6-0.2c0.5-0.1,1.2-0.4,2-0.7c0.8-0.4,1.4-0.6,1.8-0.7s0.9-0.1,1.4-0.1
				c1.1,0,2,0.2,2.8,0.8c0.8,0.5,1.4,1.3,1.9,2.3c0.8,1.9,1.5,4,2,6.2s0.9,4.5,1,6.9c0.1,1.7-0.2,3-0.9,4c-0.8,1-1.9,1.5-3.3,1.5
				c-1.2,0-2.3-0.3-3.1-1c-0.9-0.7-1.8-1.9-2.9-3.6c-1-1.7-1.8-2.9-2.2-3.6c-0.5-0.7-0.9-1.2-1.4-1.8c-0.5-0.5-1-0.9-1.7-1.1
				s-1.6-0.3-2.7-0.3c-2.9,0-5,0-6.3,0s-2.1,0-2.6,0.1c-0.8,0.1-1.4,0.3-1.8,0.8c-0.4,0.5-0.6,1.1-0.7,1.9c-0.1,0.6-0.1,1.7-0.1,3.3
				c0,1.6,0,4,0,7.1c0,0.8,0.1,1.4,0.2,1.9s0.4,0.9,0.7,1.1c0.4,0.1,1.1,0.3,2.2,0.4s2.1,0.2,3,0.2c0.6,0,1-0.1,1.3-0.3
				c0.3-0.2,0.5-0.4,0.6-0.8c0.1-0.2,0.2-0.6,0.3-1s0.2-1.3,0.3-2.7c0.1-1.4,0.5-2.5,1.2-3.2c0.7-0.7,1.6-1.1,2.9-1.1
				c1.3,0,2.3,0.3,3,1s1.1,1.8,1.4,3.3c0.1,1.3,0.3,3,0.3,5.2c0.1,2.2,0.1,4.9,0.1,8.1c0,2.7-0.3,4.6-1,5.9s-1.7,1.8-3.1,1.8
				c-1.3,0-2.3-0.3-3-1c-0.7-0.7-1.2-1.8-1.4-3.3c-0.1-1.1-0.3-2-0.4-2.6c-0.1-0.6-0.2-1-0.3-1.2c-0.1-0.4-0.4-0.7-0.6-0.8
				c-0.3-0.1-0.7-0.2-1.2-0.2c-1.1,0-2.2,0-3.1,0.1c-1,0.1-1.7,0.2-2.1,0.3c-0.5,0.2-0.8,0.6-0.9,1.1s-0.3,1.3-0.3,2.4
				c0,1.2,0,2.3,0,3.5s0,2.4,0,3.5c0,1,0.1,1.7,0.4,2.3s0.6,0.9,1.1,1.1c0.3,0.1,0.6,0.2,0.9,0.3s0.8,0.2,1.5,0.3
				c0.4,0.1,0.7,0.2,0.9,0.2c0.2,0,0.4,0.1,0.6,0.1c0.9,0.2,1.6,0.7,2,1.3s0.6,1.4,0.6,2.4c0,1.2-0.4,2.1-1.1,2.8
				c-0.7,0.7-1.8,1.1-3.1,1.3c-1.3,0.1-2.9,0.2-4.7,0.2C155.5,216.4,153,216.5,149.8,216.5z"/>
			<path class="st5" d="M193.1,216.5c-2,0-3.6,0-4.8-0.1c-1.2-0.1-2.3-0.1-3.2-0.2c-1.2-0.1-2.1-0.5-2.7-1.1s-0.9-1.4-0.9-2.5
				c0-0.9,0.2-1.7,0.8-2.4s1.2-1.2,2.2-1.6c0.5-0.2,0.9-0.4,1.3-0.6s0.7-0.4,1-0.6c0.4-0.4,0.8-0.9,1.1-1.4c0.4-0.6,0.7-1.3,1.1-2.2
				c0.4-1,0.8-2,1.2-3.1c0.5-1.1,1.1-2.8,2-5c0.9-2.3,1.6-4.1,2.1-5.3s0.9-2.4,1.3-3.4c1.2-2.8,2.3-5.6,3.4-8.4
				c1.1-2.7,2.2-5.4,3.2-8.1c1.8-4.5,3.5-7.3,5-8.5c1.5-1.2,3.5-1.8,6-1.8c2.6,0,4.5,0.5,5.8,1.4s2.7,3.2,4.3,6.8
				c0.7,1.7,2,4.9,3.8,9.5s2.8,7.2,3,7.6c0.4,1,0.9,2.1,1.3,3.3c0.5,1.2,1.2,3,2.1,5.3c1.4,3.4,2.3,5.9,2.9,7.4s1,2.7,1.4,3.7
				c0.2,0.6,0.5,1.1,0.8,1.4s0.6,0.6,1,0.8c0.3,0.1,0.6,0.3,0.9,0.5c0.3,0.2,0.8,0.4,1.3,0.6c1,0.4,1.7,0.9,2.1,1.4
				c0.4,0.6,0.6,1.3,0.6,2.3c0,1.2-0.4,2.1-1.1,2.8c-0.7,0.7-1.8,1.1-3.1,1.2c-1.9,0.1-3.8,0.2-5.6,0.3s-3.7,0.1-5.7,0.1
				c-2.7,0-5,0-6.7-0.1s-3.2-0.1-4.4-0.3c-1-0.1-1.8-0.5-2.4-1.2c-0.6-0.6-0.8-1.4-0.8-2.4s0.2-1.8,0.8-2.4c0.5-0.7,1.2-1.1,2.1-1.3
				c0.2-0.1,0.5-0.1,0.8-0.1c0.2-0.1,0.6-0.1,1.1-0.1c0.2-0.1,0.5-0.1,0.6-0.1s0.3,0,0.4,0c0.6-0.2,1-0.5,1.3-0.9
				c0.2-0.4,0.3-0.9,0.1-1.4c-0.1-0.6-0.3-1.2-0.5-1.9c-0.2-0.6-0.7-1.8-1.4-3.6c-0.2-0.5-0.6-0.9-1-1.1s-1-0.3-1.8-0.3
				c-1.2,0-2.3,0-3.5,0s-2.3,0-3.5,0c-1.1,0-2.2,0-3.4,0s-2.3,0-3.5,0c-0.7,0-1.2,0.1-1.5,0.3s-0.6,0.6-0.8,1.2
				c-0.5,1.1-0.8,2-1.1,2.8s-0.5,1.6-0.7,2.5c-0.1,0.5-0.1,0.9,0.1,1.2c0.2,0.3,0.5,0.5,0.9,0.6c0.2,0.1,0.4,0.1,0.6,0.1
				c0.2,0,0.5,0.1,0.9,0.2c0.6,0.1,1,0.1,1.2,0.1c0.2,0.1,0.5,0.1,0.7,0.1c1,0.2,1.7,0.6,2.2,1.3c0.5,0.7,0.8,1.5,0.8,2.4
				c0,1.1-0.3,1.9-0.9,2.6s-1.4,1.1-2.5,1.2c-1,0.1-2.4,0.3-4.1,0.3C197.5,216.4,195.4,216.5,193.1,216.5z M204.6,188.8
				c-0.3,0.9-0.3,1.5,0,1.9c0.3,0.4,0.9,0.6,1.7,0.6c0.7,0,1.3,0,2,0c0.7,0,1.3,0,2,0c0.7,0,1.4,0,2.2,0c0.7,0,1.5,0,2.2,0
				c0.8,0,1.2-0.2,1.4-0.6c0.2-0.4,0.1-1.1-0.1-1.9c-0.6-1.6-1.2-3.2-1.9-5.1c-0.7-1.8-1.4-3.7-2.2-5.7c-0.1-0.4-0.4-0.7-0.6-0.9
				c-0.2-0.2-0.6-0.3-0.9-0.3c-0.4,0-0.6,0.1-0.9,0.3c-0.2,0.2-0.4,0.6-0.6,1c-0.7,1.6-1.3,3.3-2,5.1
				C206,185,205.3,186.9,204.6,188.8z"/>
		</g>
		<g>
			<path class="st5" d="M136.7,150.7c-3.2,0-5.8,0-7.8-0.1c-2-0.1-3.4-0.2-4.2-0.3c-1.2-0.2-2.2-0.7-2.9-1.4c-0.7-0.7-1-1.7-1-2.8
				c0-0.9,0.2-1.7,0.6-2.3c0.4-0.6,1-1.1,1.8-1.3c0.2-0.1,0.3-0.1,0.5-0.2c0.2-0.1,0.4-0.1,0.8-0.2c0.3-0.1,0.6-0.2,0.8-0.3
				c0.2-0.1,0.3-0.1,0.4-0.2c0.7-0.3,1.2-0.7,1.5-1.2s0.5-1.2,0.6-2.1c0.1-1.7,0.1-4.4,0.1-8c0-3.6,0-7.2,0-10.7c0-3.2,0-6.3,0-9.5
				s0-6.3,0-9.5c-0.1-0.8-0.2-1.5-0.5-2s-0.7-0.9-1.4-1.2c-0.1-0.1-0.4-0.1-0.8-0.3c-0.4-0.1-1-0.2-1.7-0.4c-0.8-0.2-1.5-0.6-2-1.3
				s-0.7-1.6-0.7-2.6c0-1.6,0.7-2.8,2.1-3.6c1.4-0.8,3.5-1.2,6.3-1.2c0.7,0,1.4,0,2.2,0s2.1,0.1,3.9,0.2c1.6,0.1,2.9,0.1,3.7,0.1
				c0.8,0,1.5,0,2.1,0c0.4,0,1,0,1.6,0s1.7-0.1,3.1-0.1c2.3-0.1,4.1-0.2,5.5-0.2s2.6,0,3.8,0c7.8,0,13.8,1.7,17.9,5.1
				c4.1,3.4,6.2,8.3,6.2,14.8c0,7.1-2.4,12.4-7.2,16c-4.8,3.6-11.9,5.4-21.5,5.4h-3.4c-0.9,0-1.5,0.2-1.9,0.5
				c-0.4,0.3-0.6,0.9-0.6,1.7c0,1.2,0,2.4,0,3.6s0,2.4,0,3.6c0,0.6,0.1,1.1,0.3,1.4s0.6,0.5,1.1,0.6c0.6,0.2,1.3,0.3,2.1,0.4
				s1.3,0.1,1.5,0.1c1.3,0.2,2.3,0.6,3.1,1.4c0.7,0.8,1.1,1.7,1.1,2.9c0,1.3-0.4,2.4-1.1,3.2c-0.7,0.8-1.7,1.4-3.1,1.6
				c-1.1,0.2-2.8,0.3-5.2,0.4C142.1,150.6,139.5,150.7,136.7,150.7z M148.5,120.9h1.8c3.8,0,6.6-1,8.5-3c1.8-2,2.8-5,2.8-9.1
				c0-3.8-0.9-6.7-2.9-8.7c-1.9-2-4.6-3-8.1-3c-0.3,0-0.7,0-1.1,0s-0.8,0-1.1,0c-1.1,0-1.9,0.2-2.4,0.7s-0.9,1.2-1,2.1
				c-0.1,0.7-0.1,1.9-0.1,3.4c0,1.6,0,3.1,0,4.6c0,1.2,0,2.5,0,3.8s0,2.6,0,3.9c0,2.2,0.2,3.7,0.7,4.3S147,120.9,148.5,120.9z"/>
		</g>
	</g>
</g>
<g id="Layer_2_copy" class="st6">
</g>
</svg>
