<?xml version="1.0" encoding="utf-8"?>
<!-- Generator: Adobe Illustrator 24.1.2, SVG Export Plug-In . SVG Version: 6.00 Build 0)  -->
<svg version="1.1" xmlns="http://www.w3.org/2000/svg" xmlns:xlink="http://www.w3.org/1999/xlink" x="0px" y="0px"
	 viewBox="0 0 300 300" style="enable-background:new 0 0 300 300;" xml:space="preserve">
<style type="text/css">
	.st0{fill:#EB3772;stroke:#00685C;stroke-width:0.5;stroke-miterlimit:10;}
	.st1{fill:#FFE41B;stroke:#00685C;stroke-width:0.5;stroke-miterlimit:10;}
	.st2{fill:#5EB34B;stroke:#00685C;stroke-width:0.5;stroke-miterlimit:10;}
	.st3{fill:#0198BD;stroke:#00685C;stroke-width:0.5;stroke-miterlimit:10;}
	.st4{fill:#FFF7E3;stroke:#00685C;stroke-width:0.5;stroke-miterlimit:10;}
	.st5{fill:#5EB34B;stroke:#00685C;stroke-width:1.1271;stroke-miterlimit:10;}
	.st6{fill:#FFF7E3;stroke:#00685C;stroke-width:1.1271;stroke-miterlimit:10;}
	.st7{fill:#FFE41B;stroke:#00685C;stroke-width:1.175;stroke-miterlimit:10;}
	.st8{fill:none;stroke:#00685C;stroke-width:1.1271;stroke-miterlimit:10;}
	.st9{fill:#00685C;}
	.st10{fill:#FFFFFF;stroke:#00685C;stroke-width:1.1271;stroke-miterlimit:10;}
	.st11{fill:#FFFFFF;stroke:#00685C;stroke-width:0.8333;stroke-miterlimit:10;}
	.st12{fill:#5EB34B;stroke:#00685C;stroke-width:1.1454;stroke-miterlimit:10;}
	.st13{fill:#FFE41B;stroke:#00685C;stroke-width:1.1271;stroke-miterlimit:10;}
	.st14{fill:#FFF7E3;stroke:#00685C;stroke-width:1.1271;stroke-linejoin:round;stroke-miterlimit:10;}
	.st15{fill:#00685C;stroke:#00685C;stroke-width:1.1271;stroke-miterlimit:10;}
	.st16{fill:#EB3772;stroke:#00685C;stroke-width:1.1271;stroke-miterlimit:10;}
	.st17{fill:#EB3772;}
	.st18{fill:none;stroke:#00685C;stroke-width:0.5;stroke-miterlimit:10;}
	.st19{fill:#FFFFFF;stroke:#00685C;stroke-width:0.3697;stroke-miterlimit:10;}
	.st20{fill:#00685C;stroke:#00685C;stroke-width:0.5;stroke-miterlimit:10;}
	.st21{fill:#FFFFFF;stroke:#00685C;stroke-width:0.5;stroke-miterlimit:10;}
	.st22{fill:#0198BD;}
	.st23{display:none;}
	.st24{display:inline;}
</style>
<g id="Layer_1">
	<g>
		<g>
			
				<rect x="214.65" y="52.42" transform="matrix(0.7071 0.7071 -0.7071 0.7071 125.7019 -128.3784)" class="st4" width="6.33" height="70.25"/>
			
				<rect x="79.92" y="183.44" transform="matrix(0.7071 0.7071 -0.7071 0.7071 178.8841 5.2516)" class="st4" width="6.38" height="70.25"/>
		</g>
		<g>
			
				<rect x="240.6" y="117.94" transform="matrix(-1.836970e-16 1 -1 -1.836970e-16 396.8118 -90.6913)" class="st4" width="6.31" height="70.25"/>
			
				<rect x="54" y="117.94" transform="matrix(-1.836970e-16 1 -1 -1.836970e-16 210.2129 95.9076)" class="st4" width="6.31" height="70.25"/>
		</g>
		<g>
			
				<rect x="147.25" y="211.24" transform="matrix(-1 -1.224647e-16 1.224647e-16 -1 300.5132 492.7195)" class="st4" width="6.02" height="70.25"/>
			
				<rect x="147.64" y="24.64" transform="matrix(-1 -1.224647e-16 1.224647e-16 -1 301.2952 119.5217)" class="st4" width="6.02" height="70.25"/>
		</g>
	</g>
	<g>
		<polygon class="st1" points="47.57,64.43 145.79,194.9 172.23,203.09 184.99,203.04 238.65,241.06 255.02,219.92 207.36,183.36 
			193.16,161.2 		"/>
		<polygon class="st19" points="145.79,194.9 155.41,197.91 62.47,74.46 47.57,64.43 		"/>
		<path class="st19" d="M226.12,223.54l-14.09-10.77c-2.67-2.04-3.18-5.86-1.14-8.54v0c2.04-2.67,5.86-3.18,8.54-1.14l14.09,10.77
			c2.67,2.04,3.18,5.86,1.14,8.54v0C232.62,225.07,228.8,225.59,226.12,223.54z"/>
	</g>
</g>
<g id="Layer_2">
	<g>
		<path class="st2" d="M163.82,230.85c-1.24,0.19-3.18,0.32-5.83,0.42c-2.66,0.09-5.59,0.14-8.8,0.14c-2.84,0-5.49-0.05-7.96-0.14
			c-2.47-0.09-4.23-0.2-5.28-0.32c-1.54-0.19-2.72-0.66-3.52-1.44c-0.8-0.77-1.2-1.77-1.2-3.01c0-1.23,0.36-2.25,1.07-3.06
			c0.71-0.8,1.84-1.45,3.38-1.94c0.18-0.06,0.38-0.12,0.6-0.18c0.22-0.06,0.6-0.12,1.16-0.19c0.56-0.19,0.99-0.31,1.3-0.37
			c0.31-0.06,0.59-0.12,0.83-0.19c0.49-0.25,0.86-0.59,1.11-1.02c0.25-0.43,0.4-0.96,0.46-1.57c0.06-1.23,0.09-3.27,0.09-6.11
			c0-2.84,0-7.72,0-14.63c0-2.35,0-4.68,0-6.99c0-2.31,0-4.61,0-6.9c-0.06-0.68-0.22-1.22-0.46-1.62c-0.25-0.4-0.62-0.69-1.11-0.88
			c-0.37-0.12-0.8-0.25-1.3-0.37c-0.49-0.12-1.33-0.25-2.5-0.37c-1.85-0.31-3.15-0.82-3.89-1.53c-0.74-0.71-1.11-1.65-1.11-2.82
			c0-1.05,0.26-1.97,0.79-2.78c0.52-0.8,1.37-1.54,2.55-2.22c0.56-0.37,1.2-0.74,1.95-1.11c0.74-0.37,2.84-1.36,6.3-2.96
			c2.41-1.17,4.47-2.04,6.2-2.59c1.73-0.56,3.3-0.93,4.72-1.11c2.47-0.49,4.4-0.23,5.79,0.79c1.39,1.02,2.08,2.55,2.08,4.58
			c0,0.5-0.05,1.03-0.14,1.62c-0.09,0.59-0.23,1.5-0.42,2.73c-0.25,1.3-0.4,2.25-0.46,2.87c-0.06,0.62-0.09,1.2-0.09,1.76
			c0,0.56,0,1.3,0,2.22c0,0.93,0,2.59,0,5c-0.06,3.52-0.09,6.17-0.09,7.96c0,1.79,0,3.37,0,4.72c0,3.33,0,6.68,0,10.05
			c0,3.37,0,6.71,0,10.05c0.06,0.74,0.22,1.34,0.46,1.81c0.25,0.46,0.65,0.79,1.2,0.97c0.62,0.19,1.22,0.36,1.81,0.51
			c0.59,0.15,1.25,0.32,1.99,0.51c1.42,0.37,2.45,0.93,3.1,1.67c0.65,0.74,0.97,1.7,0.97,2.87c0,1.36-0.51,2.5-1.53,3.43
			C167.02,230.02,165.62,230.6,163.82,230.85z"/>
	</g>
	<g>
		<path class="st2" d="M76.12,156.56c-1.27,0.05-2.21,0.09-2.83,0.11c-0.61,0.03-1.17,0.04-1.68,0.04c-2.29,0-4.06-0.36-5.31-1.07
			s-1.87-1.76-1.87-3.13c0-0.81,0.18-1.49,0.53-2.02c0.35-0.53,0.92-0.95,1.68-1.26c0.31-0.1,0.62-0.22,0.95-0.34
			c0.33-0.13,0.78-0.27,1.34-0.42c0.61-0.25,1.06-0.62,1.33-1.11c0.28-0.48,0.45-1.11,0.5-1.87c0.05-1.53,0.09-3.92,0.11-7.18
			c0.02-3.26,0.04-6.46,0.04-9.62c0-2.85,0-5.7,0-8.55c0-2.85,0-5.7,0-8.55c-0.05-0.76-0.21-1.37-0.46-1.83
			c-0.26-0.46-0.66-0.79-1.22-0.99c-0.1-0.05-0.22-0.09-0.34-0.11c-0.13-0.03-0.32-0.06-0.57-0.11c-0.41-0.1-0.7-0.18-0.88-0.23
			c-0.18-0.05-0.34-0.1-0.5-0.15c-0.87-0.25-1.49-0.67-1.87-1.26c-0.38-0.58-0.57-1.34-0.57-2.25c0-1.42,0.64-2.49,1.91-3.21
			c1.27-0.71,3.16-1.07,5.65-1.07c0.97,0,1.93,0.01,2.9,0.04c0.97,0.03,2.29,0.09,3.97,0.19c1.32,0.05,2.29,0.09,2.9,0.11
			c0.61,0.03,1.19,0.04,1.76,0.04c0.36,0,0.8-0.01,1.34-0.04c0.53-0.03,1.49-0.06,2.86-0.11c2.59-0.1,4.66-0.16,6.18-0.19
			c1.53-0.03,2.98-0.04,4.35-0.04c6.11,0,10.75,1.07,13.93,3.21c3.18,2.14,4.77,5.29,4.77,9.47c0,2.9-0.86,5.45-2.59,7.63
			c-1.73,2.19-4.1,3.77-7.1,4.73c-0.26,0.1-0.45,0.22-0.57,0.34c-0.13,0.13-0.19,0.29-0.19,0.5c0,0.2,0.06,0.38,0.19,0.53
			c0.13,0.15,0.34,0.25,0.65,0.3c4.12,0.92,7.22,2.53,9.28,4.85c2.06,2.32,3.09,5.33,3.09,9.05c0,5.19-2.02,9.12-6.07,11.8
			c-4.05,2.67-9.99,4.01-17.83,4.01c-2.19,0-4.2-0.03-6.03-0.08c-1.83-0.05-3.82-0.13-5.96-0.23c-0.81-0.05-1.4-0.08-1.76-0.08
			c-0.36,0-0.66,0-0.92,0c-0.61,0-1.27,0.01-1.99,0.04C78.54,156.47,77.5,156.5,76.12,156.56z M88.72,124.03c0.41,0,0.81,0,1.22,0
			c0.41,0,0.81,0,1.22,0c3.1,0,5.46-0.64,7.06-1.91c1.6-1.27,2.4-3.15,2.4-5.65c0-2.54-0.78-4.45-2.33-5.73
			c-1.55-1.27-3.91-1.91-7.06-1.91c-0.36,0-0.73,0-1.11,0s-0.75,0-1.11,0c-0.97,0-1.69,0.22-2.18,0.65c-0.48,0.43-0.75,1.13-0.8,2.1
			c-0.05,0.66-0.09,1.43-0.12,2.29c-0.03,0.87-0.04,1.83-0.04,2.9c0,0.66,0,1.34,0,2.02s0,1.39,0,2.1c0,1.27,0.2,2.11,0.61,2.52
			C86.91,123.83,87.65,124.03,88.72,124.03z M89.18,147.7c0.36,0,0.73,0,1.11,0s0.75,0,1.11,0c3.87,0,6.69-0.66,8.47-1.99
			c1.78-1.32,2.67-3.41,2.67-6.26c0-2.7-0.95-4.71-2.86-6.03s-4.8-1.99-8.67-1.99c-0.31,0-0.62,0-0.95,0c-0.33,0-0.65,0-0.95,0
			c-1.17,0-1.99,0.23-2.44,0.69c-0.46,0.46-0.69,1.32-0.69,2.6c0,0.87,0,1.74,0,2.63c0,0.89,0,1.79,0,2.71c0,1.42,0,2.42,0,2.98
			s0.02,1.04,0.08,1.45c0.05,1.12,0.33,1.93,0.84,2.44C87.4,147.45,88.16,147.7,89.18,147.7z"/>
		<path class="st2" d="M136.59,156.71c-2.34,0-4.51-0.08-6.49-0.23c-1.99-0.15-3.38-0.33-4.2-0.53c-0.87-0.25-1.52-0.66-1.95-1.22
			c-0.43-0.56-0.65-1.3-0.65-2.21c0-0.81,0.19-1.5,0.57-2.06s0.93-0.97,1.64-1.22c0.1-0.05,0.42-0.16,0.95-0.34
			c0.53-0.18,0.98-0.32,1.34-0.42c0.61-0.25,1.06-0.62,1.33-1.11c0.28-0.48,0.45-1.11,0.5-1.87c0.05-1.53,0.09-3.92,0.11-7.18
			c0.02-3.26,0.04-6.46,0.04-9.62c0-2.85,0-5.7,0-8.55c0-2.85,0-5.7,0-8.55c-0.05-0.81-0.21-1.44-0.46-1.87
			c-0.26-0.43-0.66-0.75-1.22-0.95c-0.26-0.1-0.52-0.19-0.8-0.27s-0.78-0.19-1.49-0.34c-0.82-0.2-1.43-0.6-1.83-1.18
			c-0.41-0.58-0.61-1.36-0.61-2.33c0-1.42,0.64-2.49,1.91-3.21c1.27-0.71,3.16-1.07,5.65-1.07c1.07,0,2.24,0.01,3.51,0.04
			c1.27,0.03,3.16,0.09,5.65,0.19c2.34,0.05,4.07,0.09,5.19,0.11c1.12,0.03,2.14,0.04,3.06,0.04c1.93,0,3.88,0,5.84,0
			c1.96,0,3.91,0,5.84,0c0.56,0,1.09-0.06,1.6-0.19c0.51-0.13,1.17-0.37,1.99-0.73c0.76-0.36,1.37-0.58,1.83-0.69
			c0.46-0.1,0.94-0.15,1.45-0.15c1.07,0,2,0.26,2.79,0.76c0.79,0.51,1.41,1.27,1.87,2.29c0.81,1.94,1.49,4.01,2.02,6.22
			c0.53,2.21,0.88,4.52,1.03,6.91c0.15,1.68-0.17,3.03-0.95,4.05c-0.79,1.02-1.9,1.53-3.32,1.53c-1.22,0-2.28-0.33-3.17-0.99
			c-0.89-0.66-1.85-1.88-2.86-3.66c-1.02-1.73-1.76-2.93-2.21-3.59c-0.46-0.66-0.92-1.25-1.38-1.76c-0.46-0.51-1.02-0.86-1.68-1.07
			c-0.66-0.2-1.58-0.3-2.75-0.3c-2.95,0-5.05,0-6.3,0c-1.25,0-2.1,0.03-2.56,0.08c-0.81,0.05-1.43,0.3-1.83,0.76
			c-0.41,0.46-0.64,1.1-0.69,1.91c-0.05,0.61-0.09,1.73-0.12,3.36c-0.03,1.63-0.04,4.02-0.04,7.18c0,0.76,0.08,1.4,0.23,1.91
			c0.15,0.51,0.38,0.87,0.69,1.07c0.36,0.15,1.09,0.29,2.21,0.42c1.12,0.13,2.14,0.19,3.05,0.19c0.56,0,1-0.09,1.34-0.27
			c0.33-0.18,0.55-0.44,0.65-0.8c0.1-0.25,0.2-0.58,0.31-0.99c0.1-0.41,0.2-1.3,0.31-2.67c0.1-1.42,0.5-2.49,1.18-3.21
			c0.69-0.71,1.64-1.07,2.86-1.07c1.32,0,2.32,0.33,2.98,0.99c0.66,0.66,1.12,1.76,1.38,3.28c0.15,1.27,0.27,3,0.34,5.19
			c0.08,2.19,0.11,4.89,0.11,8.09c0,2.7-0.33,4.66-0.99,5.88s-1.71,1.83-3.13,1.83c-1.33,0-2.34-0.34-3.06-1.03
			c-0.71-0.69-1.17-1.79-1.37-3.32c-0.15-1.12-0.28-2-0.38-2.63c-0.1-0.64-0.2-1.03-0.31-1.18c-0.15-0.41-0.37-0.67-0.65-0.8
			c-0.28-0.13-0.67-0.19-1.18-0.19c-1.12,0-2.18,0.04-3.17,0.11c-0.99,0.08-1.69,0.16-2.1,0.27c-0.46,0.2-0.78,0.57-0.95,1.11
			c-0.18,0.53-0.27,1.34-0.27,2.41c0,1.17,0,2.35,0,3.55c0,1.2,0,2.38,0,3.55c0,0.97,0.12,1.73,0.38,2.29
			c0.26,0.56,0.64,0.92,1.15,1.07c0.31,0.1,0.62,0.19,0.95,0.27c0.33,0.08,0.83,0.17,1.49,0.27c0.41,0.1,0.73,0.17,0.95,0.19
			c0.23,0.03,0.42,0.06,0.57,0.11c0.92,0.26,1.59,0.69,2.02,1.3c0.43,0.61,0.65,1.43,0.65,2.44c0,1.17-0.37,2.11-1.11,2.82
			c-0.74,0.71-1.77,1.15-3.09,1.3c-1.33,0.1-2.89,0.18-4.7,0.23C142.3,156.68,139.8,156.71,136.59,156.71z"/>
		<path class="st2" d="M180.03,156.71c-1.99,0-3.59-0.03-4.81-0.08c-1.22-0.05-2.29-0.13-3.21-0.23c-1.22-0.15-2.14-0.53-2.75-1.15
			c-0.61-0.61-0.92-1.45-0.92-2.52c0-0.92,0.26-1.72,0.76-2.4c0.51-0.69,1.25-1.23,2.21-1.64c0.46-0.2,0.89-0.42,1.3-0.65
			c0.41-0.23,0.74-0.44,0.99-0.65c0.41-0.41,0.79-0.89,1.14-1.45c0.36-0.56,0.71-1.3,1.07-2.21c0.36-0.97,0.76-2.01,1.22-3.13
			c0.46-1.12,1.12-2.8,1.99-5.04c0.92-2.34,1.61-4.12,2.1-5.34c0.48-1.22,0.93-2.37,1.34-3.44c1.17-2.85,2.3-5.65,3.4-8.4
			c1.09-2.75,2.18-5.45,3.25-8.09c1.83-4.48,3.5-7.32,5-8.51c1.5-1.2,3.52-1.79,6.07-1.79c2.59,0,4.53,0.48,5.8,1.45
			c1.27,0.97,2.7,3.23,4.27,6.8c0.71,1.73,1.99,4.92,3.82,9.58c1.83,4.66,2.83,7.19,2.98,7.6c0.41,1.02,0.85,2.14,1.34,3.36
			c0.48,1.22,1.18,3,2.1,5.34c1.37,3.46,2.34,5.93,2.9,7.41c0.56,1.48,1.04,2.72,1.45,3.74c0.25,0.61,0.51,1.08,0.76,1.41
			c0.26,0.33,0.59,0.6,0.99,0.8c0.31,0.15,0.62,0.32,0.95,0.5c0.33,0.18,0.78,0.37,1.34,0.57c1.02,0.41,1.72,0.89,2.1,1.45
			c0.38,0.56,0.57,1.32,0.57,2.29c0,1.17-0.36,2.1-1.07,2.79c-0.71,0.69-1.76,1.11-3.13,1.26c-1.93,0.15-3.8,0.25-5.61,0.3
			c-1.81,0.05-3.73,0.08-5.77,0.08c-2.75,0-5-0.03-6.76-0.08c-1.76-0.05-3.22-0.15-4.39-0.3c-1.02-0.15-1.81-0.55-2.37-1.18
			c-0.56-0.64-0.84-1.44-0.84-2.41c0-0.97,0.25-1.78,0.76-2.44c0.51-0.66,1.22-1.09,2.14-1.3c0.26-0.05,0.51-0.1,0.76-0.15
			c0.25-0.05,0.64-0.1,1.14-0.15c0.26-0.05,0.46-0.09,0.61-0.11c0.15-0.03,0.28-0.04,0.38-0.04c0.61-0.2,1.04-0.51,1.3-0.92
			c0.26-0.41,0.31-0.89,0.15-1.45c-0.1-0.61-0.27-1.23-0.5-1.87c-0.23-0.64-0.7-1.84-1.41-3.63c-0.26-0.51-0.59-0.86-0.99-1.07
			c-0.41-0.2-0.99-0.31-1.76-0.31c-1.17,0-2.34,0-3.51,0s-2.34,0-3.51,0c-1.12,0-2.25,0-3.4,0c-1.15,0-2.3,0-3.47,0
			c-0.66,0-1.17,0.11-1.53,0.34c-0.36,0.23-0.64,0.62-0.84,1.18c-0.46,1.07-0.83,2.01-1.11,2.82c-0.28,0.81-0.52,1.65-0.73,2.52
			c-0.1,0.46-0.05,0.85,0.15,1.18c0.2,0.33,0.51,0.55,0.92,0.65c0.2,0.05,0.42,0.09,0.65,0.11c0.23,0.03,0.55,0.09,0.95,0.19
			c0.56,0.05,0.97,0.1,1.22,0.15c0.25,0.05,0.48,0.1,0.69,0.15c0.97,0.2,1.72,0.64,2.25,1.3c0.53,0.66,0.8,1.48,0.8,2.44
			c0,1.07-0.31,1.95-0.92,2.63c-0.61,0.69-1.45,1.11-2.52,1.26c-1.02,0.15-2.39,0.27-4.12,0.34
			C184.48,156.67,182.42,156.71,180.03,156.71z M191.64,128.92c-0.31,0.87-0.32,1.49-0.04,1.87c0.28,0.38,0.85,0.57,1.72,0.57
			c0.66,0,1.32,0,1.99,0c0.66,0,1.32,0,1.99,0c0.71,0,1.44,0,2.18,0c0.74,0,1.46,0,2.18,0c0.76,0,1.25-0.22,1.45-0.65
			c0.2-0.43,0.15-1.05-0.15-1.87c-0.56-1.58-1.2-3.27-1.91-5.08c-0.71-1.81-1.45-3.73-2.21-5.76c-0.15-0.41-0.36-0.73-0.61-0.95
			c-0.26-0.23-0.56-0.34-0.92-0.34s-0.65,0.11-0.88,0.34s-0.45,0.57-0.65,1.03c-0.66,1.58-1.34,3.3-2.02,5.15
			C193.05,125.09,192.35,126.98,191.64,128.92z"/>
	</g>
</g>
<g id="Layer_2_copy" class="st23">
</g>
</svg>
