<svg id="Layer_3" data-name="Layer 3" xmlns="http://www.w3.org/2000/svg" viewBox="0 0 363.49 791.98"><defs><style>.cls-1{fill:#ffe41b;}.cls-1,.cls-2,.cls-3,.cls-4,.cls-5{stroke:#00685c;stroke-miterlimit:10;}.cls-2{fill:#5eb34b;}.cls-3{fill:#0198bd;}.cls-4{fill:#eb3772;}.cls-5{fill:#00685c;}</style></defs><polygon class="cls-1" points="359.75 599.33 359.75 787.77 174.72 787.77 174.72 554.33 360.77 554.33 360.04 554.33 359.75 599.33"/><rect class="cls-2" x="345.66" y="4" width="14.1" height="188.95"/><rect class="cls-3" x="345.66" y="192.88" width="14.1" height="180.93"/><rect class="cls-4" x="345.66" y="373.9" width="14.1" height="180.77"/><rect class="cls-5" x="50.73" y="507.19" width="31.92" height="47.38" transform="translate(133.38 1061.75) rotate(180)"/><rect class="cls-5" x="3.73" y="507.19" width="47.38" height="47.38" transform="translate(54.84 1061.77) rotate(180)"/><rect class="cls-1" x="298.26" y="507.19" width="47.38" height="47.38" transform="translate(643.9 1061.75) rotate(180)"/><rect class="cls-3" x="250.92" y="507.19" width="47.38" height="47.38" transform="translate(549.22 1061.75) rotate(180)"/><rect class="cls-2" x="203.58" y="507.19" width="47.38" height="47.38" transform="translate(454.54 1061.75) rotate(180)"/></svg>