<svg id="Layer_3" data-name="Layer 3" xmlns="http://www.w3.org/2000/svg" viewBox="0 0 172.77 172.06"><defs><style>.cls-1{fill:#fff7e3;stroke:#00685c;stroke-miterlimit:10;}</style></defs><path class="cls-1" d="M139.89,108H118V64.1h21.91a31.56,31.56,0,0,0,27-47.95A29.37,29.37,0,0,0,165,13.39c-.24-.32-.48-.62-.73-.93-.65-.78-1.34-1.53-2.05-2.25s-1.52-1.44-2.29-2.07l-.26-.21c-.2-.17-.4-.32-.63-.49l-.52-.4L158,6.66a7.15,7.15,0,0,0-.73-.49l-.41-.28-.51-.32-2.57-1.43-.67-.3c-.26-.13-.52-.24-.75-.34-.52-.22-1.05-.43-1.61-.64a27.84,27.84,0,0,0-3-.92,29.84,29.84,0,0,0-4.65-.84,30.37,30.37,0,0,0-3.23-.16A31.62,31.62,0,0,0,108.3,32.53V54.44H64.47V32.52A31.59,31.59,0,1,0,32.88,64.11H54.8V108H32.88a31.59,31.59,0,1,0,31.59,31.59V117.62h43.84v21.92a31.55,31.55,0,0,0,47.95,27,28.63,28.63,0,0,0,2.78-1.9c.32-.24.62-.48.91-.72.79-.65,1.53-1.33,2.26-2.06a27.91,27.91,0,0,0,2.06-2.28l.19-.24c.18-.21.34-.42.5-.64s.3-.37.41-.53.26-.35.38-.53.34-.48.49-.73a3.78,3.78,0,0,0,.28-.42l.27-.43,1.48-2.65.32-.7c.12-.25.23-.5.33-.73.22-.52.43-1,.63-1.59a29.26,29.26,0,0,0,.93-3,31.83,31.83,0,0,0,1-7.87A31.62,31.62,0,0,0,139.89,108ZM118,32.53a22,22,0,0,1,21.92-21.92,21.63,21.63,0,0,1,2.26.11,21.4,21.4,0,0,1,3.24.59c.69.17,1.36.39,2,.61.38.15.76.3,1.22.5.24.09.45.2.68.31L151.54,14l.15.1,2.16,1.58a19.8,19.8,0,0,1,1.53,1.39c.49.49,1,1,1.44,1.58l.48.61a21.46,21.46,0,0,1,1.33,1.94,21.93,21.93,0,0,1-18.74,33.25H118ZM32.88,54.44A21.89,21.89,0,1,1,54.8,32.52V54.44Zm21.92,85.1a21.89,21.89,0,1,1-21.92-21.92H54.8ZM64.47,108V64.11h43.84V108Zm97.22,33.85a20.52,20.52,0,0,1-.59,3.23,19.28,19.28,0,0,1-.61,2c-.15.39-.3.77-.49,1.2-.1.24-.21.47-.32.7l-1.17,2.14-.19.3-1.58,2.14a19.58,19.58,0,0,1-1.37,1.52c-.5.49-1,1-1.57,1.42-.19.16-.38.32-.63.51a22.12,22.12,0,0,1-1.94,1.33A21.93,21.93,0,0,1,118,139.54V117.62h21.91a21.89,21.89,0,0,1,21.8,24.18Z"/></svg>