<svg id="Layer_3" data-name="Layer 3" xmlns="http://www.w3.org/2000/svg" viewBox="0 0 180.2 539.34"><defs><style>.cls-1,.cls-6{fill:#ffe41b;}.cls-1,.cls-2,.cls-3,.cls-4,.cls-8,.cls-9{stroke:#00685c;stroke-miterlimit:10;stroke-width:0.5px;}.cls-2,.cls-7{fill:#0198bd;}.cls-3{fill:#00685c;}.cls-4{fill:#fff7e3;}.cls-5{fill:#eb3772;}.cls-8{fill:#fff;}.cls-9{fill:none;}</style></defs><rect class="cls-1" x="0.25" y="0.66" width="179.61" height="179.61"/><rect class="cls-2" x="0.25" y="180.48" width="179.61" height="179.61"/><rect class="cls-3" x="0.25" y="359.42" width="179.61" height="179.61"/><rect class="cls-4" x="0.29" y="0.28" width="179.79" height="12.75"/><circle class="cls-5" cx="7.63" cy="6.71" r="3.31"/><circle class="cls-6" cx="17.43" cy="6.71" r="3.31"/><circle class="cls-7" cx="27.29" cy="6.71" r="3.31"/><polygon class="cls-8" points="62.56 49.55 62.56 139.4 83.84 121.67 98.03 153.59 116.03 144.05 100.94 113.34 127.37 107.94 62.56 49.55"/><polygon class="cls-8" points="53.42 227.77 112.02 309.8 108.71 287.71 135.03 312.93 135.79 299.23 110.91 277.91 110.61 267.42 53.42 227.77"/><polygon class="cls-8" points="53.42 227.77 47.39 238.57 108.15 323.15 112.36 310.64 53.42 227.77"/><rect class="cls-8" x="82.07" y="395.14" width="14.87" height="121.53" transform="translate(-375.04 448.75) rotate(-78.01)"/><polygon class="cls-8" points="108.71 287.71 135.03 312.93 132.08 322.64 110.89 302.54 108.71 287.71"/><rect class="cls-9" x="0.35" y="13.04" width="179.5" height="525.96"/></svg>