<svg id="Layer_1" data-name="Layer 1" xmlns="http://www.w3.org/2000/svg" viewBox="0 0 1920 2136"><defs><style>.cls-1{fill:#fff7e3;}.cls-1,.cls-2,.cls-3,.cls-4,.cls-5{stroke:#00685c;stroke-miterlimit:10;}.cls-2{fill:#5eb34b;}.cls-3{fill:#fff;}.cls-4{fill:none;}.cls-5{fill:#ffe41b;}</style></defs><rect class="cls-1" x="943.5" y="967.4" width="699" height="552.89" transform="translate(2586 2487.7) rotate(180)"/><rect class="cls-1" x="222.5" y="778.69" width="554" height="505.81" transform="translate(999.01 2063.19) rotate(180)"/><path class="cls-2" d="M539.85-28.92V-29H192.24v.08h-3.55V357.27H193v0H535.9v0h4.3V-28.92ZM223.39,352.92H193v-30.4h30.4Zm0-34.7H193V287.79h30.4Zm0-34.73H193V253.06h30.4Zm0-34.73H193V218.34h30.4Zm0-34.73H193V183.64h30.4Zm0-34.72H193v-30.4h30.4Zm0-34.7H193V114.18h30.4Zm0-34.73H193V79.46h30.4Zm0-34.73H193V44.73h30.4Zm0-34.72H193V10h30.4Zm0-34.73H193V-24.7h30.4Zm34.72,347.22H227.72v-30.4h30.39Zm0-34.7H227.72V287.79h30.39Zm0-34.73H227.72V253.06h30.39Zm0-34.73H227.72V218.34h30.39Zm0-34.73H227.72V183.64h30.39Zm0-34.72H227.72v-30.4h30.39Zm0-34.7H227.72V114.18h30.39Zm0-34.73H227.72V79.46h30.39Zm0-34.73H227.72V44.73h30.39Zm0-34.72H227.72V10h30.39Zm0-34.73H227.72V-24.7h30.39Zm34.73,347.22H262.42v-30.4h30.42Zm0-34.7H262.42V287.79h30.42Zm0-34.73H262.42V253.06h30.42Zm0-34.73H262.42V218.34h30.42Zm0-34.73H262.42V183.64h30.42Zm0-34.72H262.42v-30.4h30.42Zm0-34.7H262.42V114.18h30.42Zm0-34.73H262.42V79.46h30.42Zm0-34.73H262.42V44.73h30.42Zm0-34.72H262.42V10h30.42Zm0-34.73H262.42V-24.7h30.42Zm4.3-30.4h30.43V5.7H297.14Zm0,34.73h30.43v30.4H297.14Zm0,34.7h30.43V75.15H297.14Zm0,34.73h30.43v30.42H297.14Zm0,34.72h30.43v30.43H297.14Zm30.43,238.74H297.14v-30.4h30.43Zm0-34.7H297.14V287.79h30.43Zm0-34.73H297.14V253.06h30.43Zm0-34.73H297.14V218.34h30.43Zm0-34.73H297.14V183.64h30.43Zm0-34.72H297.14v-30.4h30.43Zm34.72,173.61H331.87v-30.4h30.42Zm0-34.7H331.87V287.79h30.42Zm0-34.73H331.87V253.06h30.42Zm0-34.73H331.87V218.34h30.42Zm0-34.73H331.87V183.64h30.42Zm0-34.72H331.87v-30.4h30.42Zm0-34.7H331.87V114.18h30.42Zm0-34.73H331.87V79.46h30.42Zm0-34.73H331.87V44.73h30.42Zm0-34.72H331.87V10h30.42Zm0-34.73H331.87V-24.7h30.42ZM397,352.92H366.6v-30.4H397Zm0-34.7H366.6V287.79H397Zm0-34.73H366.6V253.06H397Zm0-34.73H366.6V218.34H397ZM397,214H366.6V183.64H397Zm0-34.72H366.6v-30.4H397Zm0-34.7H366.6V114.18H397Zm0-34.73H366.6V79.46H397Zm0-34.73H366.6V44.73H397Zm0-34.72H366.6V10H397ZM397,5.7H366.6V-24.7H397Zm34.73,347.22h-30.4v-30.4h30.4Zm0-34.7h-30.4V287.79h30.4Zm0-34.73h-30.4V253.06h30.4Zm0-34.73h-30.4V218.34h30.4Zm0-34.73h-30.4V183.64h30.4Zm0-34.72h-30.4v-30.4h30.4Zm0-34.7h-30.4V114.18h30.4Zm0-34.73h-30.4V79.46h30.4Zm0-34.73h-30.4V44.73h30.4Zm0-34.72h-30.4V10h30.4Zm0-34.73h-30.4V-24.7h30.4Zm34.73,347.22h-30.4v-30.4h30.4Zm0-34.7h-30.4V287.79h30.4Zm0-34.73h-30.4V253.06h30.4Zm0-34.73h-30.4V218.34h30.4Zm0-34.73h-30.4V183.64h30.4Zm0-34.72h-30.4v-30.4h30.4Zm0-34.7h-30.4V114.18h30.4Zm0-34.73h-30.4V79.46h30.4Zm0-34.73h-30.4V44.73h30.4Zm0-34.72h-30.4V10h30.4Zm0-34.73h-30.4V-24.7h30.4Zm34.72,347.22H470.75v-30.4h30.42Zm0-34.7H470.75V287.79h30.42Zm0-34.73H470.75V253.06h30.42Zm0-34.73H470.75V218.34h30.42Zm0-34.73H470.75V183.64h30.42Zm0-34.72H470.75v-30.4h30.42Zm0-34.7H470.75V114.18h30.42Zm0-34.73H470.75V79.46h30.42Zm0-34.73H470.75V44.73h30.42Zm0-34.72H470.75V10h30.42Zm0-34.73H470.75V-24.7h30.42ZM535.9,352.92H505.48v-30.4H535.9Zm0-34.7H505.48V287.79H535.9Zm0-34.73H505.48V253.06H535.9Zm0-34.73H505.48V218.34H535.9Zm0-34.73H505.48V183.64H535.9Zm0-34.72H505.48v-30.4H535.9Zm0-34.7H505.48V114.18H535.9Zm0-34.73H505.48V79.46H535.9Zm0-34.73H505.48V44.73H535.9Zm0-34.72H505.48V10H535.9Zm0-34.73H505.48V-24.7H535.9Z"/><path class="cls-2" d="M1390.85,718.08V718H1043.24v.08h-3.55v386.19h4.3v0H1386.9v0h4.3V718.08Zm-316.46,381.84H1044v-30.4h30.4Zm0-34.7H1044v-30.43h30.4Zm0-34.73H1044v-30.43h30.4Zm0-34.73H1044V965.34h30.4Zm0-34.73H1044V930.64h30.4Zm0-34.72H1044v-30.4h30.4Zm0-34.7H1044V861.18h30.4Zm0-34.73H1044V826.46h30.4Zm0-34.73H1044V791.73h30.4Zm0-34.72H1044V757h30.4Zm0-34.73H1044V722.3h30.4Zm34.72,347.22h-30.39v-30.4h30.39Zm0-34.7h-30.39v-30.43h30.39Zm0-34.73h-30.39v-30.43h30.39Zm0-34.73h-30.39V965.34h30.39Zm0-34.73h-30.39V930.64h30.39Zm0-34.72h-30.39v-30.4h30.39Zm0-34.7h-30.39V861.18h30.39Zm0-34.73h-30.39V826.46h30.39Zm0-34.73h-30.39V791.73h30.39Zm0-34.72h-30.39V757h30.39Zm0-34.73h-30.39V722.3h30.39Zm34.73,347.22h-30.42v-30.4h30.42Zm0-34.7h-30.42v-30.43h30.42Zm0-34.73h-30.42v-30.43h30.42Zm0-34.73h-30.42V965.34h30.42Zm0-34.73h-30.42V930.64h30.42Zm0-34.72h-30.42v-30.4h30.42Zm0-34.7h-30.42V861.18h30.42Zm0-34.73h-30.42V826.46h30.42Zm0-34.73h-30.42V791.73h30.42Zm0-34.72h-30.42V757h30.42Zm0-34.73h-30.42V722.3h30.42Zm4.3-30.4h30.43v30.4h-30.43Zm0,34.73h30.43v30.4h-30.43Zm0,34.7h30.43v30.42h-30.43Zm0,34.73h30.43v30.42h-30.43Zm0,34.72h30.43v30.43h-30.43Zm30.43,238.74h-30.43v-30.4h30.43Zm0-34.7h-30.43v-30.43h30.43Zm0-34.73h-30.43v-30.43h30.43Zm0-34.73h-30.43V965.34h30.43Zm0-34.73h-30.43V930.64h30.43Zm0-34.72h-30.43v-30.4h30.43Zm34.72,173.61h-30.42v-30.4h30.42Zm0-34.7h-30.42v-30.43h30.42Zm0-34.73h-30.42v-30.43h30.42Zm0-34.73h-30.42V965.34h30.42Zm0-34.73h-30.42V930.64h30.42Zm0-34.72h-30.42v-30.4h30.42Zm0-34.7h-30.42V861.18h30.42Zm0-34.73h-30.42V826.46h30.42Zm0-34.73h-30.42V791.73h30.42Zm0-34.72h-30.42V757h30.42Zm0-34.73h-30.42V722.3h30.42Zm34.7,347.22H1217.6v-30.4H1248Zm0-34.7H1217.6v-30.43H1248Zm0-34.73H1217.6v-30.43H1248Zm0-34.73H1217.6V965.34H1248Zm0-34.73H1217.6V930.64H1248Zm0-34.72H1217.6v-30.4H1248Zm0-34.7H1217.6V861.18H1248Zm0-34.73H1217.6V826.46H1248Zm0-34.73H1217.6V791.73H1248Zm0-34.72H1217.6V757H1248Zm0-34.73H1217.6V722.3H1248Zm34.73,347.22h-30.4v-30.4h30.4Zm0-34.7h-30.4v-30.43h30.4Zm0-34.73h-30.4v-30.43h30.4Zm0-34.73h-30.4V965.34h30.4Zm0-34.73h-30.4V930.64h30.4Zm0-34.72h-30.4v-30.4h30.4Zm0-34.7h-30.4V861.18h30.4Zm0-34.73h-30.4V826.46h30.4Zm0-34.73h-30.4V791.73h30.4Zm0-34.72h-30.4V757h30.4Zm0-34.73h-30.4V722.3h30.4Zm34.73,347.22h-30.4v-30.4h30.4Zm0-34.7h-30.4v-30.43h30.4Zm0-34.73h-30.4v-30.43h30.4Zm0-34.73h-30.4V965.34h30.4Zm0-34.73h-30.4V930.64h30.4Zm0-34.72h-30.4v-30.4h30.4Zm0-34.7h-30.4V861.18h30.4Zm0-34.73h-30.4V826.46h30.4Zm0-34.73h-30.4V791.73h30.4Zm0-34.72h-30.4V757h30.4Zm0-34.73h-30.4V722.3h30.4Zm34.72,347.22h-30.42v-30.4h30.42Zm0-34.7h-30.42v-30.43h30.42Zm0-34.73h-30.42v-30.43h30.42Zm0-34.73h-30.42V965.34h30.42Zm0-34.73h-30.42V930.64h30.42Zm0-34.72h-30.42v-30.4h30.42Zm0-34.7h-30.42V861.18h30.42Zm0-34.73h-30.42V826.46h30.42Zm0-34.73h-30.42V791.73h30.42Zm0-34.72h-30.42V757h30.42Zm0-34.73h-30.42V722.3h30.42Zm34.73,347.22h-30.42v-30.4h30.42Zm0-34.7h-30.42v-30.43h30.42Zm0-34.73h-30.42v-30.43h30.42Zm0-34.73h-30.42V965.34h30.42Zm0-34.73h-30.42V930.64h30.42Zm0-34.72h-30.42v-30.4h30.42Zm0-34.7h-30.42V861.18h30.42Zm0-34.73h-30.42V826.46h30.42Zm0-34.73h-30.42V791.73h30.42Zm0-34.72h-30.42V757h30.42Zm0-34.73h-30.42V722.3h30.42Z"/><rect class="cls-1" x="-33.49" y="234.53" width="692.99" height="879.15" transform="translate(626.01 1348.22) rotate(180)"/><rect class="cls-1" x="-41.5" y="1334.54" width="692.99" height="879.15" transform="translate(609.99 3548.23) rotate(180)"/><rect class="cls-1" x="937.5" y="-79.5" width="1024" height="714.19" transform="translate(2899 555.19) rotate(180)"/><rect class="cls-1" x="1424.5" y="1334.48" width="551" height="714.19" transform="translate(3400 3383.15) rotate(180)"/><rect class="cls-1" x="1096.5" y="470.61" width="865" height="552.89" transform="translate(3058 1494.11) rotate(180)"/><rect class="cls-3" x="-419.12" y="665.64" width="499.05" height="581.28" transform="translate(-1125.87 786.69) rotate(-90)"/><rect class="cls-1" x="116.13" y="1201.24" width="9.76" height="9.76" transform="translate(-1085.1 1327.13) rotate(-90)"/><rect class="cls-1" x="116.13" y="955.33" width="9.76" height="9.76" transform="translate(-839.2 1081.22) rotate(-90)"/><rect class="cls-1" x="116.13" y="703.79" width="9.76" height="9.76" transform="translate(-587.66 829.69) rotate(-90)"/><rect class="cls-3" x="1813.88" y="1698.64" width="499.05" height="581.28" transform="translate(74.13 4052.69) rotate(-90)"/><rect class="cls-1" x="1767.97" y="1988.33" width="9.76" height="9.76" transform="translate(-220.36 3766.06) rotate(-90)"/><rect class="cls-1" x="1767.97" y="1736.79" width="9.76" height="9.76" transform="translate(31.17 3514.52) rotate(-90)"/><line class="cls-4" x1="659" y1="627.24" x2="-10.15" y2="627.24"/><path class="cls-2" d="M1781.66,506.23v-.08H1474.93v.08h-3.14V847h3.8v0h302.59v0H1782V506.23ZM1502.41,843.15h-26.82V816.33h26.82Zm0-30.61h-26.82V785.69h26.82Zm0-30.65h-26.82V755.05h26.82Zm0-30.64h-26.82V724.4h26.82Zm0-30.64h-26.82V693.78h26.82Zm0-30.65h-26.82V663.14h26.82Zm0-30.62h-26.82V632.5h26.82Zm0-30.64h-26.82V601.85h26.82Zm0-30.64h-26.82V571.21h26.82Zm0-30.65h-26.82V540.59h26.82Zm0-30.64h-26.82V510h26.82Zm30.65,306.38h-26.83V816.33h26.83Zm0-30.61h-26.83V785.69h26.83Zm0-30.65h-26.83V755.05h26.83Zm0-30.64h-26.83V724.4h26.83Zm0-30.64h-26.83V693.78h26.83Zm0-30.65h-26.83V663.14h26.83Zm0-30.62h-26.83V632.5h26.83Zm0-30.64h-26.83V601.85h26.83Zm0-30.64h-26.83V571.21h26.83Zm0-30.65h-26.83V540.59h26.83Zm0-30.64h-26.83V510h26.83Zm30.64,306.38h-26.85V816.33h26.85Zm0-30.61h-26.85V785.69h26.85Zm0-30.65h-26.85V755.05h26.85Zm0-30.64h-26.85V724.4h26.85Zm0-30.64h-26.85V693.78h26.85Zm0-30.65h-26.85V663.14h26.85Zm0-30.62h-26.85V632.5h26.85Zm0-30.64h-26.85V601.85h26.85Zm0-30.64h-26.85V571.21h26.85Zm0-30.65h-26.85V540.59h26.85Zm0-30.64h-26.85V510h26.85Zm3.8-26.82h26.84v26.82H1567.5Zm0,30.64h26.84v26.82H1567.5Zm0,30.62h26.84v26.85H1567.5Zm0,30.64h26.84V628.7H1567.5Zm0,30.65h26.84v26.84H1567.5Zm26.84,210.65H1567.5V816.33h26.84Zm0-30.61H1567.5V785.69h26.84Zm0-30.65H1567.5V755.05h26.84Zm0-30.64H1567.5V724.4h26.84Zm0-30.64H1567.5V693.78h26.84Zm0-30.65H1567.5V663.14h26.84ZM1625,843.15h-26.85V816.33H1625Zm0-30.61h-26.85V785.69H1625Zm0-30.65h-26.85V755.05H1625Zm0-30.64h-26.85V724.4H1625Zm0-30.64h-26.85V693.78H1625Zm0-30.65h-26.85V663.14H1625Zm0-30.62h-26.85V632.5H1625Zm0-30.64h-26.85V601.85H1625Zm0-30.64h-26.85V571.21H1625Zm0-30.65h-26.85V540.59H1625Zm0-30.64h-26.85V510H1625Zm30.61,306.38h-26.82V816.33h26.82Zm0-30.61h-26.82V785.69h26.82Zm0-30.65h-26.82V755.05h26.82Zm0-30.64h-26.82V724.4h26.82Zm0-30.64h-26.82V693.78h26.82Zm0-30.65h-26.82V663.14h26.82Zm0-30.62h-26.82V632.5h26.82Zm0-30.64h-26.82V601.85h26.82Zm0-30.64h-26.82V571.21h26.82Zm0-30.65h-26.82V540.59h26.82Zm0-30.64h-26.82V510h26.82Zm30.65,306.38h-26.82V816.33h26.82Zm0-30.61h-26.82V785.69h26.82Zm0-30.65h-26.82V755.05h26.82Zm0-30.64h-26.82V724.4h26.82Zm0-30.64h-26.82V693.78h26.82Zm0-30.65h-26.82V663.14h26.82Zm0-30.62h-26.82V632.5h26.82Zm0-30.64h-26.82V601.85h26.82Zm0-30.64h-26.82V571.21h26.82Zm0-30.65h-26.82V540.59h26.82Zm0-30.64h-26.82V510h26.82Zm30.64,306.38h-26.82V816.33h26.82Zm0-30.61h-26.82V785.69h26.82Zm0-30.65h-26.82V755.05h26.82Zm0-30.64h-26.82V724.4h26.82Zm0-30.64h-26.82V693.78h26.82Zm0-30.65h-26.82V663.14h26.82Zm0-30.62h-26.82V632.5h26.82Zm0-30.64h-26.82V601.85h26.82Zm0-30.64h-26.82V571.21h26.82Zm0-30.65h-26.82V540.59h26.82Zm0-30.64h-26.82V510h26.82Zm30.64,306.38h-26.84V816.33h26.84Zm0-30.61h-26.84V785.69h26.84Zm0-30.65h-26.84V755.05h26.84Zm0-30.64h-26.84V724.4h26.84Zm0-30.64h-26.84V693.78h26.84Zm0-30.65h-26.84V663.14h26.84Zm0-30.62h-26.84V632.5h26.84Zm0-30.64h-26.84V601.85h26.84Zm0-30.64h-26.84V571.21h26.84Zm0-30.65h-26.84V540.59h26.84Zm0-30.64h-26.84V510h26.84Zm30.65,306.38h-26.85V816.33h26.85Zm0-30.61h-26.85V785.69h26.85Zm0-30.65h-26.85V755.05h26.85Zm0-30.64h-26.85V724.4h26.85Zm0-30.64h-26.85V693.78h26.85Zm0-30.65h-26.85V663.14h26.85Zm0-30.62h-26.85V632.5h26.85Zm0-30.64h-26.85V601.85h26.85Zm0-30.64h-26.85V571.21h26.85Zm0-30.65h-26.85V540.59h26.85Zm0-30.64h-26.85V510h26.85Z"/><path class="cls-2" d="M1698.66,1133.23v-.08H1391.93v.08h-3.14V1474h3.8v0h302.59v0H1699V1133.23Zm-279.25,336.92h-26.82v-26.82h26.82Zm0-30.61h-26.82v-26.85h26.82Zm0-30.65h-26.82v-26.84h26.82Zm0-30.64h-26.82V1351.4h26.82Zm0-30.64h-26.82v-26.83h26.82Zm0-30.65h-26.82v-26.82h26.82Zm0-30.62h-26.82V1259.5h26.82Zm0-30.64h-26.82v-26.85h26.82Zm0-30.64h-26.82v-26.85h26.82Zm0-30.65h-26.82v-26.82h26.82Zm0-30.64h-26.82V1137h26.82Zm30.65,306.38h-26.83v-26.82h26.83Zm0-30.61h-26.83v-26.85h26.83Zm0-30.65h-26.83v-26.84h26.83Zm0-30.64h-26.83V1351.4h26.83Zm0-30.64h-26.83v-26.83h26.83Zm0-30.65h-26.83v-26.82h26.83Zm0-30.62h-26.83V1259.5h26.83Zm0-30.64h-26.83v-26.85h26.83Zm0-30.64h-26.83v-26.85h26.83Zm0-30.65h-26.83v-26.82h26.83Zm0-30.64h-26.83V1137h26.83Zm30.64,306.38h-26.85v-26.82h26.85Zm0-30.61h-26.85v-26.85h26.85Zm0-30.65h-26.85v-26.84h26.85Zm0-30.64h-26.85V1351.4h26.85Zm0-30.64h-26.85v-26.83h26.85Zm0-30.65h-26.85v-26.82h26.85Zm0-30.62h-26.85V1259.5h26.85Zm0-30.64h-26.85v-26.85h26.85Zm0-30.64h-26.85v-26.85h26.85Zm0-30.65h-26.85v-26.82h26.85Zm0-30.64h-26.85V1137h26.85Zm3.8-26.82h26.84v26.82H1484.5Zm0,30.64h26.84v26.82H1484.5Zm0,30.62h26.84v26.85H1484.5Zm0,30.64h26.84v26.85H1484.5Zm0,30.65h26.84v26.84H1484.5Zm26.84,210.65H1484.5v-26.82h26.84Zm0-30.61H1484.5v-26.85h26.84Zm0-30.65H1484.5v-26.84h26.84Zm0-30.64H1484.5V1351.4h26.84Zm0-30.64H1484.5v-26.83h26.84Zm0-30.65H1484.5v-26.82h26.84ZM1542,1470.15h-26.85v-26.82H1542Zm0-30.61h-26.85v-26.85H1542Zm0-30.65h-26.85v-26.84H1542Zm0-30.64h-26.85V1351.4H1542Zm0-30.64h-26.85v-26.83H1542Zm0-30.65h-26.85v-26.82H1542Zm0-30.62h-26.85V1259.5H1542Zm0-30.64h-26.85v-26.85H1542Zm0-30.64h-26.85v-26.85H1542Zm0-30.65h-26.85v-26.82H1542Zm0-30.64h-26.85V1137H1542Zm30.61,306.38h-26.82v-26.82h26.82Zm0-30.61h-26.82v-26.85h26.82Zm0-30.65h-26.82v-26.84h26.82Zm0-30.64h-26.82V1351.4h26.82Zm0-30.64h-26.82v-26.83h26.82Zm0-30.65h-26.82v-26.82h26.82Zm0-30.62h-26.82V1259.5h26.82Zm0-30.64h-26.82v-26.85h26.82Zm0-30.64h-26.82v-26.85h26.82Zm0-30.65h-26.82v-26.82h26.82Zm0-30.64h-26.82V1137h26.82Zm30.65,306.38h-26.82v-26.82h26.82Zm0-30.61h-26.82v-26.85h26.82Zm0-30.65h-26.82v-26.84h26.82Zm0-30.64h-26.82V1351.4h26.82Zm0-30.64h-26.82v-26.83h26.82Zm0-30.65h-26.82v-26.82h26.82Zm0-30.62h-26.82V1259.5h26.82Zm0-30.64h-26.82v-26.85h26.82Zm0-30.64h-26.82v-26.85h26.82Zm0-30.65h-26.82v-26.82h26.82Zm0-30.64h-26.82V1137h26.82Zm30.64,306.38h-26.82v-26.82h26.82Zm0-30.61h-26.82v-26.85h26.82Zm0-30.65h-26.82v-26.84h26.82Zm0-30.64h-26.82V1351.4h26.82Zm0-30.64h-26.82v-26.83h26.82Zm0-30.65h-26.82v-26.82h26.82Zm0-30.62h-26.82V1259.5h26.82Zm0-30.64h-26.82v-26.85h26.82Zm0-30.64h-26.82v-26.85h26.82Zm0-30.65h-26.82v-26.82h26.82Zm0-30.64h-26.82V1137h26.82Zm30.64,306.38h-26.84v-26.82h26.84Zm0-30.61h-26.84v-26.85h26.84Zm0-30.65h-26.84v-26.84h26.84Zm0-30.64h-26.84V1351.4h26.84Zm0-30.64h-26.84v-26.83h26.84Zm0-30.65h-26.84v-26.82h26.84Zm0-30.62h-26.84V1259.5h26.84Zm0-30.64h-26.84v-26.85h26.84Zm0-30.64h-26.84v-26.85h26.84Zm0-30.65h-26.84v-26.82h26.84Zm0-30.64h-26.84V1137h26.84Zm30.65,306.38h-26.85v-26.82h26.85Zm0-30.61h-26.85v-26.85h26.85Zm0-30.65h-26.85v-26.84h26.85Zm0-30.64h-26.85V1351.4h26.85Zm0-30.64h-26.85v-26.83h26.85Zm0-30.65h-26.85v-26.82h26.85Zm0-30.62h-26.85V1259.5h26.85Zm0-30.64h-26.85v-26.85h26.85Zm0-30.64h-26.85v-26.85h26.85Zm0-30.65h-26.85v-26.82h26.85Zm0-30.64h-26.85V1137h26.85Z"/><rect class="cls-2" x="597.41" y="2.26" width="2.76" height="386.24"/><circle class="cls-3" cx="1767.49" cy="12.35" r="7.28"/><circle class="cls-3" cx="1640.39" cy="12.35" r="7.28"/><circle class="cls-3" cx="1513.28" cy="12.35" r="7.28"/><circle class="cls-3" cx="1767.49" cy="132.84" r="7.28"/><circle class="cls-3" cx="1640.39" cy="132.84" r="7.28"/><circle class="cls-3" cx="1513.28" cy="132.84" r="7.28"/><circle class="cls-3" cx="1767.49" cy="253.34" r="7.28"/><circle class="cls-3" cx="1640.39" cy="253.34" r="7.28"/><circle class="cls-3" cx="1513.28" cy="253.34" r="7.28"/><rect class="cls-5" x="-9.96" y="277.03" width="47.38" height="13.57" transform="translate(27.46 567.64) rotate(180)"/><rect class="cls-5" x="-9.96" y="865.03" width="47.38" height="13.57" transform="translate(27.46 1743.64) rotate(180)"/><rect class="cls-2" x="387.95" y="419.03" width="47.38" height="47.38" transform="translate(823.29 885.45) rotate(180)"/><polygon class="cls-5" points="726.91 1292.52 726.91 1480.96 541.88 1480.96 541.88 1247.51 727.93 1247.51 727.2 1247.51 726.91 1292.52"/><circle class="cls-3" cx="558.66" cy="165.92" r="3.64"/><circle class="cls-3" cx="495.16" cy="165.92" r="3.64"/><circle class="cls-3" cx="431.67" cy="165.92" r="3.64"/><circle class="cls-3" cx="368.17" cy="165.92" r="3.64"/><circle class="cls-3" cx="812.64" cy="165.92" r="3.64"/><circle class="cls-3" cx="749.15" cy="165.92" r="3.64"/><circle class="cls-3" cx="685.65" cy="165.92" r="3.64"/><circle class="cls-3" cx="622.15" cy="165.92" r="3.64"/><rect class="cls-4" x="1735.24" y="753.89" width="345.3" height="191.19" transform="translate(1058.4 2757.38) rotate(-90)"/><rect class="cls-1" x="1808.97" y="1018.98" width="6.76" height="6.76" transform="translate(789.99 2834.7) rotate(-90)"/><rect class="cls-1" x="1808.97" y="848.83" width="6.76" height="6.76" transform="translate(960.13 2664.56) rotate(-90)"/><rect class="cls-1" x="1808.97" y="674.79" width="6.76" height="6.76" transform="translate(1134.17 2490.52) rotate(-90)"/><rect class="cls-4" x="894.74" y="-108.61" width="345.3" height="402.19" transform="translate(974.9 1159.88) rotate(-90)"/><rect class="cls-1" x="862.97" y="261.98" width="6.76" height="6.76" transform="translate(600.99 1131.7) rotate(-90)"/><rect class="cls-1" x="1265.08" y="261.98" width="6.76" height="6.76" transform="translate(1003.1 1533.81) rotate(-90)"/><rect class="cls-1" x="862.97" y="91.83" width="6.76" height="6.76" transform="translate(771.13 961.56) rotate(-90)"/><rect class="cls-1" x="1265.08" y="91.83" width="6.76" height="6.76" transform="translate(1173.25 1363.67) rotate(-90)"/><rect class="cls-4" x="508.98" y="1402.18" width="345.3" height="402.19" transform="translate(1363.25 3206.56) rotate(180)"/><rect class="cls-1" x="851.12" y="1800.94" width="6.76" height="6.76" transform="translate(1708.99 3608.64) rotate(180)"/><rect class="cls-1" x="851.12" y="1398.83" width="6.76" height="6.76" transform="translate(1708.99 2804.42) rotate(180)"/><rect class="cls-1" x="680.97" y="1800.94" width="6.76" height="6.76" transform="translate(1368.7 3608.64) rotate(180)"/><rect class="cls-1" x="680.97" y="1398.83" width="6.76" height="6.76" transform="translate(1368.7 2804.42) rotate(180)"/><rect class="cls-1" x="506.93" y="1800.94" width="6.76" height="6.76" transform="translate(1020.62 3608.64) rotate(180)"/><rect class="cls-1" x="506.93" y="1398.83" width="6.76" height="6.76" transform="translate(1020.62 2804.42) rotate(180)"/><rect class="cls-4" x="414.24" y="941.89" width="345.3" height="191.19" transform="translate(-450.6 1624.38) rotate(-90)"/><rect class="cls-1" x="487.97" y="1206.98" width="6.76" height="6.76" transform="translate(-719.01 1701.7) rotate(-90)"/><rect class="cls-1" x="679.08" y="1206.98" width="6.76" height="6.76" transform="translate(-527.9 1892.81) rotate(-90)"/><rect class="cls-1" x="487.97" y="1036.83" width="6.76" height="6.76" transform="translate(-548.87 1531.56) rotate(-90)"/><rect class="cls-1" x="679.08" y="1036.83" width="6.76" height="6.76" transform="translate(-357.75 1722.67) rotate(-90)"/><rect class="cls-1" x="487.97" y="862.79" width="6.76" height="6.76" transform="translate(-374.83 1357.52) rotate(-90)"/><rect class="cls-1" x="679.08" y="862.79" width="6.76" height="6.76" transform="translate(-183.71 1548.63) rotate(-90)"/></svg>