<svg xmlns="http://www.w3.org/2000/svg" viewBox="0 0 183.36 543.14"><defs><style>.cls-1,.cls-6{fill:#ffe41b;}.cls-1,.cls-10,.cls-2,.cls-3,.cls-4,.cls-8,.cls-9{stroke:#00685c;}.cls-1,.cls-10,.cls-2,.cls-3,.cls-4,.cls-8{stroke-miterlimit:10;}.cls-2,.cls-7{fill:#0198bd;}.cls-3{fill:#00685c;}.cls-4{fill:#fff7e3;}.cls-5{fill:#eb3772;}.cls-8,.cls-9{fill:#fff;}.cls-9{stroke-linejoin:bevel;}.cls-10{fill:none;}</style></defs><g id="Layer_3" data-name="Layer 3"><rect class="cls-1" x="1.83" y="2.8" width="179.61" height="179.61"/><rect class="cls-2" x="1.83" y="182.62" width="179.61" height="179.61"/><rect class="cls-3" x="1.83" y="361.56" width="179.61" height="179.61"/><rect class="cls-4" x="1.87" y="2.42" width="179.79" height="12.75"/><circle class="cls-5" cx="9.22" cy="8.85" r="3.31"/><circle class="cls-6" cx="19.01" cy="8.85" r="3.31"/><circle class="cls-7" cx="28.87" cy="8.85" r="3.31"/><polygon class="cls-8" points="64.14 51.69 64.14 141.54 85.42 123.81 99.61 155.73 117.61 146.19 102.52 115.48 128.95 110.08 64.14 51.69"/><polygon class="cls-9" points="55.01 229.91 113.6 311.94 110.29 289.85 136.61 315.07 137.37 301.37 112.49 280.05 112.19 269.56 55.01 229.91"/><polygon class="cls-8" points="55.01 229.91 48.97 240.71 109.73 325.3 113.95 312.78 55.01 229.91"/><rect class="cls-8" x="83.65" y="397.28" width="14.87" height="121.53" transform="translate(-375.88 452) rotate(-78.01)"/><polygon class="cls-8" points="110.29 289.85 136.61 315.07 133.66 324.78 112.47 304.68 110.29 289.85"/><rect class="cls-10" x="1.93" y="15.18" width="179.5" height="525.96"/></g></svg>