<svg xmlns="http://www.w3.org/2000/svg" viewBox="0 0 162.47 952"><defs><style>.cls-1,.cls-6{fill:#fff7e3;}.cls-1,.cls-11,.cls-12,.cls-2,.cls-5,.cls-6{stroke:#00685c;}.cls-1,.cls-11,.cls-2,.cls-3,.cls-4{stroke-miterlimit:10;}.cls-2,.cls-4,.cls-5,.cls-7{fill:#00685c;}.cls-3{fill:none;}.cls-3,.cls-4{stroke:#fff7e3;}.cls-12,.cls-5,.cls-6{stroke-linejoin:bevel;}.cls-8{fill:#eb3772;}.cls-9{fill:#ffe41b;}.cls-10{fill:#0198bd;}.cls-11,.cls-12{fill:#fff;}</style></defs><g id="Layer_3" data-name="Layer 3"><rect class="cls-1" x="2.56" y="791.77" width="158.02" height="158.02"/><polygon class="cls-2" points="20.94 901.35 97.41 901.35 107.92 893.77 111.5 888.98 140.83 879.61 137.53 867.53 110.44 875.07 98.14 874.14 20.94 901.35"/><polygon class="cls-1" points="97.41 901.35 101.25 898.6 28.89 898.6 20.94 901.35 97.41 901.35"/><rect class="cls-1" x="118.98" y="874.88" width="14.01" height="5.7" rx="1.41" transform="translate(-231.9 66.44) rotate(-15.64)"/><line class="cls-3" x1="79.78" y1="887.32" x2="85.03" y2="891.28"/><line class="cls-3" x1="82.77" y1="886.14" x2="81.63" y2="892.62"/><rect class="cls-1" x="2.56" y="475.73" width="158.02" height="158.02"/><rect class="cls-4" x="19.77" y="557.41" width="123.93" height="2.45" transform="translate(-371.08 221.41) rotate(-45)"/><rect class="cls-1" x="2.56" y="633.73" width="158.02" height="158.02"/><polygon class="cls-5" points="63.84 772.92 100.95 716.08 101.96 703.19 101.11 697.33 110.3 669.25 102.18 663.63 93.09 688.81 86.63 697.33 63.84 772.92"/><polygon class="cls-6" points="100.95 716.08 101.33 711.38 66.21 765.17 63.84 772.92 100.95 716.08"/><path class="cls-1" d="M105.27,676.58,102.6,684c-.51,1.41-1.75,2-2.77,1.29h0a3.4,3.4,0,0,1-.94-3.82l2.67-7.44c.51-1.41,1.75-2,2.78-1.29h0A3.41,3.41,0,0,1,105.27,676.58Z"/><line class="cls-3" x1="84.82" y1="719.79" x2="89.51" y2="718.54"/><line class="cls-3" x1="85.64" y1="716.78" x2="88.58" y2="721.96"/><polygon class="cls-4" points="101.01 664.27 97.55 664.34 88.49 688.92 81.72 697.48 58.87 775.12 62.52 774.75 85.42 698.01 91.94 689.51 101.01 664.27"/><line class="cls-3" x1="88.98" y1="688.84" x2="92.02" y2="689.52"/><rect class="cls-1" x="2.37" y="2.14" width="158.02" height="158.02"/><rect class="cls-1" x="2.37" y="160.34" width="158.02" height="158.02"/><rect class="cls-1" x="2.37" y="317.77" width="158.02" height="158.02"/><rect class="cls-7" x="2.4" y="1.8" width="158.17" height="11.21"/><circle class="cls-8" cx="8.86" cy="7.45" r="2.91"/><circle class="cls-9" cx="17.48" cy="7.45" r="2.91"/><circle class="cls-10" cx="26.16" cy="7.45" r="2.91"/><polygon class="cls-11" points="57.19 45.14 57.19 124.19 75.91 108.59 88.39 136.68 104.23 128.29 90.95 101.27 114.2 96.51 57.19 45.14"/><polygon class="cls-12" points="49.15 201.94 100.7 274.11 97.79 254.68 120.94 276.86 121.61 264.81 99.72 246.05 99.46 236.83 49.15 201.94"/><polygon class="cls-11" points="49.15 201.94 43.84 211.44 97.3 285.86 101 274.85 49.15 201.94"/><rect class="cls-11" x="74.35" y="349.19" width="13.08" height="106.92" transform="translate(-329.77 398.14) rotate(-78.01)"/><polygon class="cls-11" points="97.79 254.68 120.94 276.86 118.35 285.41 99.71 267.72 97.79 254.68"/></g></svg>