<svg xmlns="http://www.w3.org/2000/svg" viewBox="0 0 282.04 606.21"><defs><style>.cls-1{fill:#ffe41b;}.cls-1,.cls-2,.cls-3,.cls-4{stroke:#00685c;}.cls-1,.cls-3,.cls-4{stroke-miterlimit:10;}.cls-2{fill:#fff7e3;stroke-linejoin:round;}.cls-3{fill:#00685c;}.cls-4,.cls-5{fill:#eb3772;}</style></defs><g id="Layer_2" data-name="Layer 2"><rect class="cls-1" x="95.99" y="59.24" width="62.25" height="496.69" transform="translate(126.46 -25.23) rotate(22.34)"/><rect class="cls-1" x="115.14" y="59.24" width="23.96" height="496.69" transform="translate(126.46 -25.23) rotate(22.34)"/><polygon class="cls-2" points="4 525.26 61.54 548.55 5.06 604.47 4 525.26"/><polygon class="cls-3" points="5.32 603.77 34.12 575.43 23.32 579.16 25.55 571.33 16.3 577.36 14.18 566.22 10.07 573.88 4.94 563.66 5.32 603.77"/><rect class="cls-3" x="191.68" y="70.21" width="62.52" height="7.62" transform="translate(44.87 -79.19) rotate(22.34)"/><rect class="cls-3" x="197.07" y="57.08" width="62.52" height="7.62" transform="translate(40.29 -82.22) rotate(22.34)"/><rect class="cls-3" x="203.3" y="41.93" width="62.52" height="7.62" transform="translate(35 -85.73) rotate(22.34)"/><path class="cls-4" d="M219.43,9.72h45.91a8.3,8.3,0,0,1,8.3,8.3V43.67a0,0,0,0,1,0,0H211.13a0,0,0,0,1,0,0V18A8.3,8.3,0,0,1,219.43,9.72Z" transform="translate(28.34 -90.13) rotate(22.34)"/><rect class="cls-2" x="194.51" y="63.33" width="62.52" height="7.62" transform="translate(42.47 -80.78) rotate(22.34)"/><rect class="cls-2" x="200.27" y="49.3" width="62.52" height="7.62" transform="translate(37.57 -84.02) rotate(22.34)"/><path class="cls-5" d="M174.42,182.69l.1,9.14,7.48-6.61a18.52,18.52,0,0,0,3.12-3.33c1-1.75,1.9-4.11.43-4.86-2.44-1.24-5.21,2-5.21,2s.43-4.28-2-5.34c-1-.47-2,.61-2.82,2C174.43,177.67,174.49,180.41,174.42,182.69Z"/></g></svg>